G04 #@! TF.FileFunction,Soldermask,Bot*
%FSLAX46Y46*%
G04 Gerber Fmt 4.6, Leading zero omitted, Abs format (unit mm)*
G04 Created by KiCad (PCBNEW 4.0.7) date 06/12/18 19:56:12*
%MOMM*%
%LPD*%
G01*
G04 APERTURE LIST*
%ADD10C,0.100000*%
%ADD11R,1.700000X1.700000*%
%ADD12O,1.700000X1.700000*%
%ADD13C,3.000000*%
%ADD14C,4.000000*%
G04 APERTURE END LIST*
D10*
D11*
X147828000Y-121412000D03*
D12*
X145288000Y-121412000D03*
X147828000Y-118872000D03*
X145288000Y-118872000D03*
X147828000Y-116332000D03*
X145288000Y-116332000D03*
X147828000Y-113792000D03*
X145288000Y-113792000D03*
X147828000Y-111252000D03*
X145288000Y-111252000D03*
X147828000Y-108712000D03*
X145288000Y-108712000D03*
X147828000Y-106172000D03*
X145288000Y-106172000D03*
X147828000Y-103632000D03*
X145288000Y-103632000D03*
X147828000Y-101092000D03*
X145288000Y-101092000D03*
X147828000Y-98552000D03*
X145288000Y-98552000D03*
X147828000Y-96012000D03*
X145288000Y-96012000D03*
X147828000Y-93472000D03*
X145288000Y-93472000D03*
X147828000Y-90932000D03*
X145288000Y-90932000D03*
X147828000Y-88392000D03*
X145288000Y-88392000D03*
X147828000Y-85852000D03*
X145288000Y-85852000D03*
X147828000Y-83312000D03*
X145288000Y-83312000D03*
X147828000Y-80772000D03*
X145288000Y-80772000D03*
X147828000Y-78232000D03*
X145288000Y-78232000D03*
X147828000Y-75692000D03*
X145288000Y-75692000D03*
X147828000Y-73152000D03*
X145288000Y-73152000D03*
D13*
X117729000Y-111760000D03*
D14*
X122809000Y-116840000D03*
X112649000Y-116840000D03*
X112649000Y-106680000D03*
X122809000Y-106680000D03*
D11*
X196850000Y-73152000D03*
D12*
X199390000Y-73152000D03*
X196850000Y-75692000D03*
X199390000Y-75692000D03*
X196850000Y-78232000D03*
X199390000Y-78232000D03*
X196850000Y-80772000D03*
X199390000Y-80772000D03*
X196850000Y-83312000D03*
X199390000Y-83312000D03*
X196850000Y-85852000D03*
X199390000Y-85852000D03*
X196850000Y-88392000D03*
X199390000Y-88392000D03*
X196850000Y-90932000D03*
X199390000Y-90932000D03*
X196850000Y-93472000D03*
X199390000Y-93472000D03*
X196850000Y-96012000D03*
X199390000Y-96012000D03*
X196850000Y-98552000D03*
X199390000Y-98552000D03*
X196850000Y-101092000D03*
X199390000Y-101092000D03*
X196850000Y-103632000D03*
X199390000Y-103632000D03*
X196850000Y-106172000D03*
X199390000Y-106172000D03*
X196850000Y-108712000D03*
X199390000Y-108712000D03*
X196850000Y-111252000D03*
X199390000Y-111252000D03*
X196850000Y-113792000D03*
X199390000Y-113792000D03*
X196850000Y-116332000D03*
X199390000Y-116332000D03*
X196850000Y-118872000D03*
X199390000Y-118872000D03*
X196850000Y-121412000D03*
X199390000Y-121412000D03*
D11*
X154686000Y-73152000D03*
D12*
X157226000Y-73152000D03*
X154686000Y-75692000D03*
X157226000Y-75692000D03*
X154686000Y-78232000D03*
X157226000Y-78232000D03*
X154686000Y-80772000D03*
X157226000Y-80772000D03*
X154686000Y-83312000D03*
X157226000Y-83312000D03*
X154686000Y-85852000D03*
X157226000Y-85852000D03*
X154686000Y-88392000D03*
X157226000Y-88392000D03*
X154686000Y-90932000D03*
X157226000Y-90932000D03*
X154686000Y-93472000D03*
X157226000Y-93472000D03*
X154686000Y-96012000D03*
X157226000Y-96012000D03*
X154686000Y-98552000D03*
X157226000Y-98552000D03*
X154686000Y-101092000D03*
X157226000Y-101092000D03*
X154686000Y-103632000D03*
X157226000Y-103632000D03*
X154686000Y-106172000D03*
X157226000Y-106172000D03*
X154686000Y-108712000D03*
X157226000Y-108712000D03*
X154686000Y-111252000D03*
X157226000Y-111252000D03*
X154686000Y-113792000D03*
X157226000Y-113792000D03*
X154686000Y-116332000D03*
X157226000Y-116332000D03*
X154686000Y-118872000D03*
X157226000Y-118872000D03*
X154686000Y-121412000D03*
X157226000Y-121412000D03*
D11*
X188595000Y-73152000D03*
D12*
X191135000Y-73152000D03*
X188595000Y-75692000D03*
X191135000Y-75692000D03*
X188595000Y-78232000D03*
X191135000Y-78232000D03*
X188595000Y-80772000D03*
X191135000Y-80772000D03*
X188595000Y-83312000D03*
X191135000Y-83312000D03*
X188595000Y-85852000D03*
X191135000Y-85852000D03*
X188595000Y-88392000D03*
X191135000Y-88392000D03*
X188595000Y-90932000D03*
X191135000Y-90932000D03*
X188595000Y-93472000D03*
X191135000Y-93472000D03*
X188595000Y-96012000D03*
X191135000Y-96012000D03*
X188595000Y-98552000D03*
X191135000Y-98552000D03*
X188595000Y-101092000D03*
X191135000Y-101092000D03*
X188595000Y-103632000D03*
X191135000Y-103632000D03*
X188595000Y-106172000D03*
X191135000Y-106172000D03*
X188595000Y-108712000D03*
X191135000Y-108712000D03*
X188595000Y-111252000D03*
X191135000Y-111252000D03*
X188595000Y-113792000D03*
X191135000Y-113792000D03*
X188595000Y-116332000D03*
X191135000Y-116332000D03*
X188595000Y-118872000D03*
X191135000Y-118872000D03*
X188595000Y-121412000D03*
X191135000Y-121412000D03*
M02*
