M48
;DRILL file {KiCad 4.0.7} date 06/19/18 15:52:24
;FORMAT={-:-/ absolute / inch / decimal}
FMAT,2
INCH,TZ
T1C0.016
T2C0.020
T3C0.039
T4C0.051
%
G90
G05
M72
T1
X4.42Y-3.04
X4.42Y-3.26
X4.52Y-3.04
X4.52Y-3.26
X4.62Y-3.04
X4.62Y-3.26
X4.75Y-2.98
X4.75Y-3.05
X4.75Y-3.12
X4.75Y-3.2
X4.75Y-3.27
X4.75Y-3.35
X4.765Y-3.915
X4.835Y-3.99
X4.89Y-3.915
X5.03Y-3.97
X5.08Y-4.325
T2
X4.29Y-3.1
X4.29Y-3.32
X4.29Y-3.59
X4.71Y-3.42
X4.88Y-3.4
X4.88Y-3.45
X4.91Y-4.07
X4.93Y-3.6
X4.93Y-3.71
X4.935Y-2.915
X4.98Y-2.86
X5.035Y-2.99
X5.12Y-2.79
X5.12Y-3.17
X5.21Y-3.66
X5.21Y-4.41
X5.27Y-3.44
X5.32Y-4.12
X5.34Y-4.23
X5.35Y-2.94
X5.4Y-3.66
X5.51Y-4.84
X5.53Y-4.77
X5.575Y-3.3
X5.6Y-3.72
X5.615Y-4.96
X5.65Y-2.93
X5.9Y-4.91
X5.95Y-3.78
X5.95Y-3.88
X5.97Y-4.5
X7.68Y-4.96
T3
X4.635Y-4.4
X5.72Y-2.88
X5.72Y-2.98
X5.72Y-3.08
X5.72Y-3.18
X5.72Y-3.28
X5.72Y-3.38
X5.72Y-3.48
X5.72Y-3.58
X5.72Y-3.68
X5.72Y-3.78
X5.72Y-3.88
X5.72Y-3.98
X5.72Y-4.08
X5.72Y-4.18
X5.72Y-4.28
X5.72Y-4.38
X5.72Y-4.48
X5.72Y-4.58
X5.72Y-4.68
X5.72Y-4.78
X5.82Y-2.88
X5.82Y-2.98
X5.82Y-3.08
X5.82Y-3.18
X5.82Y-3.28
X5.82Y-3.38
X5.82Y-3.48
X5.82Y-3.58
X5.82Y-3.68
X5.82Y-3.78
X5.82Y-3.88
X5.82Y-3.98
X5.82Y-4.08
X5.82Y-4.18
X5.82Y-4.28
X5.82Y-4.38
X5.82Y-4.48
X5.82Y-4.58
X5.82Y-4.68
X5.82Y-4.78
X6.09Y-2.88
X6.09Y-2.98
X6.09Y-3.08
X6.09Y-3.18
X6.09Y-3.28
X6.09Y-3.38
X6.09Y-3.48
X6.09Y-3.58
X6.09Y-3.68
X6.09Y-3.78
X6.09Y-3.88
X6.09Y-3.98
X6.09Y-4.08
X6.09Y-4.18
X6.09Y-4.28
X6.09Y-4.38
X6.09Y-4.48
X6.09Y-4.58
X6.09Y-4.68
X6.09Y-4.78
X6.19Y-2.88
X6.19Y-2.98
X6.19Y-3.08
X6.19Y-3.18
X6.19Y-3.28
X6.19Y-3.38
X6.19Y-3.48
X6.19Y-3.58
X6.19Y-3.68
X6.19Y-3.78
X6.19Y-3.88
X6.19Y-3.98
X6.19Y-4.08
X6.19Y-4.18
X6.19Y-4.28
X6.19Y-4.38
X6.19Y-4.48
X6.19Y-4.58
X6.19Y-4.68
X6.19Y-4.78
X7.425Y-2.88
X7.425Y-2.98
X7.425Y-3.08
X7.425Y-3.18
X7.425Y-3.28
X7.425Y-3.38
X7.425Y-3.48
X7.425Y-3.58
X7.425Y-3.68
X7.425Y-3.78
X7.425Y-3.88
X7.425Y-3.98
X7.425Y-4.08
X7.425Y-4.18
X7.425Y-4.28
X7.425Y-4.38
X7.425Y-4.48
X7.425Y-4.58
X7.425Y-4.68
X7.425Y-4.78
X7.525Y-2.88
X7.525Y-2.98
X7.525Y-3.08
X7.525Y-3.18
X7.525Y-3.28
X7.525Y-3.38
X7.525Y-3.48
X7.525Y-3.58
X7.525Y-3.68
X7.525Y-3.78
X7.525Y-3.88
X7.525Y-3.98
X7.525Y-4.08
X7.525Y-4.18
X7.525Y-4.28
X7.525Y-4.38
X7.525Y-4.48
X7.525Y-4.58
X7.525Y-4.68
X7.525Y-4.78
X7.75Y-2.88
X7.75Y-2.98
X7.75Y-3.08
X7.75Y-3.18
X7.75Y-3.28
X7.75Y-3.38
X7.75Y-3.48
X7.75Y-3.58
X7.75Y-3.68
X7.75Y-3.78
X7.75Y-3.88
X7.75Y-3.98
X7.75Y-4.08
X7.75Y-4.18
X7.75Y-4.28
X7.75Y-4.38
X7.75Y-4.48
X7.75Y-4.58
X7.75Y-4.68
X7.75Y-4.78
X7.85Y-2.88
X7.85Y-2.98
X7.85Y-3.08
X7.85Y-3.18
X7.85Y-3.28
X7.85Y-3.38
X7.85Y-3.48
X7.85Y-3.58
X7.85Y-3.68
X7.85Y-3.78
X7.85Y-3.88
X7.85Y-3.98
X7.85Y-4.08
X7.85Y-4.18
X7.85Y-4.28
X7.85Y-4.38
X7.85Y-4.48
X7.85Y-4.58
X7.85Y-4.68
X7.85Y-4.78
T4
X4.435Y-4.2
X4.435Y-4.6
X4.835Y-4.2
X4.835Y-4.6
T0
M30
