G04 #@! TF.FileFunction,Soldermask,Top*
%FSLAX46Y46*%
G04 Gerber Fmt 4.6, Leading zero omitted, Abs format (unit mm)*
G04 Created by KiCad (PCBNEW 4.0.7) date 06/12/18 19:56:12*
%MOMM*%
%LPD*%
G01*
G04 APERTURE LIST*
%ADD10C,0.100000*%
%ADD11R,1.700000X1.700000*%
%ADD12O,1.700000X1.700000*%
%ADD13R,1.500000X1.950000*%
%ADD14C,3.000000*%
%ADD15C,4.000000*%
%ADD16R,1.750000X0.450000*%
%ADD17R,1.450000X0.450000*%
%ADD18R,0.600000X1.550000*%
%ADD19R,1.000000X1.250000*%
%ADD20R,1.250000X1.000000*%
%ADD21R,0.700000X1.300000*%
%ADD22R,1.950000X1.500000*%
%ADD23R,1.300000X0.700000*%
%ADD24R,3.200000X2.000000*%
%ADD25R,2.000000X3.800000*%
%ADD26R,2.000000X1.500000*%
%ADD27R,1.600000X0.760000*%
G04 APERTURE END LIST*
D10*
D11*
X147828000Y-121412000D03*
D12*
X145288000Y-121412000D03*
X147828000Y-118872000D03*
X145288000Y-118872000D03*
X147828000Y-116332000D03*
X145288000Y-116332000D03*
X147828000Y-113792000D03*
X145288000Y-113792000D03*
X147828000Y-111252000D03*
X145288000Y-111252000D03*
X147828000Y-108712000D03*
X145288000Y-108712000D03*
X147828000Y-106172000D03*
X145288000Y-106172000D03*
X147828000Y-103632000D03*
X145288000Y-103632000D03*
X147828000Y-101092000D03*
X145288000Y-101092000D03*
X147828000Y-98552000D03*
X145288000Y-98552000D03*
X147828000Y-96012000D03*
X145288000Y-96012000D03*
X147828000Y-93472000D03*
X145288000Y-93472000D03*
X147828000Y-90932000D03*
X145288000Y-90932000D03*
X147828000Y-88392000D03*
X145288000Y-88392000D03*
X147828000Y-85852000D03*
X145288000Y-85852000D03*
X147828000Y-83312000D03*
X145288000Y-83312000D03*
X147828000Y-80772000D03*
X145288000Y-80772000D03*
X147828000Y-78232000D03*
X145288000Y-78232000D03*
X147828000Y-75692000D03*
X145288000Y-75692000D03*
X147828000Y-73152000D03*
X145288000Y-73152000D03*
D13*
X112268000Y-76095000D03*
X112268000Y-78845000D03*
D14*
X117729000Y-111760000D03*
D15*
X122809000Y-116840000D03*
X112649000Y-116840000D03*
X112649000Y-106680000D03*
X122809000Y-106680000D03*
D11*
X196850000Y-73152000D03*
D12*
X199390000Y-73152000D03*
X196850000Y-75692000D03*
X199390000Y-75692000D03*
X196850000Y-78232000D03*
X199390000Y-78232000D03*
X196850000Y-80772000D03*
X199390000Y-80772000D03*
X196850000Y-83312000D03*
X199390000Y-83312000D03*
X196850000Y-85852000D03*
X199390000Y-85852000D03*
X196850000Y-88392000D03*
X199390000Y-88392000D03*
X196850000Y-90932000D03*
X199390000Y-90932000D03*
X196850000Y-93472000D03*
X199390000Y-93472000D03*
X196850000Y-96012000D03*
X199390000Y-96012000D03*
X196850000Y-98552000D03*
X199390000Y-98552000D03*
X196850000Y-101092000D03*
X199390000Y-101092000D03*
X196850000Y-103632000D03*
X199390000Y-103632000D03*
X196850000Y-106172000D03*
X199390000Y-106172000D03*
X196850000Y-108712000D03*
X199390000Y-108712000D03*
X196850000Y-111252000D03*
X199390000Y-111252000D03*
X196850000Y-113792000D03*
X199390000Y-113792000D03*
X196850000Y-116332000D03*
X199390000Y-116332000D03*
X196850000Y-118872000D03*
X199390000Y-118872000D03*
X196850000Y-121412000D03*
X199390000Y-121412000D03*
D11*
X154686000Y-73152000D03*
D12*
X157226000Y-73152000D03*
X154686000Y-75692000D03*
X157226000Y-75692000D03*
X154686000Y-78232000D03*
X157226000Y-78232000D03*
X154686000Y-80772000D03*
X157226000Y-80772000D03*
X154686000Y-83312000D03*
X157226000Y-83312000D03*
X154686000Y-85852000D03*
X157226000Y-85852000D03*
X154686000Y-88392000D03*
X157226000Y-88392000D03*
X154686000Y-90932000D03*
X157226000Y-90932000D03*
X154686000Y-93472000D03*
X157226000Y-93472000D03*
X154686000Y-96012000D03*
X157226000Y-96012000D03*
X154686000Y-98552000D03*
X157226000Y-98552000D03*
X154686000Y-101092000D03*
X157226000Y-101092000D03*
X154686000Y-103632000D03*
X157226000Y-103632000D03*
X154686000Y-106172000D03*
X157226000Y-106172000D03*
X154686000Y-108712000D03*
X157226000Y-108712000D03*
X154686000Y-111252000D03*
X157226000Y-111252000D03*
X154686000Y-113792000D03*
X157226000Y-113792000D03*
X154686000Y-116332000D03*
X157226000Y-116332000D03*
X154686000Y-118872000D03*
X157226000Y-118872000D03*
X154686000Y-121412000D03*
X157226000Y-121412000D03*
D16*
X132505000Y-83473000D03*
X132505000Y-82823000D03*
X132505000Y-82173000D03*
X132505000Y-81523000D03*
X132505000Y-80873000D03*
X132505000Y-80223000D03*
X132505000Y-79573000D03*
X132505000Y-78923000D03*
X132505000Y-78273000D03*
X132505000Y-77623000D03*
X132505000Y-76973000D03*
X132505000Y-76323000D03*
X132505000Y-75673000D03*
X132505000Y-75023000D03*
X125305000Y-75023000D03*
X125305000Y-75673000D03*
X125305000Y-76323000D03*
X125305000Y-76973000D03*
X125305000Y-77623000D03*
X125305000Y-78273000D03*
X125305000Y-78923000D03*
X125305000Y-79573000D03*
X125305000Y-80223000D03*
X125305000Y-80873000D03*
X125305000Y-81523000D03*
X125305000Y-82173000D03*
X125305000Y-82823000D03*
X125305000Y-83473000D03*
D17*
X135607000Y-76323000D03*
X135607000Y-76973000D03*
X135607000Y-77623000D03*
X135607000Y-78273000D03*
X135607000Y-78923000D03*
X135607000Y-79573000D03*
X135607000Y-80223000D03*
X135607000Y-80873000D03*
X135607000Y-81523000D03*
X135607000Y-82173000D03*
X141507000Y-82173000D03*
X141507000Y-81523000D03*
X141507000Y-80873000D03*
X141507000Y-80223000D03*
X141507000Y-79573000D03*
X141507000Y-78923000D03*
X141507000Y-78273000D03*
X141507000Y-77623000D03*
X141507000Y-76973000D03*
X141507000Y-76323000D03*
X135607000Y-85467000D03*
X135607000Y-86117000D03*
X135607000Y-86767000D03*
X135607000Y-87417000D03*
X135607000Y-88067000D03*
X135607000Y-88717000D03*
X135607000Y-89367000D03*
X135607000Y-90017000D03*
X135607000Y-90667000D03*
X135607000Y-91317000D03*
X141507000Y-91317000D03*
X141507000Y-90667000D03*
X141507000Y-90017000D03*
X141507000Y-89367000D03*
X141507000Y-88717000D03*
X141507000Y-88067000D03*
X141507000Y-87417000D03*
X141507000Y-86767000D03*
X141507000Y-86117000D03*
X141507000Y-85467000D03*
D18*
X130429000Y-107475000D03*
X131699000Y-107475000D03*
X132969000Y-107475000D03*
X134239000Y-107475000D03*
X134239000Y-102075000D03*
X132969000Y-102075000D03*
X131699000Y-102075000D03*
X130429000Y-102075000D03*
D19*
X121523000Y-79375000D03*
X119523000Y-79375000D03*
X127905000Y-72644000D03*
X129905000Y-72644000D03*
D20*
X130048000Y-85868000D03*
X130048000Y-87868000D03*
D19*
X121523000Y-77470000D03*
X119523000Y-77470000D03*
D13*
X132334000Y-86509000D03*
X132334000Y-89259000D03*
X114808000Y-76095000D03*
X114808000Y-78845000D03*
D19*
X139557000Y-74676000D03*
X137557000Y-74676000D03*
X121523000Y-85090000D03*
X119523000Y-85090000D03*
X139557000Y-83820000D03*
X137557000Y-83820000D03*
D13*
X112268000Y-81683000D03*
X112268000Y-84433000D03*
D20*
X128143000Y-85868000D03*
X128143000Y-87868000D03*
D13*
X125857000Y-86382000D03*
X125857000Y-89132000D03*
D19*
X121523000Y-81280000D03*
X119523000Y-81280000D03*
D13*
X117348000Y-81683000D03*
X117348000Y-84433000D03*
D19*
X121523000Y-75565000D03*
X119523000Y-75565000D03*
D13*
X117348000Y-76095000D03*
X117348000Y-78845000D03*
D20*
X126111000Y-103521000D03*
X126111000Y-105521000D03*
D13*
X128270000Y-103273000D03*
X128270000Y-106023000D03*
D19*
X129905000Y-109855000D03*
X127905000Y-109855000D03*
X136795000Y-104648000D03*
X138795000Y-104648000D03*
X121523000Y-83185000D03*
X119523000Y-83185000D03*
D13*
X114808000Y-81683000D03*
X114808000Y-84433000D03*
D21*
X125537000Y-101346000D03*
X123637000Y-101346000D03*
X123637000Y-99441000D03*
X125537000Y-99441000D03*
X136845000Y-102489000D03*
X138745000Y-102489000D03*
X138745000Y-100584000D03*
X136845000Y-100584000D03*
X120081000Y-101346000D03*
X121981000Y-101346000D03*
X121981000Y-99441000D03*
X120081000Y-99441000D03*
D11*
X188595000Y-73152000D03*
D12*
X191135000Y-73152000D03*
X188595000Y-75692000D03*
X191135000Y-75692000D03*
X188595000Y-78232000D03*
X191135000Y-78232000D03*
X188595000Y-80772000D03*
X191135000Y-80772000D03*
X188595000Y-83312000D03*
X191135000Y-83312000D03*
X188595000Y-85852000D03*
X191135000Y-85852000D03*
X188595000Y-88392000D03*
X191135000Y-88392000D03*
X188595000Y-90932000D03*
X191135000Y-90932000D03*
X188595000Y-93472000D03*
X191135000Y-93472000D03*
X188595000Y-96012000D03*
X191135000Y-96012000D03*
X188595000Y-98552000D03*
X191135000Y-98552000D03*
X188595000Y-101092000D03*
X191135000Y-101092000D03*
X188595000Y-103632000D03*
X191135000Y-103632000D03*
X188595000Y-106172000D03*
X191135000Y-106172000D03*
X188595000Y-108712000D03*
X191135000Y-108712000D03*
X188595000Y-111252000D03*
X191135000Y-111252000D03*
X188595000Y-113792000D03*
X191135000Y-113792000D03*
X188595000Y-116332000D03*
X191135000Y-116332000D03*
X188595000Y-118872000D03*
X191135000Y-118872000D03*
X188595000Y-121412000D03*
X191135000Y-121412000D03*
D19*
X117459000Y-94869000D03*
X115459000Y-94869000D03*
D20*
X121539000Y-95996000D03*
X121539000Y-93996000D03*
D19*
X117459000Y-92964000D03*
X115459000Y-92964000D03*
D20*
X121539000Y-92313000D03*
X121539000Y-90313000D03*
D19*
X117459000Y-91059000D03*
X115459000Y-91059000D03*
D22*
X132693000Y-116459000D03*
X129943000Y-116459000D03*
D19*
X132318000Y-114300000D03*
X130318000Y-114300000D03*
D13*
X135255000Y-120672000D03*
X135255000Y-123422000D03*
D20*
X137541000Y-121047000D03*
X137541000Y-123047000D03*
D23*
X119380000Y-93919000D03*
X119380000Y-95819000D03*
X119380000Y-90363000D03*
X119380000Y-92263000D03*
D24*
X138557000Y-117946000D03*
X138557000Y-110146000D03*
D21*
X124526000Y-109855000D03*
X126426000Y-109855000D03*
X131384000Y-109855000D03*
X133284000Y-109855000D03*
X125537000Y-95885000D03*
X123637000Y-95885000D03*
X119573000Y-88519000D03*
X121473000Y-88519000D03*
D25*
X126390000Y-121285000D03*
D26*
X132690000Y-121285000D03*
X132690000Y-118985000D03*
X132690000Y-123585000D03*
D21*
X138745000Y-98679000D03*
X136845000Y-98679000D03*
X138745000Y-96774000D03*
X136845000Y-96774000D03*
X138745000Y-94869000D03*
X136845000Y-94869000D03*
D27*
X135001000Y-99314000D03*
X127381000Y-95504000D03*
X135001000Y-98044000D03*
X127381000Y-96774000D03*
X135001000Y-96774000D03*
X127381000Y-98044000D03*
X135001000Y-95504000D03*
X127381000Y-99314000D03*
M02*
