M48
;DRILL file {KiCad 4.0.7} date 04/25/18 17:03:45
;FORMAT={-:-/ absolute / inch / decimal}
FMAT,2
INCH,TZ
T1C0.016
T2C0.020
T3C0.024
T4C0.039
T5C0.051
%
G90
G05
M72
T1
X4.61Y-2.96
X4.61Y-3.06
X4.61Y-3.16
X4.61Y-3.26
X4.61Y-3.36
X4.61Y-3.46
X4.61Y-3.56
X4.63Y-3.91
X4.67Y-3.71
X4.67Y-3.91
X4.74Y-3.21
X4.74Y-3.31
X4.76Y-2.9
X4.97Y-2.96
X4.97Y-3.04
X4.97Y-3.22
T2
X4.36Y-3.52
X4.36Y-3.68
X4.36Y-3.82
X4.36Y-3.96
X4.36Y-4.1
X4.36Y-4.36
X4.36Y-4.5
X4.36Y-4.68
X4.36Y-4.8
X4.36Y-4.9
X4.4Y-4.96
X4.52Y-4.96
X4.54Y-2.84
X4.64Y-2.84
X4.64Y-4.96
X4.74Y-2.84
X4.76Y-4.96
X4.82Y-3.63
X4.84Y-2.84
X4.88Y-4.96
X4.94Y-3.61
X5.Y-3.3
X5.Y-4.96
X5.02Y-3.61
X5.12Y-4.96
X5.15Y-2.84
X5.18Y-3.61
X5.23Y-3.32
X5.24Y-4.96
X5.27Y-2.84
X5.31Y-4.22
X5.36Y-4.96
X5.38Y-2.84
X5.41Y-4.1
X5.48Y-3.
X5.48Y-4.96
X5.5Y-2.84
X5.58Y-4.96
X5.62Y-2.84
X5.64Y-3.28
X5.64Y-3.38
X5.64Y-3.5
X5.64Y-3.58
X5.64Y-3.66
X5.64Y-3.74
X5.64Y-3.82
X5.64Y-3.9
X5.64Y-3.98
X5.64Y-4.06
X5.64Y-4.14
X5.64Y-4.22
X5.64Y-4.3
X5.64Y-4.38
X5.64Y-4.46
X5.64Y-4.56
X5.64Y-4.64
X5.64Y-4.72
X5.64Y-4.8
X5.64Y-4.92
X5.92Y-4.22
X5.92Y-4.68
X5.96Y-3.22
X7.6Y-2.99
X7.6Y-4.56
X7.6Y-4.69
X7.68Y-4.85
T3
X4.43Y-2.84
X5.01Y-3.88
X5.01Y-4.04
X5.27Y-2.94
X5.33Y-3.3
X5.41Y-3.07
T4
X4.64Y-4.4
X5.72Y-2.88
X5.72Y-2.98
X5.72Y-3.08
X5.72Y-3.18
X5.72Y-3.28
X5.72Y-3.38
X5.72Y-3.48
X5.72Y-3.58
X5.72Y-3.68
X5.72Y-3.78
X5.72Y-3.88
X5.72Y-3.98
X5.72Y-4.08
X5.72Y-4.18
X5.72Y-4.28
X5.72Y-4.38
X5.72Y-4.48
X5.72Y-4.58
X5.72Y-4.68
X5.72Y-4.78
X5.82Y-2.88
X5.82Y-2.98
X5.82Y-3.08
X5.82Y-3.18
X5.82Y-3.28
X5.82Y-3.38
X5.82Y-3.48
X5.82Y-3.58
X5.82Y-3.68
X5.82Y-3.78
X5.82Y-3.88
X5.82Y-3.98
X5.82Y-4.08
X5.82Y-4.18
X5.82Y-4.28
X5.82Y-4.38
X5.82Y-4.48
X5.82Y-4.58
X5.82Y-4.68
X5.82Y-4.78
X6.09Y-2.88
X6.09Y-2.98
X6.09Y-3.08
X6.09Y-3.18
X6.09Y-3.28
X6.09Y-3.38
X6.09Y-3.48
X6.09Y-3.58
X6.09Y-3.68
X6.09Y-3.78
X6.09Y-3.88
X6.09Y-3.98
X6.09Y-4.08
X6.09Y-4.18
X6.09Y-4.28
X6.09Y-4.38
X6.09Y-4.48
X6.09Y-4.58
X6.09Y-4.68
X6.09Y-4.78
X6.19Y-2.88
X6.19Y-2.98
X6.19Y-3.08
X6.19Y-3.18
X6.19Y-3.28
X6.19Y-3.38
X6.19Y-3.48
X6.19Y-3.58
X6.19Y-3.68
X6.19Y-3.78
X6.19Y-3.88
X6.19Y-3.98
X6.19Y-4.08
X6.19Y-4.18
X6.19Y-4.28
X6.19Y-4.38
X6.19Y-4.48
X6.19Y-4.58
X6.19Y-4.68
X6.19Y-4.78
X7.425Y-2.88
X7.425Y-2.98
X7.425Y-3.08
X7.425Y-3.18
X7.425Y-3.28
X7.425Y-3.38
X7.425Y-3.48
X7.425Y-3.58
X7.425Y-3.68
X7.425Y-3.78
X7.425Y-3.88
X7.425Y-3.98
X7.425Y-4.08
X7.425Y-4.18
X7.425Y-4.28
X7.425Y-4.38
X7.425Y-4.48
X7.425Y-4.58
X7.425Y-4.68
X7.425Y-4.78
X7.525Y-2.88
X7.525Y-2.98
X7.525Y-3.08
X7.525Y-3.18
X7.525Y-3.28
X7.525Y-3.38
X7.525Y-3.48
X7.525Y-3.58
X7.525Y-3.68
X7.525Y-3.78
X7.525Y-3.88
X7.525Y-3.98
X7.525Y-4.08
X7.525Y-4.18
X7.525Y-4.28
X7.525Y-4.38
X7.525Y-4.48
X7.525Y-4.58
X7.525Y-4.68
X7.525Y-4.78
X7.75Y-2.88
X7.75Y-2.98
X7.75Y-3.08
X7.75Y-3.18
X7.75Y-3.28
X7.75Y-3.38
X7.75Y-3.48
X7.75Y-3.58
X7.75Y-3.68
X7.75Y-3.78
X7.75Y-3.88
X7.75Y-3.98
X7.75Y-4.08
X7.75Y-4.18
X7.75Y-4.28
X7.75Y-4.38
X7.75Y-4.48
X7.75Y-4.58
X7.75Y-4.68
X7.75Y-4.78
X7.85Y-2.88
X7.85Y-2.98
X7.85Y-3.08
X7.85Y-3.18
X7.85Y-3.28
X7.85Y-3.38
X7.85Y-3.48
X7.85Y-3.58
X7.85Y-3.68
X7.85Y-3.78
X7.85Y-3.88
X7.85Y-3.98
X7.85Y-4.08
X7.85Y-4.18
X7.85Y-4.28
X7.85Y-4.38
X7.85Y-4.48
X7.85Y-4.58
X7.85Y-4.68
X7.85Y-4.78
T5
X4.44Y-4.2
X4.44Y-4.6
X4.84Y-4.2
X4.84Y-4.6
T0
M30
