G04 #@! TF.FileFunction,Copper,L1,Top,Signal*
%FSLAX46Y46*%
G04 Gerber Fmt 4.6, Leading zero omitted, Abs format (unit mm)*
G04 Created by KiCad (PCBNEW 4.0.7) date 04/16/18 15:15:31*
%MOMM*%
%LPD*%
G01*
G04 APERTURE LIST*
%ADD10C,0.100000*%
%ADD11R,1.700000X1.700000*%
%ADD12O,1.700000X1.700000*%
%ADD13R,2.600000X1.600000*%
%ADD14C,3.000000*%
%ADD15C,4.000000*%
%ADD16R,3.200000X2.000000*%
%ADD17R,3.800000X2.000000*%
%ADD18R,1.500000X2.000000*%
%ADD19R,1.750000X0.450000*%
%ADD20R,1.450000X0.450000*%
%ADD21R,1.550000X0.600000*%
%ADD22R,1.000000X1.250000*%
%ADD23R,1.950000X1.500000*%
%ADD24R,1.250000X1.000000*%
%ADD25R,1.500000X1.950000*%
%ADD26R,0.700000X1.300000*%
%ADD27C,0.800000*%
%ADD28C,0.600000*%
%ADD29C,1.000000*%
%ADD30C,0.250000*%
%ADD31C,1.000000*%
%ADD32C,0.400000*%
%ADD33C,0.500000*%
%ADD34C,0.254000*%
G04 APERTURE END LIST*
D10*
D11*
X196850000Y-73152000D03*
D12*
X199390000Y-73152000D03*
X196850000Y-75692000D03*
X199390000Y-75692000D03*
X196850000Y-78232000D03*
X199390000Y-78232000D03*
X196850000Y-80772000D03*
X199390000Y-80772000D03*
X196850000Y-83312000D03*
X199390000Y-83312000D03*
X196850000Y-85852000D03*
X199390000Y-85852000D03*
X196850000Y-88392000D03*
X199390000Y-88392000D03*
X196850000Y-90932000D03*
X199390000Y-90932000D03*
X196850000Y-93472000D03*
X199390000Y-93472000D03*
X196850000Y-96012000D03*
X199390000Y-96012000D03*
X196850000Y-98552000D03*
X199390000Y-98552000D03*
X196850000Y-101092000D03*
X199390000Y-101092000D03*
X196850000Y-103632000D03*
X199390000Y-103632000D03*
X196850000Y-106172000D03*
X199390000Y-106172000D03*
X196850000Y-108712000D03*
X199390000Y-108712000D03*
X196850000Y-111252000D03*
X199390000Y-111252000D03*
X196850000Y-113792000D03*
X199390000Y-113792000D03*
X196850000Y-116332000D03*
X199390000Y-116332000D03*
X196850000Y-118872000D03*
X199390000Y-118872000D03*
X196850000Y-121412000D03*
X199390000Y-121412000D03*
D13*
X128756000Y-107188000D03*
X132356000Y-107188000D03*
X137392000Y-107188000D03*
X140992000Y-107188000D03*
D11*
X154686000Y-73152000D03*
D12*
X157226000Y-73152000D03*
X154686000Y-75692000D03*
X157226000Y-75692000D03*
X154686000Y-78232000D03*
X157226000Y-78232000D03*
X154686000Y-80772000D03*
X157226000Y-80772000D03*
X154686000Y-83312000D03*
X157226000Y-83312000D03*
X154686000Y-85852000D03*
X157226000Y-85852000D03*
X154686000Y-88392000D03*
X157226000Y-88392000D03*
X154686000Y-90932000D03*
X157226000Y-90932000D03*
X154686000Y-93472000D03*
X157226000Y-93472000D03*
X154686000Y-96012000D03*
X157226000Y-96012000D03*
X154686000Y-98552000D03*
X157226000Y-98552000D03*
X154686000Y-101092000D03*
X157226000Y-101092000D03*
X154686000Y-103632000D03*
X157226000Y-103632000D03*
X154686000Y-106172000D03*
X157226000Y-106172000D03*
X154686000Y-108712000D03*
X157226000Y-108712000D03*
X154686000Y-111252000D03*
X157226000Y-111252000D03*
X154686000Y-113792000D03*
X157226000Y-113792000D03*
X154686000Y-116332000D03*
X157226000Y-116332000D03*
X154686000Y-118872000D03*
X157226000Y-118872000D03*
X154686000Y-121412000D03*
X157226000Y-121412000D03*
D14*
X117856000Y-111760000D03*
D15*
X122936000Y-116840000D03*
X112776000Y-116840000D03*
X112776000Y-106680000D03*
X122936000Y-106680000D03*
D16*
X130937000Y-114210000D03*
X130937000Y-122010000D03*
D17*
X139192000Y-120498000D03*
D18*
X139192000Y-114198000D03*
X136892000Y-114198000D03*
X141492000Y-114198000D03*
D19*
X131616000Y-83473000D03*
X131616000Y-82823000D03*
X131616000Y-82173000D03*
X131616000Y-81523000D03*
X131616000Y-80873000D03*
X131616000Y-80223000D03*
X131616000Y-79573000D03*
X131616000Y-78923000D03*
X131616000Y-78273000D03*
X131616000Y-77623000D03*
X131616000Y-76973000D03*
X131616000Y-76323000D03*
X131616000Y-75673000D03*
X131616000Y-75023000D03*
X124416000Y-75023000D03*
X124416000Y-75673000D03*
X124416000Y-76323000D03*
X124416000Y-76973000D03*
X124416000Y-77623000D03*
X124416000Y-78273000D03*
X124416000Y-78923000D03*
X124416000Y-79573000D03*
X124416000Y-80223000D03*
X124416000Y-80873000D03*
X124416000Y-81523000D03*
X124416000Y-82173000D03*
X124416000Y-82823000D03*
X124416000Y-83473000D03*
D20*
X135226000Y-76323000D03*
X135226000Y-76973000D03*
X135226000Y-77623000D03*
X135226000Y-78273000D03*
X135226000Y-78923000D03*
X135226000Y-79573000D03*
X135226000Y-80223000D03*
X135226000Y-80873000D03*
X135226000Y-81523000D03*
X135226000Y-82173000D03*
X141126000Y-82173000D03*
X141126000Y-81523000D03*
X141126000Y-80873000D03*
X141126000Y-80223000D03*
X141126000Y-79573000D03*
X141126000Y-78923000D03*
X141126000Y-78273000D03*
X141126000Y-77623000D03*
X141126000Y-76973000D03*
X141126000Y-76323000D03*
X135226000Y-85467000D03*
X135226000Y-86117000D03*
X135226000Y-86767000D03*
X135226000Y-87417000D03*
X135226000Y-88067000D03*
X135226000Y-88717000D03*
X135226000Y-89367000D03*
X135226000Y-90017000D03*
X135226000Y-90667000D03*
X135226000Y-91317000D03*
X141126000Y-91317000D03*
X141126000Y-90667000D03*
X141126000Y-90017000D03*
X141126000Y-89367000D03*
X141126000Y-88717000D03*
X141126000Y-88067000D03*
X141126000Y-87417000D03*
X141126000Y-86767000D03*
X141126000Y-86117000D03*
X141126000Y-85467000D03*
D21*
X124300000Y-98679000D03*
X124300000Y-99949000D03*
X124300000Y-101219000D03*
X124300000Y-102489000D03*
X129700000Y-102489000D03*
X129700000Y-101219000D03*
X129700000Y-99949000D03*
X129700000Y-98679000D03*
D22*
X120380000Y-80264000D03*
X118380000Y-80264000D03*
D23*
X115167000Y-79756000D03*
X112417000Y-79756000D03*
D22*
X127016000Y-72644000D03*
X129016000Y-72644000D03*
D24*
X129032000Y-85868000D03*
X129032000Y-87868000D03*
D22*
X120380000Y-77724000D03*
X118380000Y-77724000D03*
X129556000Y-111252000D03*
X131556000Y-111252000D03*
D25*
X131572000Y-86509000D03*
X131572000Y-89259000D03*
D23*
X115167000Y-77216000D03*
X112417000Y-77216000D03*
D22*
X139176000Y-74676000D03*
X137176000Y-74676000D03*
X120380000Y-87884000D03*
X118380000Y-87884000D03*
X139176000Y-83820000D03*
X137176000Y-83820000D03*
X138192000Y-111252000D03*
X140192000Y-111252000D03*
D23*
X115167000Y-87376000D03*
X112417000Y-87376000D03*
D24*
X127000000Y-85868000D03*
X127000000Y-87868000D03*
D25*
X124460000Y-86509000D03*
X124460000Y-89259000D03*
D22*
X120380000Y-82804000D03*
X118380000Y-82804000D03*
D23*
X115167000Y-82296000D03*
X112417000Y-82296000D03*
D22*
X120380000Y-75184000D03*
X118380000Y-75184000D03*
D23*
X115167000Y-74676000D03*
X112417000Y-74676000D03*
D22*
X129524000Y-93980000D03*
X127524000Y-93980000D03*
D23*
X129899000Y-96520000D03*
X127149000Y-96520000D03*
D22*
X116824000Y-103124000D03*
X114824000Y-103124000D03*
X120380000Y-90424000D03*
X118380000Y-90424000D03*
X124952000Y-93980000D03*
X122952000Y-93980000D03*
X120380000Y-85344000D03*
X118380000Y-85344000D03*
D23*
X115167000Y-84836000D03*
X112417000Y-84836000D03*
D26*
X120330000Y-103124000D03*
X118430000Y-103124000D03*
X120330000Y-100584000D03*
X118430000Y-100584000D03*
X118430000Y-98044000D03*
X120330000Y-98044000D03*
X120330000Y-92964000D03*
X118430000Y-92964000D03*
X118430000Y-95504000D03*
X120330000Y-95504000D03*
X124902000Y-96520000D03*
X123002000Y-96520000D03*
X114874000Y-100584000D03*
X116774000Y-100584000D03*
X116774000Y-98044000D03*
X114874000Y-98044000D03*
D11*
X147828000Y-121412000D03*
D12*
X145288000Y-121412000D03*
X147828000Y-118872000D03*
X145288000Y-118872000D03*
X147828000Y-116332000D03*
X145288000Y-116332000D03*
X147828000Y-113792000D03*
X145288000Y-113792000D03*
X147828000Y-111252000D03*
X145288000Y-111252000D03*
X147828000Y-108712000D03*
X145288000Y-108712000D03*
X147828000Y-106172000D03*
X145288000Y-106172000D03*
X147828000Y-103632000D03*
X145288000Y-103632000D03*
X147828000Y-101092000D03*
X145288000Y-101092000D03*
X147828000Y-98552000D03*
X145288000Y-98552000D03*
X147828000Y-96012000D03*
X145288000Y-96012000D03*
X147828000Y-93472000D03*
X145288000Y-93472000D03*
X147828000Y-90932000D03*
X145288000Y-90932000D03*
X147828000Y-88392000D03*
X145288000Y-88392000D03*
X147828000Y-85852000D03*
X145288000Y-85852000D03*
X147828000Y-83312000D03*
X145288000Y-83312000D03*
X147828000Y-80772000D03*
X145288000Y-80772000D03*
X147828000Y-78232000D03*
X145288000Y-78232000D03*
X147828000Y-75692000D03*
X145288000Y-75692000D03*
X147828000Y-73152000D03*
X145288000Y-73152000D03*
D11*
X188595000Y-73152000D03*
D12*
X191135000Y-73152000D03*
X188595000Y-75692000D03*
X191135000Y-75692000D03*
X188595000Y-78232000D03*
X191135000Y-78232000D03*
X188595000Y-80772000D03*
X191135000Y-80772000D03*
X188595000Y-83312000D03*
X191135000Y-83312000D03*
X188595000Y-85852000D03*
X191135000Y-85852000D03*
X188595000Y-88392000D03*
X191135000Y-88392000D03*
X188595000Y-90932000D03*
X191135000Y-90932000D03*
X188595000Y-93472000D03*
X191135000Y-93472000D03*
X188595000Y-96012000D03*
X191135000Y-96012000D03*
X188595000Y-98552000D03*
X191135000Y-98552000D03*
X188595000Y-101092000D03*
X191135000Y-101092000D03*
X188595000Y-103632000D03*
X191135000Y-103632000D03*
X188595000Y-106172000D03*
X191135000Y-106172000D03*
X188595000Y-108712000D03*
X191135000Y-108712000D03*
X188595000Y-111252000D03*
X191135000Y-111252000D03*
X188595000Y-113792000D03*
X191135000Y-113792000D03*
X188595000Y-116332000D03*
X191135000Y-116332000D03*
X188595000Y-118872000D03*
X191135000Y-118872000D03*
X188595000Y-121412000D03*
X191135000Y-121412000D03*
D26*
X116774000Y-95504000D03*
X114874000Y-95504000D03*
D27*
X143256000Y-88900000D03*
X143256000Y-90932000D03*
X143256000Y-92964000D03*
X151384000Y-81788000D03*
X143256000Y-83312000D03*
X143256000Y-85852000D03*
X143256000Y-124968000D03*
X141732000Y-125984000D03*
X139192000Y-125984000D03*
X136144000Y-125984000D03*
X133096000Y-125984000D03*
X130048000Y-125984000D03*
X127000000Y-125984000D03*
X123952000Y-125984000D03*
X120904000Y-125984000D03*
X117856000Y-125984000D03*
X114808000Y-125984000D03*
X111760000Y-125984000D03*
X133858000Y-72136000D03*
X142748000Y-72136000D03*
X139700000Y-72136000D03*
X136652000Y-72136000D03*
X143256000Y-94996000D03*
X143256000Y-97028000D03*
X143256000Y-99060000D03*
X143256000Y-101092000D03*
X143256000Y-103124000D03*
X143256000Y-105156000D03*
X115316000Y-72136000D03*
X122936000Y-72136000D03*
X120396000Y-72136000D03*
X117856000Y-72136000D03*
X110744000Y-124460000D03*
X110744000Y-121920000D03*
X110744000Y-118872000D03*
X110744000Y-114300000D03*
X110744000Y-110744000D03*
X110744000Y-104140000D03*
X110744000Y-100584000D03*
X110744000Y-97028000D03*
X110744000Y-93472000D03*
X110744000Y-89408000D03*
X143256000Y-119888000D03*
X143256000Y-121920000D03*
X143256000Y-117856000D03*
X143256000Y-115824000D03*
X143256000Y-113284000D03*
X143256000Y-111252000D03*
X143256000Y-109220000D03*
X122428000Y-92202000D03*
X127508000Y-91694000D03*
X125476000Y-91694000D03*
X131572000Y-91694000D03*
X130810000Y-72136000D03*
D28*
X126238000Y-77216000D03*
X126238000Y-81788000D03*
X126238000Y-75184000D03*
D27*
X132842000Y-84328000D03*
X193040000Y-75946000D03*
X193040000Y-115824000D03*
X193040000Y-119126000D03*
X143256000Y-107188000D03*
X134874000Y-107188000D03*
D29*
X133858000Y-74676000D03*
X135382000Y-83820000D03*
X112522000Y-72136000D03*
X127254000Y-98552000D03*
X127254000Y-102616000D03*
D28*
X117094000Y-87884000D03*
X117094000Y-85344000D03*
X117094000Y-82804000D03*
X117094000Y-80264000D03*
X117094000Y-77724000D03*
X117094000Y-75184000D03*
X117094000Y-90424000D03*
D29*
X137414000Y-77978000D03*
D27*
X139192000Y-76200000D03*
X137414000Y-104140000D03*
X127000000Y-83820000D03*
D28*
X117602000Y-99314000D03*
X120396000Y-81534000D03*
X118618000Y-99314000D03*
X120904000Y-73660000D03*
D27*
X195072000Y-123190000D03*
X150368000Y-107188000D03*
X150368000Y-118872000D03*
D28*
X118618000Y-94234000D03*
X120396000Y-84074000D03*
D30*
X124416000Y-78923000D02*
X121721000Y-78923000D01*
X121721000Y-78923000D02*
X120380000Y-80264000D01*
X120380000Y-80264000D02*
X120380000Y-79486000D01*
X120142000Y-79248000D02*
X115675000Y-79248000D01*
X120380000Y-79486000D02*
X120142000Y-79248000D01*
X115675000Y-79248000D02*
X115167000Y-79756000D01*
D31*
X143256000Y-92964000D02*
X143256000Y-90932000D01*
X143256000Y-85852000D02*
X143256000Y-83312000D01*
X143256000Y-125984000D02*
X143256000Y-124968000D01*
X143256000Y-125984000D02*
X141732000Y-125984000D01*
X139192000Y-125984000D02*
X136144000Y-125984000D01*
X133096000Y-125984000D02*
X130048000Y-125984000D01*
X127000000Y-125984000D02*
X123952000Y-125984000D01*
X120904000Y-125984000D02*
X117856000Y-125984000D01*
X111760000Y-125984000D02*
X114808000Y-125984000D01*
X139700000Y-72136000D02*
X142748000Y-72136000D01*
X136652000Y-72136000D02*
X133858000Y-72136000D01*
X143256000Y-97028000D02*
X143256000Y-94996000D01*
X143256000Y-99060000D02*
X143256000Y-101092000D01*
X143256000Y-105156000D02*
X143256000Y-103124000D01*
X122936000Y-72136000D02*
X120396000Y-72136000D01*
X117856000Y-72136000D02*
X115316000Y-72136000D01*
X110744000Y-121920000D02*
X110744000Y-124460000D01*
X110744000Y-118872000D02*
X110744000Y-114300000D01*
X110744000Y-110744000D02*
X110744000Y-104140000D01*
X110744000Y-100584000D02*
X110744000Y-97028000D01*
X110744000Y-93472000D02*
X110744000Y-89408000D01*
X143256000Y-119888000D02*
X143256000Y-121920000D01*
X143256000Y-107188000D02*
X143256000Y-109220000D01*
X143256000Y-115824000D02*
X143256000Y-117856000D01*
X143256000Y-111252000D02*
X143256000Y-113284000D01*
X122952000Y-93980000D02*
X122952000Y-92726000D01*
X122952000Y-92726000D02*
X122428000Y-92202000D01*
X127524000Y-93980000D02*
X127524000Y-91710000D01*
X127524000Y-91710000D02*
X127508000Y-91694000D01*
X124460000Y-89259000D02*
X124460000Y-90678000D01*
X124460000Y-90678000D02*
X125476000Y-91694000D01*
X131572000Y-91694000D02*
X131572000Y-89259000D01*
X129016000Y-72644000D02*
X130302000Y-72644000D01*
X130302000Y-72644000D02*
X130810000Y-72136000D01*
D32*
X124416000Y-76973000D02*
X125995000Y-76973000D01*
X125995000Y-76973000D02*
X126238000Y-77216000D01*
X124416000Y-82173000D02*
X125853000Y-82173000D01*
X125853000Y-82173000D02*
X126238000Y-81788000D01*
X124416000Y-75673000D02*
X125749000Y-75673000D01*
X125749000Y-75673000D02*
X126238000Y-75184000D01*
X141126000Y-76973000D02*
X139689000Y-76973000D01*
X138716000Y-77470000D02*
X137176000Y-75930000D01*
X139192000Y-77470000D02*
X138716000Y-77470000D01*
X139689000Y-76973000D02*
X139192000Y-77470000D01*
X132842000Y-84328000D02*
X131826000Y-84328000D01*
X131826000Y-84328000D02*
X131826000Y-83683000D01*
X131826000Y-83683000D02*
X131616000Y-83473000D01*
X199390000Y-78232000D02*
X198120000Y-76962000D01*
X193548000Y-75946000D02*
X193040000Y-75946000D01*
X194564000Y-76962000D02*
X193548000Y-75946000D01*
X198120000Y-76962000D02*
X194564000Y-76962000D01*
D31*
X196850000Y-113792000D02*
X195072000Y-113792000D01*
X195072000Y-113792000D02*
X193040000Y-115824000D01*
X196850000Y-118872000D02*
X194310000Y-118872000D01*
X194056000Y-119126000D02*
X193040000Y-119126000D01*
X194310000Y-118872000D02*
X194056000Y-119126000D01*
X143256000Y-107188000D02*
X140992000Y-107188000D01*
X132356000Y-107188000D02*
X134874000Y-107188000D01*
D32*
X129032000Y-87868000D02*
X129032000Y-89259000D01*
X129032000Y-89259000D02*
X129032000Y-89408000D01*
X129032000Y-89408000D02*
X129032000Y-89259000D01*
X127000000Y-87868000D02*
X127000000Y-89259000D01*
X127254000Y-89154000D02*
X127254000Y-89259000D01*
X127105000Y-89154000D02*
X127254000Y-89154000D01*
X127000000Y-89259000D02*
X127105000Y-89154000D01*
X131572000Y-89259000D02*
X129032000Y-89259000D01*
X129032000Y-89259000D02*
X127254000Y-89259000D01*
X127254000Y-89259000D02*
X124460000Y-89259000D01*
X141126000Y-86117000D02*
X137176000Y-86117000D01*
X137160000Y-86106000D02*
X137176000Y-86106000D01*
X137165000Y-86106000D02*
X137160000Y-86106000D01*
X137176000Y-86117000D02*
X137165000Y-86106000D01*
X135226000Y-91317000D02*
X136267000Y-91317000D01*
X137176000Y-90408000D02*
X137176000Y-86106000D01*
X137176000Y-86106000D02*
X137176000Y-84820000D01*
X136267000Y-91317000D02*
X137176000Y-90408000D01*
X135226000Y-85467000D02*
X136529000Y-85467000D01*
X137176000Y-84820000D02*
X137176000Y-83820000D01*
X136529000Y-85467000D02*
X137176000Y-84820000D01*
X135226000Y-82173000D02*
X136783000Y-82173000D01*
X137176000Y-82566000D02*
X137176000Y-83820000D01*
X136783000Y-82173000D02*
X137176000Y-82566000D01*
X135226000Y-76323000D02*
X136783000Y-76323000D01*
X137176000Y-75930000D02*
X137176000Y-74676000D01*
X136783000Y-76323000D02*
X137176000Y-75930000D01*
X129016000Y-72644000D02*
X129016000Y-74660000D01*
X130029000Y-75673000D02*
X131616000Y-75673000D01*
X129016000Y-74660000D02*
X130029000Y-75673000D01*
D31*
X137176000Y-74676000D02*
X133858000Y-74676000D01*
X112417000Y-87376000D02*
X112417000Y-84836000D01*
X112417000Y-84836000D02*
X112417000Y-82296000D01*
X112417000Y-82296000D02*
X112417000Y-79756000D01*
X112417000Y-79756000D02*
X112417000Y-77216000D01*
X112417000Y-77216000D02*
X112417000Y-74676000D01*
X112776000Y-106680000D02*
X112776000Y-87735000D01*
X112776000Y-87735000D02*
X112417000Y-87376000D01*
X137176000Y-83820000D02*
X135382000Y-83820000D01*
X112522000Y-72136000D02*
X112417000Y-72241000D01*
X112417000Y-72241000D02*
X112417000Y-74676000D01*
X112776000Y-116840000D02*
X122936000Y-116840000D01*
X122936000Y-116840000D02*
X122936000Y-106680000D01*
D33*
X131556000Y-111252000D02*
X131556000Y-107988000D01*
X131556000Y-107988000D02*
X132356000Y-107188000D01*
X140192000Y-111252000D02*
X140192000Y-107988000D01*
X140192000Y-107988000D02*
X140992000Y-107188000D01*
X141492000Y-114198000D02*
X141492000Y-112552000D01*
X141492000Y-112552000D02*
X140192000Y-111252000D01*
X127149000Y-96520000D02*
X127524000Y-96145000D01*
D31*
X127524000Y-96145000D02*
X127524000Y-93980000D01*
D33*
X124300000Y-102489000D02*
X127127000Y-102489000D01*
D31*
X127149000Y-98447000D02*
X127149000Y-96520000D01*
X127254000Y-98552000D02*
X127149000Y-98447000D01*
D33*
X127127000Y-102489000D02*
X127254000Y-102616000D01*
D30*
X118380000Y-87884000D02*
X117094000Y-87884000D01*
X118380000Y-85344000D02*
X117094000Y-85344000D01*
X118380000Y-82804000D02*
X117094000Y-82804000D01*
X118380000Y-80264000D02*
X117094000Y-80264000D01*
X118380000Y-77724000D02*
X117094000Y-77724000D01*
D33*
X118380000Y-75184000D02*
X117094000Y-75184000D01*
X117094000Y-90424000D02*
X118380000Y-90424000D01*
D30*
X131616000Y-76323000D02*
X135226000Y-76323000D01*
D31*
X129524000Y-93980000D02*
X133350000Y-93980000D01*
X128756000Y-107188000D02*
X128756000Y-105178000D01*
X133350000Y-103632000D02*
X133350000Y-93980000D01*
X132334000Y-104648000D02*
X133350000Y-103632000D01*
X129286000Y-104648000D02*
X132334000Y-104648000D01*
X128756000Y-105178000D02*
X129286000Y-104648000D01*
X133350000Y-93980000D02*
X133350000Y-87376000D01*
X133350000Y-87376000D02*
X132483000Y-86509000D01*
X132483000Y-86509000D02*
X131572000Y-86509000D01*
D32*
X124416000Y-76323000D02*
X127016000Y-76323000D01*
X127000000Y-76200000D02*
X127016000Y-76200000D01*
X127000000Y-76307000D02*
X127000000Y-76200000D01*
X127016000Y-76323000D02*
X127000000Y-76307000D01*
X127016000Y-72644000D02*
X127016000Y-76200000D01*
X127016000Y-76200000D02*
X127016000Y-82804000D01*
X127016000Y-82804000D02*
X127000000Y-82804000D01*
X124416000Y-82823000D02*
X124435000Y-82804000D01*
X124435000Y-82804000D02*
X127000000Y-82804000D01*
X127000000Y-82804000D02*
X128524000Y-82804000D01*
X129032000Y-83312000D02*
X129032000Y-85868000D01*
X128524000Y-82804000D02*
X129032000Y-83312000D01*
X124416000Y-75023000D02*
X124416000Y-73704000D01*
X125476000Y-72644000D02*
X127016000Y-72644000D01*
X124416000Y-73704000D02*
X125476000Y-72644000D01*
D33*
X131572000Y-86509000D02*
X130931000Y-85868000D01*
X130931000Y-85868000D02*
X129032000Y-85868000D01*
X130937000Y-114210000D02*
X136880000Y-114210000D01*
X136880000Y-114210000D02*
X136892000Y-114198000D01*
X129700000Y-98679000D02*
X129700000Y-99949000D01*
X130937000Y-114210000D02*
X130937000Y-112633000D01*
X130937000Y-112633000D02*
X129556000Y-111252000D01*
X129556000Y-111252000D02*
X129556000Y-107988000D01*
X129556000Y-107988000D02*
X128756000Y-107188000D01*
X129899000Y-96520000D02*
X129524000Y-96145000D01*
X129524000Y-96145000D02*
X129524000Y-93980000D01*
X129700000Y-98679000D02*
X129700000Y-96719000D01*
X129700000Y-96719000D02*
X129899000Y-96520000D01*
D30*
X120380000Y-77724000D02*
X120380000Y-76946000D01*
X120142000Y-76708000D02*
X115675000Y-76708000D01*
X120380000Y-76946000D02*
X120142000Y-76708000D01*
X115675000Y-76708000D02*
X115167000Y-77216000D01*
X124416000Y-78273000D02*
X123356602Y-78273000D01*
X122807602Y-77724000D02*
X120380000Y-77724000D01*
X123356602Y-78273000D02*
X122807602Y-77724000D01*
D31*
X139176000Y-83820000D02*
X139176000Y-79740000D01*
X139176000Y-79740000D02*
X137414000Y-77978000D01*
D32*
X141126000Y-76323000D02*
X141126000Y-75086000D01*
X140716000Y-74676000D02*
X139176000Y-74676000D01*
X141126000Y-75086000D02*
X140716000Y-74676000D01*
D31*
X139176000Y-76184000D02*
X139176000Y-74676000D01*
X139192000Y-76200000D02*
X139176000Y-76184000D01*
X137414000Y-107166000D02*
X137414000Y-104140000D01*
X127000000Y-83820000D02*
X127000000Y-85868000D01*
X137392000Y-107188000D02*
X137414000Y-107166000D01*
D32*
X141126000Y-85467000D02*
X139569000Y-85467000D01*
X139176000Y-85074000D02*
X139176000Y-83820000D01*
X139569000Y-85467000D02*
X139176000Y-85074000D01*
X127000000Y-85868000D02*
X125101000Y-85868000D01*
X125101000Y-85868000D02*
X124460000Y-86509000D01*
X124416000Y-83473000D02*
X124605000Y-83473000D01*
X125101000Y-85868000D02*
X124460000Y-86509000D01*
X124416000Y-83473000D02*
X124416000Y-86465000D01*
X124416000Y-86465000D02*
X124460000Y-86509000D01*
D33*
X138192000Y-111252000D02*
X138192000Y-107988000D01*
X138192000Y-107988000D02*
X137392000Y-107188000D01*
X139192000Y-120498000D02*
X139192000Y-114198000D01*
X139192000Y-114198000D02*
X139192000Y-112252000D01*
X139192000Y-112252000D02*
X138192000Y-111252000D01*
D30*
X124460000Y-86509000D02*
X125101000Y-85868000D01*
X124416000Y-86465000D02*
X124460000Y-86509000D01*
X120380000Y-87884000D02*
X120380000Y-87360000D01*
X120380000Y-87360000D02*
X119888000Y-86868000D01*
X119888000Y-86868000D02*
X115675000Y-86868000D01*
X115675000Y-86868000D02*
X115167000Y-87376000D01*
X114874000Y-95504000D02*
X114874000Y-87669000D01*
X114874000Y-87669000D02*
X115167000Y-87376000D01*
X114874000Y-95504000D02*
X114874000Y-98044000D01*
X114874000Y-100584000D02*
X114874000Y-98044000D01*
X124416000Y-80873000D02*
X122777002Y-80873000D01*
X122428000Y-85836000D02*
X120380000Y-87884000D01*
X122428000Y-81222002D02*
X122428000Y-85836000D01*
X122777002Y-80873000D02*
X122428000Y-81222002D01*
X120380000Y-82804000D02*
X120380000Y-81550000D01*
X117602000Y-99314000D02*
X117602000Y-100584000D01*
X120380000Y-81550000D02*
X120396000Y-81534000D01*
X116774000Y-100584000D02*
X117602000Y-100584000D01*
X117602000Y-100584000D02*
X118430000Y-100584000D01*
X120380000Y-82804000D02*
X120380000Y-82280000D01*
X120380000Y-82280000D02*
X119888000Y-81788000D01*
X119888000Y-81788000D02*
X115675000Y-81788000D01*
X115675000Y-81788000D02*
X115167000Y-82296000D01*
X124416000Y-79573000D02*
X121849000Y-79573000D01*
X121412000Y-81772000D02*
X120380000Y-82804000D01*
X121412000Y-80010000D02*
X121412000Y-81772000D01*
X121849000Y-79573000D02*
X121412000Y-80010000D01*
X120380000Y-75184000D02*
X120380000Y-74184000D01*
X118430000Y-99126000D02*
X118430000Y-98044000D01*
X118618000Y-99314000D02*
X118430000Y-99126000D01*
X120380000Y-74184000D02*
X120904000Y-73660000D01*
X116774000Y-98044000D02*
X118430000Y-98044000D01*
X120380000Y-75184000D02*
X120380000Y-74406000D01*
X120142000Y-74168000D02*
X115675000Y-74168000D01*
X120380000Y-74406000D02*
X120142000Y-74168000D01*
X115675000Y-74168000D02*
X115167000Y-74676000D01*
X124416000Y-77623000D02*
X123343000Y-77623000D01*
X122682000Y-75184000D02*
X120380000Y-75184000D01*
X122936000Y-75438000D02*
X122682000Y-75184000D01*
X122936000Y-77216000D02*
X122936000Y-75438000D01*
X123343000Y-77623000D02*
X122936000Y-77216000D01*
D31*
X116824000Y-103124000D02*
X118430000Y-103124000D01*
X117856000Y-111760000D02*
X117856000Y-107188000D01*
X114824000Y-104156000D02*
X114824000Y-103124000D01*
X117856000Y-107188000D02*
X114824000Y-104156000D01*
D30*
X120330000Y-92964000D02*
X120330000Y-90474000D01*
X120330000Y-90474000D02*
X120380000Y-90424000D01*
X124416000Y-81523000D02*
X123201000Y-81523000D01*
X123201000Y-81523000D02*
X122936000Y-81788000D01*
X122936000Y-81788000D02*
X122936000Y-90932000D01*
X122936000Y-90932000D02*
X124952000Y-92948000D01*
X124952000Y-92948000D02*
X124952000Y-93980000D01*
D32*
X124902000Y-96520000D02*
X124902000Y-94030000D01*
X124902000Y-94030000D02*
X124952000Y-93980000D01*
D30*
X124952000Y-96470000D02*
X124902000Y-96520000D01*
X188595000Y-121412000D02*
X188722000Y-121412000D01*
X188722000Y-121412000D02*
X189992000Y-120142000D01*
X189992000Y-120142000D02*
X198120000Y-120142000D01*
X198120000Y-120142000D02*
X199390000Y-118872000D01*
X196850000Y-116332000D02*
X195580000Y-116332000D01*
X191897000Y-118110000D02*
X191135000Y-118872000D01*
X193802000Y-118110000D02*
X191897000Y-118110000D01*
X195580000Y-116332000D02*
X193802000Y-118110000D01*
X195580000Y-115570000D02*
X193548000Y-117602000D01*
X188595000Y-118872000D02*
X188722000Y-118872000D01*
X188722000Y-118872000D02*
X189992000Y-117602000D01*
X189992000Y-117602000D02*
X193548000Y-117602000D01*
X195580000Y-115570000D02*
X196088000Y-115062000D01*
X196088000Y-115062000D02*
X198120000Y-115062000D01*
X198120000Y-115062000D02*
X199390000Y-116332000D01*
X191135000Y-113792000D02*
X193042796Y-113792000D01*
X195582796Y-111252000D02*
X196850000Y-111252000D01*
X193042796Y-113792000D02*
X195582796Y-111252000D01*
X188595000Y-116332000D02*
X188722000Y-116332000D01*
X188722000Y-116332000D02*
X189992000Y-115062000D01*
X198120000Y-112522000D02*
X199390000Y-113792000D01*
X195072000Y-112522000D02*
X198120000Y-112522000D01*
X192532000Y-115062000D02*
X195072000Y-112522000D01*
X189992000Y-115062000D02*
X192532000Y-115062000D01*
X188595000Y-116332000D02*
X188595000Y-116205000D01*
D31*
X186182000Y-123444000D02*
X194818000Y-123444000D01*
X194818000Y-123444000D02*
X195072000Y-123190000D01*
X183642000Y-123444000D02*
X186182000Y-123444000D01*
X186182000Y-123444000D02*
X186436000Y-123444000D01*
X186690000Y-87757000D02*
X188595000Y-85852000D01*
X186690000Y-123190000D02*
X186690000Y-87757000D01*
X186436000Y-123444000D02*
X186690000Y-123190000D01*
X149606000Y-123444000D02*
X183642000Y-123444000D01*
X130937000Y-122010000D02*
X132371000Y-123444000D01*
X148844000Y-108712000D02*
X147828000Y-108712000D01*
X150368000Y-107188000D02*
X148844000Y-108712000D01*
X150368000Y-122682000D02*
X150368000Y-118872000D01*
X149606000Y-123444000D02*
X150368000Y-122682000D01*
X132371000Y-123444000D02*
X149606000Y-123444000D01*
D30*
X191135000Y-111252000D02*
X194310000Y-111252000D01*
X194310000Y-111252000D02*
X196850000Y-108712000D01*
X188595000Y-113792000D02*
X188722000Y-113792000D01*
X188722000Y-113792000D02*
X189992000Y-112522000D01*
X189992000Y-112522000D02*
X193676398Y-112522000D01*
X193676398Y-112522000D02*
X196279199Y-109919199D01*
X196279199Y-109919199D02*
X198057199Y-109919199D01*
X198057199Y-109919199D02*
X199390000Y-111252000D01*
X191135000Y-106172000D02*
X196850000Y-106172000D01*
X188595000Y-111252000D02*
X188722000Y-111252000D01*
X188722000Y-111252000D02*
X189992000Y-109982000D01*
X189992000Y-109982000D02*
X193548000Y-109982000D01*
X193548000Y-109982000D02*
X196088000Y-107442000D01*
X196088000Y-107442000D02*
X198120000Y-107442000D01*
X198120000Y-107442000D02*
X199390000Y-108712000D01*
X191135000Y-103632000D02*
X196850000Y-103632000D01*
X188595000Y-106172000D02*
X188722000Y-106172000D01*
X188722000Y-106172000D02*
X189992000Y-104902000D01*
X189992000Y-104902000D02*
X198120000Y-104902000D01*
X198120000Y-104902000D02*
X199390000Y-106172000D01*
X191135000Y-101092000D02*
X196850000Y-101092000D01*
X188595000Y-103632000D02*
X188722000Y-103632000D01*
X188722000Y-103632000D02*
X189992000Y-102362000D01*
X189992000Y-102362000D02*
X198120000Y-102362000D01*
X198120000Y-102362000D02*
X199390000Y-103632000D01*
X191135000Y-98552000D02*
X196850000Y-98552000D01*
X188595000Y-101092000D02*
X188722000Y-101092000D01*
X188722000Y-101092000D02*
X189992000Y-99822000D01*
X189992000Y-99822000D02*
X198120000Y-99822000D01*
X198120000Y-99822000D02*
X199390000Y-101092000D01*
X191135000Y-96012000D02*
X196850000Y-96012000D01*
X188595000Y-98552000D02*
X188722000Y-98552000D01*
X188722000Y-98552000D02*
X189992000Y-97282000D01*
X189992000Y-97282000D02*
X198120000Y-97282000D01*
X198120000Y-97282000D02*
X199390000Y-98552000D01*
X191135000Y-93472000D02*
X196850000Y-93472000D01*
X188595000Y-96012000D02*
X188722000Y-96012000D01*
X188722000Y-96012000D02*
X189992000Y-94742000D01*
X189992000Y-94742000D02*
X198120000Y-94742000D01*
X198120000Y-94742000D02*
X199390000Y-96012000D01*
X191135000Y-90932000D02*
X196850000Y-90932000D01*
X188595000Y-93472000D02*
X188722000Y-93472000D01*
X188722000Y-93472000D02*
X189992000Y-92202000D01*
X189992000Y-92202000D02*
X198120000Y-92202000D01*
X198120000Y-92202000D02*
X199390000Y-93472000D01*
X191135000Y-88392000D02*
X196850000Y-88392000D01*
X188595000Y-90932000D02*
X188722000Y-90932000D01*
X188722000Y-90932000D02*
X189992000Y-89662000D01*
X189992000Y-89662000D02*
X198120000Y-89662000D01*
X198120000Y-89662000D02*
X199390000Y-90932000D01*
X191135000Y-83312000D02*
X193294000Y-83312000D01*
X195834000Y-85852000D02*
X196850000Y-85852000D01*
X193294000Y-83312000D02*
X195834000Y-85852000D01*
X188595000Y-88392000D02*
X188722000Y-88392000D01*
X188722000Y-88392000D02*
X189992000Y-87122000D01*
X189992000Y-87122000D02*
X198120000Y-87122000D01*
X198120000Y-87122000D02*
X199390000Y-88392000D01*
X191135000Y-80772000D02*
X193294000Y-80772000D01*
X195834000Y-83312000D02*
X196850000Y-83312000D01*
X193294000Y-80772000D02*
X195834000Y-83312000D01*
X188595000Y-83312000D02*
X188722000Y-83312000D01*
X188722000Y-83312000D02*
X189992000Y-82042000D01*
X189992000Y-82042000D02*
X193294000Y-82042000D01*
X193294000Y-82042000D02*
X195834000Y-84582000D01*
X195834000Y-84582000D02*
X198120000Y-84582000D01*
X198120000Y-84582000D02*
X199390000Y-85852000D01*
X191135000Y-78232000D02*
X193294000Y-78232000D01*
X195834000Y-80772000D02*
X196850000Y-80772000D01*
X193294000Y-78232000D02*
X195834000Y-80772000D01*
X188595000Y-80772000D02*
X188595000Y-80645000D01*
X188595000Y-80645000D02*
X189738000Y-79502000D01*
X189738000Y-79502000D02*
X193294000Y-79502000D01*
X193294000Y-79502000D02*
X195834000Y-82042000D01*
X195834000Y-82042000D02*
X198120000Y-82042000D01*
X198120000Y-82042000D02*
X199390000Y-83312000D01*
X188595000Y-78232000D02*
X188722000Y-78232000D01*
X188722000Y-78232000D02*
X189992000Y-76962000D01*
X198120000Y-79502000D02*
X199390000Y-80772000D01*
X195834000Y-79502000D02*
X198120000Y-79502000D01*
X193294000Y-76962000D02*
X195834000Y-79502000D01*
X189992000Y-76962000D02*
X193294000Y-76962000D01*
X141126000Y-87417000D02*
X143977000Y-87417000D01*
X143977000Y-87417000D02*
X144952000Y-88392000D01*
X144952000Y-88392000D02*
X145288000Y-88392000D01*
X141126000Y-86767000D02*
X144171000Y-86767000D01*
X146558000Y-84582000D02*
X147828000Y-83312000D01*
X146558000Y-86868000D02*
X146558000Y-84582000D01*
X146304000Y-87122000D02*
X146558000Y-86868000D01*
X144526000Y-87122000D02*
X146304000Y-87122000D01*
X144171000Y-86767000D02*
X144526000Y-87122000D01*
X141126000Y-82173000D02*
X144149000Y-82173000D01*
X144149000Y-82173000D02*
X145288000Y-83312000D01*
X141126000Y-81523000D02*
X144261000Y-81523000D01*
X146558000Y-82042000D02*
X147828000Y-80772000D01*
X144780000Y-82042000D02*
X146558000Y-82042000D01*
X144261000Y-81523000D02*
X144780000Y-82042000D01*
X141126000Y-80873000D02*
X145187000Y-80873000D01*
X145187000Y-80873000D02*
X145288000Y-80772000D01*
X141126000Y-80223000D02*
X142158194Y-80223000D01*
X146558000Y-79502000D02*
X147828000Y-78232000D01*
X142879194Y-79502000D02*
X146558000Y-79502000D01*
X142158194Y-80223000D02*
X142879194Y-79502000D01*
X141126000Y-79573000D02*
X142171796Y-79573000D01*
X143512796Y-78232000D02*
X145288000Y-78232000D01*
X142171796Y-79573000D02*
X143512796Y-78232000D01*
X141126000Y-78923000D02*
X142185398Y-78923000D01*
X146558000Y-76962000D02*
X147828000Y-75692000D01*
X143510000Y-76962000D02*
X146558000Y-76962000D01*
X143140004Y-77331996D02*
X143510000Y-76962000D01*
X143140004Y-77968394D02*
X143140004Y-77331996D01*
X142185398Y-78923000D02*
X143140004Y-77968394D01*
X141126000Y-78273000D02*
X142199000Y-78273000D01*
X143002000Y-75692000D02*
X145288000Y-75692000D01*
X142690002Y-76003998D02*
X143002000Y-75692000D01*
X142690002Y-77781998D02*
X142690002Y-76003998D01*
X142199000Y-78273000D02*
X142690002Y-77781998D01*
X141126000Y-77623000D02*
X142087000Y-77623000D01*
X146558000Y-74422000D02*
X147828000Y-73152000D01*
X142494000Y-74422000D02*
X146558000Y-74422000D01*
X142240000Y-74676000D02*
X142494000Y-74422000D01*
X142240000Y-77470000D02*
X142240000Y-74676000D01*
X142087000Y-77623000D02*
X142240000Y-77470000D01*
X131616000Y-75023000D02*
X133487000Y-73152000D01*
X133487000Y-73152000D02*
X145288000Y-73152000D01*
X149352000Y-86106000D02*
X152908000Y-82550000D01*
X152908000Y-80264000D02*
X153670000Y-79502000D01*
X152908000Y-82550000D02*
X152908000Y-80264000D01*
X145288000Y-90932000D02*
X146558000Y-89662000D01*
X155956000Y-79502000D02*
X157226000Y-78232000D01*
X153670000Y-79502000D02*
X155956000Y-79502000D01*
X149352000Y-88900000D02*
X149352000Y-86106000D01*
X148590000Y-89662000D02*
X149352000Y-88900000D01*
X146558000Y-89662000D02*
X148590000Y-89662000D01*
X149860000Y-87122000D02*
X153416000Y-83566000D01*
X153416000Y-83566000D02*
X153416000Y-83058000D01*
X153416000Y-82550000D02*
X153924000Y-82042000D01*
X153416000Y-83058000D02*
X153416000Y-82550000D01*
X147828000Y-90932000D02*
X148082000Y-90932000D01*
X148082000Y-90932000D02*
X149860000Y-89154000D01*
X149860000Y-89154000D02*
X149860000Y-87122000D01*
X153924000Y-82042000D02*
X155956000Y-82042000D01*
X155956000Y-82042000D02*
X157226000Y-80772000D01*
X153924000Y-84582000D02*
X153866002Y-84582000D01*
X153866002Y-84582000D02*
X150310002Y-88138000D01*
X145288000Y-93472000D02*
X146558000Y-92202000D01*
X146558000Y-92202000D02*
X149352000Y-92202000D01*
X149352000Y-92202000D02*
X150310002Y-91243998D01*
X150310002Y-91243998D02*
X150310002Y-88138000D01*
X155956000Y-84582000D02*
X157226000Y-83312000D01*
X153924000Y-84582000D02*
X155956000Y-84582000D01*
X153924000Y-87122000D02*
X153808004Y-87122000D01*
X153808004Y-87122000D02*
X150760004Y-90170000D01*
X155956000Y-87122000D02*
X157226000Y-85852000D01*
X153924000Y-87122000D02*
X155956000Y-87122000D01*
X147828000Y-93472000D02*
X148844000Y-93472000D01*
X148844000Y-93472000D02*
X150760004Y-91555996D01*
X150760004Y-91555996D02*
X150760004Y-90170000D01*
X145288000Y-96012000D02*
X146558000Y-94742000D01*
X155956000Y-92202000D02*
X157226000Y-90932000D01*
X151130000Y-92202000D02*
X155956000Y-92202000D01*
X148590000Y-94742000D02*
X151130000Y-92202000D01*
X146558000Y-94742000D02*
X148590000Y-94742000D01*
X147828000Y-96012000D02*
X148336000Y-96012000D01*
X148336000Y-96012000D02*
X149606000Y-94742000D01*
X149606000Y-94742000D02*
X155956000Y-94742000D01*
X155956000Y-94742000D02*
X157226000Y-93472000D01*
X145288000Y-98552000D02*
X145542000Y-98552000D01*
X145542000Y-98552000D02*
X146812000Y-97282000D01*
X146812000Y-97282000D02*
X155956000Y-97282000D01*
X155956000Y-97282000D02*
X157226000Y-96012000D01*
X147828000Y-98552000D02*
X152654000Y-98552000D01*
X155956000Y-99822000D02*
X157226000Y-98552000D01*
X153924000Y-99822000D02*
X155956000Y-99822000D01*
X152654000Y-98552000D02*
X153924000Y-99822000D01*
X145288000Y-101092000D02*
X146558000Y-99822000D01*
X155956000Y-102362000D02*
X157226000Y-101092000D01*
X153924000Y-102362000D02*
X155956000Y-102362000D01*
X151384000Y-99822000D02*
X153924000Y-102362000D01*
X146558000Y-99822000D02*
X151384000Y-99822000D01*
X147828000Y-101092000D02*
X149860000Y-101092000D01*
X155956000Y-104902000D02*
X157226000Y-103632000D01*
X153670000Y-104902000D02*
X155956000Y-104902000D01*
X149860000Y-101092000D02*
X153670000Y-104902000D01*
X149352000Y-109728000D02*
X151638000Y-107442000D01*
X145288000Y-111252000D02*
X146558000Y-109982000D01*
X155956000Y-107442000D02*
X157226000Y-106172000D01*
X151638000Y-107442000D02*
X155956000Y-107442000D01*
X149098000Y-109982000D02*
X149352000Y-109728000D01*
X146558000Y-109982000D02*
X149098000Y-109982000D01*
X147828000Y-111252000D02*
X148590000Y-111252000D01*
X148590000Y-111252000D02*
X149860000Y-109982000D01*
X149860000Y-109982000D02*
X155956000Y-109982000D01*
X155956000Y-109982000D02*
X157226000Y-108712000D01*
X145288000Y-113792000D02*
X146558000Y-112522000D01*
X155956000Y-112522000D02*
X157226000Y-111252000D01*
X146558000Y-112522000D02*
X155956000Y-112522000D01*
X147828000Y-113792000D02*
X152654000Y-113792000D01*
X155956000Y-115062000D02*
X157226000Y-113792000D01*
X153924000Y-115062000D02*
X155956000Y-115062000D01*
X152654000Y-113792000D02*
X153924000Y-115062000D01*
X145288000Y-116332000D02*
X146558000Y-115062000D01*
X155956000Y-117602000D02*
X157226000Y-116332000D01*
X153670000Y-117602000D02*
X155956000Y-117602000D01*
X151130000Y-115062000D02*
X153670000Y-117602000D01*
X146558000Y-115062000D02*
X151130000Y-115062000D01*
X147828000Y-116332000D02*
X149860000Y-116332000D01*
X155956000Y-120142000D02*
X157226000Y-118872000D01*
X153670000Y-120142000D02*
X155956000Y-120142000D01*
X149860000Y-116332000D02*
X153670000Y-120142000D01*
D31*
X124300000Y-101219000D02*
X120330000Y-101219000D01*
X120330000Y-101219000D02*
X120396000Y-101285000D01*
X120396000Y-101285000D02*
X120396000Y-101346000D01*
X120396000Y-101346000D02*
X120330000Y-101346000D01*
X120330000Y-98044000D02*
X120330000Y-101346000D01*
X120330000Y-101346000D02*
X120330000Y-103124000D01*
D30*
X118430000Y-92964000D02*
X119126000Y-92964000D01*
X119126000Y-95504000D02*
X118430000Y-95504000D01*
X119380000Y-95250000D02*
X119126000Y-95504000D01*
X119380000Y-93218000D02*
X119380000Y-95250000D01*
X119126000Y-92964000D02*
X119380000Y-93218000D01*
X118430000Y-95504000D02*
X118430000Y-96332000D01*
X123317000Y-99949000D02*
X124300000Y-99949000D01*
X122936000Y-99568000D02*
X123317000Y-99949000D01*
X122936000Y-98044000D02*
X122936000Y-99568000D01*
X121666000Y-96774000D02*
X122936000Y-98044000D01*
X118872000Y-96774000D02*
X121666000Y-96774000D01*
X118430000Y-96332000D02*
X118872000Y-96774000D01*
D32*
X125730000Y-98044000D02*
X125476000Y-97790000D01*
X129700000Y-101219000D02*
X128143000Y-101219000D01*
X123698000Y-97790000D02*
X123002000Y-97094000D01*
X125222000Y-97790000D02*
X123698000Y-97790000D01*
X125476000Y-97790000D02*
X125222000Y-97790000D01*
X125730000Y-98806000D02*
X125730000Y-98044000D01*
X128143000Y-101219000D02*
X125730000Y-98806000D01*
X123002000Y-97094000D02*
X123002000Y-96520000D01*
D30*
X120330000Y-95504000D02*
X121986000Y-95504000D01*
X121986000Y-95504000D02*
X123002000Y-96520000D01*
X123002000Y-96520000D02*
X123002000Y-96840000D01*
X131616000Y-82823000D02*
X133426998Y-82823000D01*
X134265000Y-86767000D02*
X135226000Y-86767000D01*
X133604000Y-86106000D02*
X134265000Y-86767000D01*
X133604000Y-83000002D02*
X133604000Y-86106000D01*
X133426998Y-82823000D02*
X133604000Y-83000002D01*
X131616000Y-82173000D02*
X133989000Y-82173000D01*
X134377000Y-86117000D02*
X135226000Y-86117000D01*
X134112000Y-85852000D02*
X134377000Y-86117000D01*
X134112000Y-82296000D02*
X134112000Y-85852000D01*
X133989000Y-82173000D02*
X134112000Y-82296000D01*
X131616000Y-81523000D02*
X135226000Y-81523000D01*
X131616000Y-80873000D02*
X135226000Y-80873000D01*
X131616000Y-80223000D02*
X135226000Y-80223000D01*
X131616000Y-79573000D02*
X135226000Y-79573000D01*
X131616000Y-78923000D02*
X135226000Y-78923000D01*
X131616000Y-78273000D02*
X135226000Y-78273000D01*
X131616000Y-77623000D02*
X135226000Y-77623000D01*
X131616000Y-76973000D02*
X135226000Y-76973000D01*
X120380000Y-85344000D02*
X120380000Y-84090000D01*
X116774000Y-94554000D02*
X116774000Y-95504000D01*
X117094000Y-94234000D02*
X116774000Y-94554000D01*
X118618000Y-94234000D02*
X117094000Y-94234000D01*
X120380000Y-84090000D02*
X120396000Y-84074000D01*
X120380000Y-85344000D02*
X120380000Y-84820000D01*
X120380000Y-84820000D02*
X119888000Y-84328000D01*
X119888000Y-84328000D02*
X115675000Y-84328000D01*
X115675000Y-84328000D02*
X115167000Y-84836000D01*
X124416000Y-80223000D02*
X122469000Y-80223000D01*
X121920000Y-83804000D02*
X120380000Y-85344000D01*
X121920000Y-80772000D02*
X121920000Y-83804000D01*
X122469000Y-80223000D02*
X121920000Y-80772000D01*
D34*
G36*
X124820512Y-71988512D02*
X123760512Y-73048512D01*
X123559564Y-73349252D01*
X123489000Y-73704000D01*
X123489000Y-74066542D01*
X123271590Y-74107451D01*
X123024154Y-74266672D01*
X122943919Y-74384099D01*
X122682000Y-74332000D01*
X121684492Y-74332000D01*
X121774140Y-74242508D01*
X121930821Y-73865179D01*
X121931178Y-73456613D01*
X121775156Y-73079011D01*
X121486508Y-72789860D01*
X121109179Y-72633179D01*
X120700613Y-72632822D01*
X120323011Y-72788844D01*
X120033860Y-73077492D01*
X119934823Y-73316000D01*
X116536994Y-73316000D01*
X116430385Y-73243157D01*
X116142000Y-73184758D01*
X114192000Y-73184758D01*
X113922590Y-73235451D01*
X113711747Y-73371125D01*
X113518309Y-73291000D01*
X112702750Y-73291000D01*
X112544000Y-73449750D01*
X112544000Y-74549000D01*
X112564000Y-74549000D01*
X112564000Y-74803000D01*
X112544000Y-74803000D01*
X112544000Y-75902250D01*
X112587750Y-75946000D01*
X112544000Y-75989750D01*
X112544000Y-77089000D01*
X112564000Y-77089000D01*
X112564000Y-77343000D01*
X112544000Y-77343000D01*
X112544000Y-78442250D01*
X112587750Y-78486000D01*
X112544000Y-78529750D01*
X112544000Y-79629000D01*
X112564000Y-79629000D01*
X112564000Y-79883000D01*
X112544000Y-79883000D01*
X112544000Y-80982250D01*
X112587750Y-81026000D01*
X112544000Y-81069750D01*
X112544000Y-82169000D01*
X112564000Y-82169000D01*
X112564000Y-82423000D01*
X112544000Y-82423000D01*
X112544000Y-83522250D01*
X112587750Y-83566000D01*
X112544000Y-83609750D01*
X112544000Y-84709000D01*
X112564000Y-84709000D01*
X112564000Y-84963000D01*
X112544000Y-84963000D01*
X112544000Y-86062250D01*
X112587750Y-86106000D01*
X112544000Y-86149750D01*
X112544000Y-87249000D01*
X112564000Y-87249000D01*
X112564000Y-87503000D01*
X112544000Y-87503000D01*
X112544000Y-88602250D01*
X112702750Y-88761000D01*
X113518309Y-88761000D01*
X113714600Y-88679694D01*
X113903615Y-88808843D01*
X114022000Y-88832816D01*
X114022000Y-94313119D01*
X114007154Y-94322672D01*
X113841157Y-94565615D01*
X113782758Y-94854000D01*
X113782758Y-96154000D01*
X113833451Y-96423410D01*
X113992672Y-96670846D01*
X114022000Y-96690885D01*
X114022000Y-96853119D01*
X114007154Y-96862672D01*
X113841157Y-97105615D01*
X113782758Y-97394000D01*
X113782758Y-98694000D01*
X113833451Y-98963410D01*
X113992672Y-99210846D01*
X114022000Y-99230885D01*
X114022000Y-99393119D01*
X114007154Y-99402672D01*
X113841157Y-99645615D01*
X113782758Y-99934000D01*
X113782758Y-101234000D01*
X113833451Y-101503410D01*
X113992672Y-101750846D01*
X114072145Y-101805148D01*
X114054590Y-101808451D01*
X113807154Y-101967672D01*
X113641157Y-102210615D01*
X113582758Y-102499000D01*
X113582758Y-103749000D01*
X113597000Y-103824690D01*
X113597000Y-104156000D01*
X113599948Y-104170822D01*
X113278988Y-104040881D01*
X112230753Y-104049287D01*
X111301353Y-104434257D01*
X111080584Y-104804978D01*
X112776000Y-106500395D01*
X112790142Y-106486252D01*
X112969748Y-106665858D01*
X112955605Y-106680000D01*
X114651022Y-108375416D01*
X115021743Y-108154647D01*
X115415119Y-107182988D01*
X115409455Y-106476695D01*
X116629000Y-107696240D01*
X116629000Y-109857368D01*
X116596154Y-109870940D01*
X115969142Y-110496858D01*
X115629387Y-111315079D01*
X115628614Y-112201034D01*
X115966940Y-113019846D01*
X116592858Y-113646858D01*
X117411079Y-113986613D01*
X118297034Y-113987386D01*
X119115846Y-113649060D01*
X119742858Y-113023142D01*
X120082613Y-112204921D01*
X120083386Y-111318966D01*
X119745060Y-110500154D01*
X119119142Y-109873142D01*
X119083000Y-109858135D01*
X119083000Y-108555022D01*
X121240584Y-108555022D01*
X121461353Y-108925743D01*
X122433012Y-109319119D01*
X123481247Y-109310713D01*
X124410647Y-108925743D01*
X124631416Y-108555022D01*
X122936000Y-106859605D01*
X121240584Y-108555022D01*
X119083000Y-108555022D01*
X119083000Y-107188000D01*
X119057738Y-107061000D01*
X118989601Y-106718448D01*
X118723620Y-106320380D01*
X118580252Y-106177012D01*
X120296881Y-106177012D01*
X120305287Y-107225247D01*
X120690257Y-108154647D01*
X121060978Y-108375416D01*
X122756395Y-106680000D01*
X123115605Y-106680000D01*
X124811022Y-108375416D01*
X125181743Y-108154647D01*
X125575119Y-107182988D01*
X125566713Y-106134753D01*
X125181743Y-105205353D01*
X124811022Y-104984584D01*
X123115605Y-106680000D01*
X122756395Y-106680000D01*
X121060978Y-104984584D01*
X120690257Y-105205353D01*
X120296881Y-106177012D01*
X118580252Y-106177012D01*
X117208218Y-104804978D01*
X121240584Y-104804978D01*
X122936000Y-106500395D01*
X124631416Y-104804978D01*
X124410647Y-104434257D01*
X123438988Y-104040881D01*
X122390753Y-104049287D01*
X121461353Y-104434257D01*
X121240584Y-104804978D01*
X117208218Y-104804978D01*
X116893482Y-104490242D01*
X117324000Y-104490242D01*
X117593410Y-104439549D01*
X117682450Y-104382253D01*
X117791615Y-104456843D01*
X118080000Y-104515242D01*
X118780000Y-104515242D01*
X119049410Y-104464549D01*
X119296846Y-104305328D01*
X119379835Y-104183870D01*
X119448672Y-104290846D01*
X119691615Y-104456843D01*
X119980000Y-104515242D01*
X120680000Y-104515242D01*
X120949410Y-104464549D01*
X121196846Y-104305328D01*
X121362843Y-104062385D01*
X121421242Y-103774000D01*
X121421242Y-103656946D01*
X121463600Y-103593553D01*
X121557000Y-103124000D01*
X121557000Y-102774750D01*
X122890000Y-102774750D01*
X122890000Y-102915310D01*
X122986673Y-103148699D01*
X123165302Y-103327327D01*
X123398691Y-103424000D01*
X124014250Y-103424000D01*
X124173000Y-103265250D01*
X124173000Y-102616000D01*
X124427000Y-102616000D01*
X124427000Y-103265250D01*
X124585750Y-103424000D01*
X125201309Y-103424000D01*
X125434698Y-103327327D01*
X125613327Y-103148699D01*
X125710000Y-102915310D01*
X125710000Y-102774750D01*
X125551250Y-102616000D01*
X124427000Y-102616000D01*
X124173000Y-102616000D01*
X123048750Y-102616000D01*
X122890000Y-102774750D01*
X121557000Y-102774750D01*
X121557000Y-102446000D01*
X124300000Y-102446000D01*
X124722296Y-102362000D01*
X125551250Y-102362000D01*
X125710000Y-102203250D01*
X125710000Y-102062690D01*
X125662218Y-101947335D01*
X125757843Y-101807385D01*
X125816242Y-101519000D01*
X125816242Y-100919000D01*
X125765549Y-100649590D01*
X125724628Y-100585997D01*
X125757843Y-100537385D01*
X125816242Y-100249000D01*
X125816242Y-100203218D01*
X127487512Y-101874488D01*
X127788252Y-102075436D01*
X128143000Y-102146000D01*
X128192466Y-102146000D01*
X128183758Y-102189000D01*
X128183758Y-102789000D01*
X128234451Y-103058410D01*
X128393672Y-103305846D01*
X128636615Y-103471843D01*
X128831744Y-103511357D01*
X128816447Y-103514400D01*
X128427928Y-103774000D01*
X128418380Y-103780380D01*
X127888380Y-104310380D01*
X127622400Y-104708447D01*
X127529000Y-105178000D01*
X127529000Y-105646758D01*
X127456000Y-105646758D01*
X127186590Y-105697451D01*
X126939154Y-105856672D01*
X126773157Y-106099615D01*
X126714758Y-106388000D01*
X126714758Y-107988000D01*
X126765451Y-108257410D01*
X126924672Y-108504846D01*
X127167615Y-108670843D01*
X127456000Y-108729242D01*
X128579000Y-108729242D01*
X128579000Y-110070032D01*
X128539154Y-110095672D01*
X128373157Y-110338615D01*
X128314758Y-110627000D01*
X128314758Y-111877000D01*
X128365451Y-112146410D01*
X128524672Y-112393846D01*
X128767615Y-112559843D01*
X128948040Y-112596380D01*
X128820154Y-112678672D01*
X128654157Y-112921615D01*
X128595758Y-113210000D01*
X128595758Y-115210000D01*
X128646451Y-115479410D01*
X128805672Y-115726846D01*
X129048615Y-115892843D01*
X129337000Y-115951242D01*
X132537000Y-115951242D01*
X132806410Y-115900549D01*
X133053846Y-115741328D01*
X133219843Y-115498385D01*
X133278242Y-115210000D01*
X133278242Y-115187000D01*
X135400758Y-115187000D01*
X135400758Y-115198000D01*
X135451451Y-115467410D01*
X135610672Y-115714846D01*
X135853615Y-115880843D01*
X136142000Y-115939242D01*
X137642000Y-115939242D01*
X137911410Y-115888549D01*
X138041953Y-115804547D01*
X138153615Y-115880843D01*
X138215000Y-115893274D01*
X138215000Y-118756758D01*
X137292000Y-118756758D01*
X137022590Y-118807451D01*
X136775154Y-118966672D01*
X136609157Y-119209615D01*
X136550758Y-119498000D01*
X136550758Y-121498000D01*
X136601451Y-121767410D01*
X136760672Y-122014846D01*
X137003615Y-122180843D01*
X137182165Y-122217000D01*
X133278242Y-122217000D01*
X133278242Y-121010000D01*
X133227549Y-120740590D01*
X133068328Y-120493154D01*
X132825385Y-120327157D01*
X132537000Y-120268758D01*
X129337000Y-120268758D01*
X129067590Y-120319451D01*
X128820154Y-120478672D01*
X128654157Y-120721615D01*
X128595758Y-121010000D01*
X128595758Y-123010000D01*
X128646451Y-123279410D01*
X128805672Y-123526846D01*
X129048615Y-123692843D01*
X129337000Y-123751242D01*
X130943002Y-123751242D01*
X131503380Y-124311620D01*
X131901447Y-124577600D01*
X132371000Y-124671000D01*
X194818000Y-124671000D01*
X195287553Y-124577600D01*
X195685620Y-124311620D01*
X195939620Y-124057620D01*
X196205600Y-123659552D01*
X196299000Y-123190000D01*
X196235945Y-122873002D01*
X196819105Y-122989000D01*
X196880895Y-122989000D01*
X197484387Y-122868958D01*
X197996002Y-122527107D01*
X198120000Y-122341531D01*
X198243998Y-122527107D01*
X198755613Y-122868958D01*
X199359105Y-122989000D01*
X199420895Y-122989000D01*
X200024387Y-122868958D01*
X200391000Y-122623994D01*
X200391000Y-126223000D01*
X110505000Y-126223000D01*
X110505000Y-118715022D01*
X111080584Y-118715022D01*
X111301353Y-119085743D01*
X112273012Y-119479119D01*
X113321247Y-119470713D01*
X114250647Y-119085743D01*
X114471416Y-118715022D01*
X121240584Y-118715022D01*
X121461353Y-119085743D01*
X122433012Y-119479119D01*
X123481247Y-119470713D01*
X124410647Y-119085743D01*
X124631416Y-118715022D01*
X122936000Y-117019605D01*
X121240584Y-118715022D01*
X114471416Y-118715022D01*
X112776000Y-117019605D01*
X111080584Y-118715022D01*
X110505000Y-118715022D01*
X110505000Y-118253671D01*
X110530257Y-118314647D01*
X110900978Y-118535416D01*
X112596395Y-116840000D01*
X112955605Y-116840000D01*
X114651022Y-118535416D01*
X115021743Y-118314647D01*
X115415119Y-117342988D01*
X115407052Y-116337012D01*
X120296881Y-116337012D01*
X120305287Y-117385247D01*
X120690257Y-118314647D01*
X121060978Y-118535416D01*
X122756395Y-116840000D01*
X123115605Y-116840000D01*
X124811022Y-118535416D01*
X125181743Y-118314647D01*
X125575119Y-117342988D01*
X125566713Y-116294753D01*
X125181743Y-115365353D01*
X124811022Y-115144584D01*
X123115605Y-116840000D01*
X122756395Y-116840000D01*
X121060978Y-115144584D01*
X120690257Y-115365353D01*
X120296881Y-116337012D01*
X115407052Y-116337012D01*
X115406713Y-116294753D01*
X115021743Y-115365353D01*
X114651022Y-115144584D01*
X112955605Y-116840000D01*
X112596395Y-116840000D01*
X110900978Y-115144584D01*
X110530257Y-115365353D01*
X110505000Y-115427739D01*
X110505000Y-114964978D01*
X111080584Y-114964978D01*
X112776000Y-116660395D01*
X114471416Y-114964978D01*
X121240584Y-114964978D01*
X122936000Y-116660395D01*
X124631416Y-114964978D01*
X124410647Y-114594257D01*
X123438988Y-114200881D01*
X122390753Y-114209287D01*
X121461353Y-114594257D01*
X121240584Y-114964978D01*
X114471416Y-114964978D01*
X114250647Y-114594257D01*
X113278988Y-114200881D01*
X112230753Y-114209287D01*
X111301353Y-114594257D01*
X111080584Y-114964978D01*
X110505000Y-114964978D01*
X110505000Y-108555022D01*
X111080584Y-108555022D01*
X111301353Y-108925743D01*
X112273012Y-109319119D01*
X113321247Y-109310713D01*
X114250647Y-108925743D01*
X114471416Y-108555022D01*
X112776000Y-106859605D01*
X111080584Y-108555022D01*
X110505000Y-108555022D01*
X110505000Y-108093671D01*
X110530257Y-108154647D01*
X110900978Y-108375416D01*
X112596395Y-106680000D01*
X110900978Y-104984584D01*
X110530257Y-105205353D01*
X110505000Y-105267739D01*
X110505000Y-87661750D01*
X110807000Y-87661750D01*
X110807000Y-88252310D01*
X110903673Y-88485699D01*
X111082302Y-88664327D01*
X111315691Y-88761000D01*
X112131250Y-88761000D01*
X112290000Y-88602250D01*
X112290000Y-87503000D01*
X110965750Y-87503000D01*
X110807000Y-87661750D01*
X110505000Y-87661750D01*
X110505000Y-85121750D01*
X110807000Y-85121750D01*
X110807000Y-85712310D01*
X110903673Y-85945699D01*
X111063975Y-86106000D01*
X110903673Y-86266301D01*
X110807000Y-86499690D01*
X110807000Y-87090250D01*
X110965750Y-87249000D01*
X112290000Y-87249000D01*
X112290000Y-86149750D01*
X112246250Y-86106000D01*
X112290000Y-86062250D01*
X112290000Y-84963000D01*
X110965750Y-84963000D01*
X110807000Y-85121750D01*
X110505000Y-85121750D01*
X110505000Y-82581750D01*
X110807000Y-82581750D01*
X110807000Y-83172310D01*
X110903673Y-83405699D01*
X111063975Y-83566000D01*
X110903673Y-83726301D01*
X110807000Y-83959690D01*
X110807000Y-84550250D01*
X110965750Y-84709000D01*
X112290000Y-84709000D01*
X112290000Y-83609750D01*
X112246250Y-83566000D01*
X112290000Y-83522250D01*
X112290000Y-82423000D01*
X110965750Y-82423000D01*
X110807000Y-82581750D01*
X110505000Y-82581750D01*
X110505000Y-80041750D01*
X110807000Y-80041750D01*
X110807000Y-80632310D01*
X110903673Y-80865699D01*
X111063975Y-81026000D01*
X110903673Y-81186301D01*
X110807000Y-81419690D01*
X110807000Y-82010250D01*
X110965750Y-82169000D01*
X112290000Y-82169000D01*
X112290000Y-81069750D01*
X112246250Y-81026000D01*
X112290000Y-80982250D01*
X112290000Y-79883000D01*
X110965750Y-79883000D01*
X110807000Y-80041750D01*
X110505000Y-80041750D01*
X110505000Y-77501750D01*
X110807000Y-77501750D01*
X110807000Y-78092310D01*
X110903673Y-78325699D01*
X111063975Y-78486000D01*
X110903673Y-78646301D01*
X110807000Y-78879690D01*
X110807000Y-79470250D01*
X110965750Y-79629000D01*
X112290000Y-79629000D01*
X112290000Y-78529750D01*
X112246250Y-78486000D01*
X112290000Y-78442250D01*
X112290000Y-77343000D01*
X110965750Y-77343000D01*
X110807000Y-77501750D01*
X110505000Y-77501750D01*
X110505000Y-74961750D01*
X110807000Y-74961750D01*
X110807000Y-75552310D01*
X110903673Y-75785699D01*
X111063975Y-75946000D01*
X110903673Y-76106301D01*
X110807000Y-76339690D01*
X110807000Y-76930250D01*
X110965750Y-77089000D01*
X112290000Y-77089000D01*
X112290000Y-75989750D01*
X112246250Y-75946000D01*
X112290000Y-75902250D01*
X112290000Y-74803000D01*
X110965750Y-74803000D01*
X110807000Y-74961750D01*
X110505000Y-74961750D01*
X110505000Y-73799690D01*
X110807000Y-73799690D01*
X110807000Y-74390250D01*
X110965750Y-74549000D01*
X112290000Y-74549000D01*
X112290000Y-73449750D01*
X112131250Y-73291000D01*
X111315691Y-73291000D01*
X111082302Y-73387673D01*
X110903673Y-73566301D01*
X110807000Y-73799690D01*
X110505000Y-73799690D01*
X110505000Y-71897000D01*
X124957469Y-71897000D01*
X124820512Y-71988512D01*
X124820512Y-71988512D01*
G37*
X124820512Y-71988512D02*
X123760512Y-73048512D01*
X123559564Y-73349252D01*
X123489000Y-73704000D01*
X123489000Y-74066542D01*
X123271590Y-74107451D01*
X123024154Y-74266672D01*
X122943919Y-74384099D01*
X122682000Y-74332000D01*
X121684492Y-74332000D01*
X121774140Y-74242508D01*
X121930821Y-73865179D01*
X121931178Y-73456613D01*
X121775156Y-73079011D01*
X121486508Y-72789860D01*
X121109179Y-72633179D01*
X120700613Y-72632822D01*
X120323011Y-72788844D01*
X120033860Y-73077492D01*
X119934823Y-73316000D01*
X116536994Y-73316000D01*
X116430385Y-73243157D01*
X116142000Y-73184758D01*
X114192000Y-73184758D01*
X113922590Y-73235451D01*
X113711747Y-73371125D01*
X113518309Y-73291000D01*
X112702750Y-73291000D01*
X112544000Y-73449750D01*
X112544000Y-74549000D01*
X112564000Y-74549000D01*
X112564000Y-74803000D01*
X112544000Y-74803000D01*
X112544000Y-75902250D01*
X112587750Y-75946000D01*
X112544000Y-75989750D01*
X112544000Y-77089000D01*
X112564000Y-77089000D01*
X112564000Y-77343000D01*
X112544000Y-77343000D01*
X112544000Y-78442250D01*
X112587750Y-78486000D01*
X112544000Y-78529750D01*
X112544000Y-79629000D01*
X112564000Y-79629000D01*
X112564000Y-79883000D01*
X112544000Y-79883000D01*
X112544000Y-80982250D01*
X112587750Y-81026000D01*
X112544000Y-81069750D01*
X112544000Y-82169000D01*
X112564000Y-82169000D01*
X112564000Y-82423000D01*
X112544000Y-82423000D01*
X112544000Y-83522250D01*
X112587750Y-83566000D01*
X112544000Y-83609750D01*
X112544000Y-84709000D01*
X112564000Y-84709000D01*
X112564000Y-84963000D01*
X112544000Y-84963000D01*
X112544000Y-86062250D01*
X112587750Y-86106000D01*
X112544000Y-86149750D01*
X112544000Y-87249000D01*
X112564000Y-87249000D01*
X112564000Y-87503000D01*
X112544000Y-87503000D01*
X112544000Y-88602250D01*
X112702750Y-88761000D01*
X113518309Y-88761000D01*
X113714600Y-88679694D01*
X113903615Y-88808843D01*
X114022000Y-88832816D01*
X114022000Y-94313119D01*
X114007154Y-94322672D01*
X113841157Y-94565615D01*
X113782758Y-94854000D01*
X113782758Y-96154000D01*
X113833451Y-96423410D01*
X113992672Y-96670846D01*
X114022000Y-96690885D01*
X114022000Y-96853119D01*
X114007154Y-96862672D01*
X113841157Y-97105615D01*
X113782758Y-97394000D01*
X113782758Y-98694000D01*
X113833451Y-98963410D01*
X113992672Y-99210846D01*
X114022000Y-99230885D01*
X114022000Y-99393119D01*
X114007154Y-99402672D01*
X113841157Y-99645615D01*
X113782758Y-99934000D01*
X113782758Y-101234000D01*
X113833451Y-101503410D01*
X113992672Y-101750846D01*
X114072145Y-101805148D01*
X114054590Y-101808451D01*
X113807154Y-101967672D01*
X113641157Y-102210615D01*
X113582758Y-102499000D01*
X113582758Y-103749000D01*
X113597000Y-103824690D01*
X113597000Y-104156000D01*
X113599948Y-104170822D01*
X113278988Y-104040881D01*
X112230753Y-104049287D01*
X111301353Y-104434257D01*
X111080584Y-104804978D01*
X112776000Y-106500395D01*
X112790142Y-106486252D01*
X112969748Y-106665858D01*
X112955605Y-106680000D01*
X114651022Y-108375416D01*
X115021743Y-108154647D01*
X115415119Y-107182988D01*
X115409455Y-106476695D01*
X116629000Y-107696240D01*
X116629000Y-109857368D01*
X116596154Y-109870940D01*
X115969142Y-110496858D01*
X115629387Y-111315079D01*
X115628614Y-112201034D01*
X115966940Y-113019846D01*
X116592858Y-113646858D01*
X117411079Y-113986613D01*
X118297034Y-113987386D01*
X119115846Y-113649060D01*
X119742858Y-113023142D01*
X120082613Y-112204921D01*
X120083386Y-111318966D01*
X119745060Y-110500154D01*
X119119142Y-109873142D01*
X119083000Y-109858135D01*
X119083000Y-108555022D01*
X121240584Y-108555022D01*
X121461353Y-108925743D01*
X122433012Y-109319119D01*
X123481247Y-109310713D01*
X124410647Y-108925743D01*
X124631416Y-108555022D01*
X122936000Y-106859605D01*
X121240584Y-108555022D01*
X119083000Y-108555022D01*
X119083000Y-107188000D01*
X119057738Y-107061000D01*
X118989601Y-106718448D01*
X118723620Y-106320380D01*
X118580252Y-106177012D01*
X120296881Y-106177012D01*
X120305287Y-107225247D01*
X120690257Y-108154647D01*
X121060978Y-108375416D01*
X122756395Y-106680000D01*
X123115605Y-106680000D01*
X124811022Y-108375416D01*
X125181743Y-108154647D01*
X125575119Y-107182988D01*
X125566713Y-106134753D01*
X125181743Y-105205353D01*
X124811022Y-104984584D01*
X123115605Y-106680000D01*
X122756395Y-106680000D01*
X121060978Y-104984584D01*
X120690257Y-105205353D01*
X120296881Y-106177012D01*
X118580252Y-106177012D01*
X117208218Y-104804978D01*
X121240584Y-104804978D01*
X122936000Y-106500395D01*
X124631416Y-104804978D01*
X124410647Y-104434257D01*
X123438988Y-104040881D01*
X122390753Y-104049287D01*
X121461353Y-104434257D01*
X121240584Y-104804978D01*
X117208218Y-104804978D01*
X116893482Y-104490242D01*
X117324000Y-104490242D01*
X117593410Y-104439549D01*
X117682450Y-104382253D01*
X117791615Y-104456843D01*
X118080000Y-104515242D01*
X118780000Y-104515242D01*
X119049410Y-104464549D01*
X119296846Y-104305328D01*
X119379835Y-104183870D01*
X119448672Y-104290846D01*
X119691615Y-104456843D01*
X119980000Y-104515242D01*
X120680000Y-104515242D01*
X120949410Y-104464549D01*
X121196846Y-104305328D01*
X121362843Y-104062385D01*
X121421242Y-103774000D01*
X121421242Y-103656946D01*
X121463600Y-103593553D01*
X121557000Y-103124000D01*
X121557000Y-102774750D01*
X122890000Y-102774750D01*
X122890000Y-102915310D01*
X122986673Y-103148699D01*
X123165302Y-103327327D01*
X123398691Y-103424000D01*
X124014250Y-103424000D01*
X124173000Y-103265250D01*
X124173000Y-102616000D01*
X124427000Y-102616000D01*
X124427000Y-103265250D01*
X124585750Y-103424000D01*
X125201309Y-103424000D01*
X125434698Y-103327327D01*
X125613327Y-103148699D01*
X125710000Y-102915310D01*
X125710000Y-102774750D01*
X125551250Y-102616000D01*
X124427000Y-102616000D01*
X124173000Y-102616000D01*
X123048750Y-102616000D01*
X122890000Y-102774750D01*
X121557000Y-102774750D01*
X121557000Y-102446000D01*
X124300000Y-102446000D01*
X124722296Y-102362000D01*
X125551250Y-102362000D01*
X125710000Y-102203250D01*
X125710000Y-102062690D01*
X125662218Y-101947335D01*
X125757843Y-101807385D01*
X125816242Y-101519000D01*
X125816242Y-100919000D01*
X125765549Y-100649590D01*
X125724628Y-100585997D01*
X125757843Y-100537385D01*
X125816242Y-100249000D01*
X125816242Y-100203218D01*
X127487512Y-101874488D01*
X127788252Y-102075436D01*
X128143000Y-102146000D01*
X128192466Y-102146000D01*
X128183758Y-102189000D01*
X128183758Y-102789000D01*
X128234451Y-103058410D01*
X128393672Y-103305846D01*
X128636615Y-103471843D01*
X128831744Y-103511357D01*
X128816447Y-103514400D01*
X128427928Y-103774000D01*
X128418380Y-103780380D01*
X127888380Y-104310380D01*
X127622400Y-104708447D01*
X127529000Y-105178000D01*
X127529000Y-105646758D01*
X127456000Y-105646758D01*
X127186590Y-105697451D01*
X126939154Y-105856672D01*
X126773157Y-106099615D01*
X126714758Y-106388000D01*
X126714758Y-107988000D01*
X126765451Y-108257410D01*
X126924672Y-108504846D01*
X127167615Y-108670843D01*
X127456000Y-108729242D01*
X128579000Y-108729242D01*
X128579000Y-110070032D01*
X128539154Y-110095672D01*
X128373157Y-110338615D01*
X128314758Y-110627000D01*
X128314758Y-111877000D01*
X128365451Y-112146410D01*
X128524672Y-112393846D01*
X128767615Y-112559843D01*
X128948040Y-112596380D01*
X128820154Y-112678672D01*
X128654157Y-112921615D01*
X128595758Y-113210000D01*
X128595758Y-115210000D01*
X128646451Y-115479410D01*
X128805672Y-115726846D01*
X129048615Y-115892843D01*
X129337000Y-115951242D01*
X132537000Y-115951242D01*
X132806410Y-115900549D01*
X133053846Y-115741328D01*
X133219843Y-115498385D01*
X133278242Y-115210000D01*
X133278242Y-115187000D01*
X135400758Y-115187000D01*
X135400758Y-115198000D01*
X135451451Y-115467410D01*
X135610672Y-115714846D01*
X135853615Y-115880843D01*
X136142000Y-115939242D01*
X137642000Y-115939242D01*
X137911410Y-115888549D01*
X138041953Y-115804547D01*
X138153615Y-115880843D01*
X138215000Y-115893274D01*
X138215000Y-118756758D01*
X137292000Y-118756758D01*
X137022590Y-118807451D01*
X136775154Y-118966672D01*
X136609157Y-119209615D01*
X136550758Y-119498000D01*
X136550758Y-121498000D01*
X136601451Y-121767410D01*
X136760672Y-122014846D01*
X137003615Y-122180843D01*
X137182165Y-122217000D01*
X133278242Y-122217000D01*
X133278242Y-121010000D01*
X133227549Y-120740590D01*
X133068328Y-120493154D01*
X132825385Y-120327157D01*
X132537000Y-120268758D01*
X129337000Y-120268758D01*
X129067590Y-120319451D01*
X128820154Y-120478672D01*
X128654157Y-120721615D01*
X128595758Y-121010000D01*
X128595758Y-123010000D01*
X128646451Y-123279410D01*
X128805672Y-123526846D01*
X129048615Y-123692843D01*
X129337000Y-123751242D01*
X130943002Y-123751242D01*
X131503380Y-124311620D01*
X131901447Y-124577600D01*
X132371000Y-124671000D01*
X194818000Y-124671000D01*
X195287553Y-124577600D01*
X195685620Y-124311620D01*
X195939620Y-124057620D01*
X196205600Y-123659552D01*
X196299000Y-123190000D01*
X196235945Y-122873002D01*
X196819105Y-122989000D01*
X196880895Y-122989000D01*
X197484387Y-122868958D01*
X197996002Y-122527107D01*
X198120000Y-122341531D01*
X198243998Y-122527107D01*
X198755613Y-122868958D01*
X199359105Y-122989000D01*
X199420895Y-122989000D01*
X200024387Y-122868958D01*
X200391000Y-122623994D01*
X200391000Y-126223000D01*
X110505000Y-126223000D01*
X110505000Y-118715022D01*
X111080584Y-118715022D01*
X111301353Y-119085743D01*
X112273012Y-119479119D01*
X113321247Y-119470713D01*
X114250647Y-119085743D01*
X114471416Y-118715022D01*
X121240584Y-118715022D01*
X121461353Y-119085743D01*
X122433012Y-119479119D01*
X123481247Y-119470713D01*
X124410647Y-119085743D01*
X124631416Y-118715022D01*
X122936000Y-117019605D01*
X121240584Y-118715022D01*
X114471416Y-118715022D01*
X112776000Y-117019605D01*
X111080584Y-118715022D01*
X110505000Y-118715022D01*
X110505000Y-118253671D01*
X110530257Y-118314647D01*
X110900978Y-118535416D01*
X112596395Y-116840000D01*
X112955605Y-116840000D01*
X114651022Y-118535416D01*
X115021743Y-118314647D01*
X115415119Y-117342988D01*
X115407052Y-116337012D01*
X120296881Y-116337012D01*
X120305287Y-117385247D01*
X120690257Y-118314647D01*
X121060978Y-118535416D01*
X122756395Y-116840000D01*
X123115605Y-116840000D01*
X124811022Y-118535416D01*
X125181743Y-118314647D01*
X125575119Y-117342988D01*
X125566713Y-116294753D01*
X125181743Y-115365353D01*
X124811022Y-115144584D01*
X123115605Y-116840000D01*
X122756395Y-116840000D01*
X121060978Y-115144584D01*
X120690257Y-115365353D01*
X120296881Y-116337012D01*
X115407052Y-116337012D01*
X115406713Y-116294753D01*
X115021743Y-115365353D01*
X114651022Y-115144584D01*
X112955605Y-116840000D01*
X112596395Y-116840000D01*
X110900978Y-115144584D01*
X110530257Y-115365353D01*
X110505000Y-115427739D01*
X110505000Y-114964978D01*
X111080584Y-114964978D01*
X112776000Y-116660395D01*
X114471416Y-114964978D01*
X121240584Y-114964978D01*
X122936000Y-116660395D01*
X124631416Y-114964978D01*
X124410647Y-114594257D01*
X123438988Y-114200881D01*
X122390753Y-114209287D01*
X121461353Y-114594257D01*
X121240584Y-114964978D01*
X114471416Y-114964978D01*
X114250647Y-114594257D01*
X113278988Y-114200881D01*
X112230753Y-114209287D01*
X111301353Y-114594257D01*
X111080584Y-114964978D01*
X110505000Y-114964978D01*
X110505000Y-108555022D01*
X111080584Y-108555022D01*
X111301353Y-108925743D01*
X112273012Y-109319119D01*
X113321247Y-109310713D01*
X114250647Y-108925743D01*
X114471416Y-108555022D01*
X112776000Y-106859605D01*
X111080584Y-108555022D01*
X110505000Y-108555022D01*
X110505000Y-108093671D01*
X110530257Y-108154647D01*
X110900978Y-108375416D01*
X112596395Y-106680000D01*
X110900978Y-104984584D01*
X110530257Y-105205353D01*
X110505000Y-105267739D01*
X110505000Y-87661750D01*
X110807000Y-87661750D01*
X110807000Y-88252310D01*
X110903673Y-88485699D01*
X111082302Y-88664327D01*
X111315691Y-88761000D01*
X112131250Y-88761000D01*
X112290000Y-88602250D01*
X112290000Y-87503000D01*
X110965750Y-87503000D01*
X110807000Y-87661750D01*
X110505000Y-87661750D01*
X110505000Y-85121750D01*
X110807000Y-85121750D01*
X110807000Y-85712310D01*
X110903673Y-85945699D01*
X111063975Y-86106000D01*
X110903673Y-86266301D01*
X110807000Y-86499690D01*
X110807000Y-87090250D01*
X110965750Y-87249000D01*
X112290000Y-87249000D01*
X112290000Y-86149750D01*
X112246250Y-86106000D01*
X112290000Y-86062250D01*
X112290000Y-84963000D01*
X110965750Y-84963000D01*
X110807000Y-85121750D01*
X110505000Y-85121750D01*
X110505000Y-82581750D01*
X110807000Y-82581750D01*
X110807000Y-83172310D01*
X110903673Y-83405699D01*
X111063975Y-83566000D01*
X110903673Y-83726301D01*
X110807000Y-83959690D01*
X110807000Y-84550250D01*
X110965750Y-84709000D01*
X112290000Y-84709000D01*
X112290000Y-83609750D01*
X112246250Y-83566000D01*
X112290000Y-83522250D01*
X112290000Y-82423000D01*
X110965750Y-82423000D01*
X110807000Y-82581750D01*
X110505000Y-82581750D01*
X110505000Y-80041750D01*
X110807000Y-80041750D01*
X110807000Y-80632310D01*
X110903673Y-80865699D01*
X111063975Y-81026000D01*
X110903673Y-81186301D01*
X110807000Y-81419690D01*
X110807000Y-82010250D01*
X110965750Y-82169000D01*
X112290000Y-82169000D01*
X112290000Y-81069750D01*
X112246250Y-81026000D01*
X112290000Y-80982250D01*
X112290000Y-79883000D01*
X110965750Y-79883000D01*
X110807000Y-80041750D01*
X110505000Y-80041750D01*
X110505000Y-77501750D01*
X110807000Y-77501750D01*
X110807000Y-78092310D01*
X110903673Y-78325699D01*
X111063975Y-78486000D01*
X110903673Y-78646301D01*
X110807000Y-78879690D01*
X110807000Y-79470250D01*
X110965750Y-79629000D01*
X112290000Y-79629000D01*
X112290000Y-78529750D01*
X112246250Y-78486000D01*
X112290000Y-78442250D01*
X112290000Y-77343000D01*
X110965750Y-77343000D01*
X110807000Y-77501750D01*
X110505000Y-77501750D01*
X110505000Y-74961750D01*
X110807000Y-74961750D01*
X110807000Y-75552310D01*
X110903673Y-75785699D01*
X111063975Y-75946000D01*
X110903673Y-76106301D01*
X110807000Y-76339690D01*
X110807000Y-76930250D01*
X110965750Y-77089000D01*
X112290000Y-77089000D01*
X112290000Y-75989750D01*
X112246250Y-75946000D01*
X112290000Y-75902250D01*
X112290000Y-74803000D01*
X110965750Y-74803000D01*
X110807000Y-74961750D01*
X110505000Y-74961750D01*
X110505000Y-73799690D01*
X110807000Y-73799690D01*
X110807000Y-74390250D01*
X110965750Y-74549000D01*
X112290000Y-74549000D01*
X112290000Y-73449750D01*
X112131250Y-73291000D01*
X111315691Y-73291000D01*
X111082302Y-73387673D01*
X110903673Y-73566301D01*
X110807000Y-73799690D01*
X110505000Y-73799690D01*
X110505000Y-71897000D01*
X124957469Y-71897000D01*
X124820512Y-71988512D01*
G36*
X136718053Y-79017593D02*
X136718566Y-79017806D01*
X137949000Y-80248240D01*
X137949000Y-82620761D01*
X137802309Y-82560000D01*
X137461750Y-82560000D01*
X137303000Y-82718750D01*
X137303000Y-83693000D01*
X137323000Y-83693000D01*
X137323000Y-83947000D01*
X137303000Y-83947000D01*
X137303000Y-84921250D01*
X137461750Y-85080000D01*
X137802309Y-85080000D01*
X138035698Y-84983327D01*
X138110415Y-84908610D01*
X138144672Y-84961846D01*
X138249000Y-85033131D01*
X138249000Y-85074000D01*
X138319564Y-85428748D01*
X138438765Y-85607145D01*
X138520512Y-85729488D01*
X138913512Y-86122488D01*
X139214252Y-86323436D01*
X139569000Y-86394000D01*
X139689729Y-86394000D01*
X139659758Y-86542000D01*
X139659758Y-86992000D01*
X139679265Y-87095671D01*
X139659758Y-87192000D01*
X139659758Y-87642000D01*
X139679265Y-87745671D01*
X139659758Y-87842000D01*
X139659758Y-88292000D01*
X139679265Y-88395671D01*
X139659758Y-88492000D01*
X139659758Y-88942000D01*
X139679265Y-89045671D01*
X139659758Y-89142000D01*
X139659758Y-89592000D01*
X139679265Y-89695671D01*
X139659758Y-89792000D01*
X139659758Y-90242000D01*
X139679265Y-90345671D01*
X139659758Y-90442000D01*
X139659758Y-90892000D01*
X139679265Y-90995671D01*
X139659758Y-91092000D01*
X139659758Y-91542000D01*
X139710451Y-91811410D01*
X139869672Y-92058846D01*
X140112615Y-92224843D01*
X140401000Y-92283242D01*
X141851000Y-92283242D01*
X142120410Y-92232549D01*
X142367846Y-92073328D01*
X142533843Y-91830385D01*
X142592242Y-91542000D01*
X142592242Y-91092000D01*
X142572735Y-90988329D01*
X142592242Y-90892000D01*
X142592242Y-90442000D01*
X142572735Y-90338329D01*
X142592242Y-90242000D01*
X142592242Y-89792000D01*
X142572735Y-89688329D01*
X142592242Y-89592000D01*
X142592242Y-89142000D01*
X142572735Y-89038329D01*
X142592242Y-88942000D01*
X142592242Y-88492000D01*
X142572735Y-88388329D01*
X142592242Y-88292000D01*
X142592242Y-88269000D01*
X143624090Y-88269000D01*
X143691219Y-88336129D01*
X143680105Y-88392000D01*
X143800147Y-88995492D01*
X144141998Y-89507107D01*
X144373811Y-89662000D01*
X144141998Y-89816893D01*
X143800147Y-90328508D01*
X143680105Y-90932000D01*
X143800147Y-91535492D01*
X144141998Y-92047107D01*
X144373811Y-92202000D01*
X144141998Y-92356893D01*
X143800147Y-92868508D01*
X143680105Y-93472000D01*
X143800147Y-94075492D01*
X144141998Y-94587107D01*
X144373811Y-94742000D01*
X144141998Y-94896893D01*
X143800147Y-95408508D01*
X143680105Y-96012000D01*
X143800147Y-96615492D01*
X144141998Y-97127107D01*
X144373811Y-97282000D01*
X144141998Y-97436893D01*
X143800147Y-97948508D01*
X143680105Y-98552000D01*
X143800147Y-99155492D01*
X144141998Y-99667107D01*
X144373811Y-99822000D01*
X144141998Y-99976893D01*
X143800147Y-100488508D01*
X143680105Y-101092000D01*
X143800147Y-101695492D01*
X144141998Y-102207107D01*
X144373811Y-102362000D01*
X144141998Y-102516893D01*
X143800147Y-103028508D01*
X143680105Y-103632000D01*
X143800147Y-104235492D01*
X144141998Y-104747107D01*
X144373811Y-104902000D01*
X144141998Y-105056893D01*
X143800147Y-105568508D01*
X143680105Y-106172000D01*
X143800147Y-106775492D01*
X144141998Y-107287107D01*
X144453118Y-107494991D01*
X144406642Y-107516817D01*
X144016355Y-107945076D01*
X143846524Y-108355110D01*
X143967845Y-108585000D01*
X145161000Y-108585000D01*
X145161000Y-108565000D01*
X145415000Y-108565000D01*
X145415000Y-108585000D01*
X145435000Y-108585000D01*
X145435000Y-108839000D01*
X145415000Y-108839000D01*
X145415000Y-108859000D01*
X145161000Y-108859000D01*
X145161000Y-108839000D01*
X143967845Y-108839000D01*
X143846524Y-109068890D01*
X144016355Y-109478924D01*
X144406642Y-109907183D01*
X144453118Y-109929009D01*
X144141998Y-110136893D01*
X143800147Y-110648508D01*
X143680105Y-111252000D01*
X143800147Y-111855492D01*
X144141998Y-112367107D01*
X144373811Y-112522000D01*
X144141998Y-112676893D01*
X143800147Y-113188508D01*
X143680105Y-113792000D01*
X143800147Y-114395492D01*
X144141998Y-114907107D01*
X144373811Y-115062000D01*
X144141998Y-115216893D01*
X143800147Y-115728508D01*
X143680105Y-116332000D01*
X143800147Y-116935492D01*
X144141998Y-117447107D01*
X144373811Y-117602000D01*
X144141998Y-117756893D01*
X143800147Y-118268508D01*
X143680105Y-118872000D01*
X143800147Y-119475492D01*
X144141998Y-119987107D01*
X144373811Y-120142000D01*
X144141998Y-120296893D01*
X143800147Y-120808508D01*
X143680105Y-121412000D01*
X143800147Y-122015492D01*
X143934791Y-122217000D01*
X141210206Y-122217000D01*
X141361410Y-122188549D01*
X141608846Y-122029328D01*
X141774843Y-121786385D01*
X141833242Y-121498000D01*
X141833242Y-119498000D01*
X141782549Y-119228590D01*
X141623328Y-118981154D01*
X141380385Y-118815157D01*
X141092000Y-118756758D01*
X140169000Y-118756758D01*
X140169000Y-115896529D01*
X140211410Y-115888549D01*
X140422252Y-115752875D01*
X140615690Y-115833000D01*
X141206250Y-115833000D01*
X141365000Y-115674250D01*
X141365000Y-114325000D01*
X141619000Y-114325000D01*
X141619000Y-115674250D01*
X141777750Y-115833000D01*
X142368310Y-115833000D01*
X142601699Y-115736327D01*
X142780327Y-115557698D01*
X142877000Y-115324309D01*
X142877000Y-114483750D01*
X142718250Y-114325000D01*
X141619000Y-114325000D01*
X141365000Y-114325000D01*
X141345000Y-114325000D01*
X141345000Y-114071000D01*
X141365000Y-114071000D01*
X141365000Y-112721750D01*
X141619000Y-112721750D01*
X141619000Y-114071000D01*
X142718250Y-114071000D01*
X142877000Y-113912250D01*
X142877000Y-113071691D01*
X142780327Y-112838302D01*
X142601699Y-112659673D01*
X142368310Y-112563000D01*
X141777750Y-112563000D01*
X141619000Y-112721750D01*
X141365000Y-112721750D01*
X141206250Y-112563000D01*
X140615690Y-112563000D01*
X140419400Y-112644306D01*
X140230385Y-112515157D01*
X140214796Y-112512000D01*
X140319002Y-112512000D01*
X140319002Y-112353252D01*
X140477750Y-112512000D01*
X140818309Y-112512000D01*
X141051698Y-112415327D01*
X141230327Y-112236699D01*
X141327000Y-112003310D01*
X141327000Y-111537750D01*
X141168250Y-111379000D01*
X140319000Y-111379000D01*
X140319000Y-111399000D01*
X140065000Y-111399000D01*
X140065000Y-111379000D01*
X140045000Y-111379000D01*
X140045000Y-111125000D01*
X140065000Y-111125000D01*
X140065000Y-110150750D01*
X140319000Y-110150750D01*
X140319000Y-111125000D01*
X141168250Y-111125000D01*
X141327000Y-110966250D01*
X141327000Y-110500690D01*
X141230327Y-110267301D01*
X141051698Y-110088673D01*
X140818309Y-109992000D01*
X140477750Y-109992000D01*
X140319000Y-110150750D01*
X140065000Y-110150750D01*
X139906250Y-109992000D01*
X139565691Y-109992000D01*
X139332302Y-110088673D01*
X139257585Y-110163390D01*
X139223328Y-110110154D01*
X139169000Y-110073033D01*
X139169000Y-108544968D01*
X139208846Y-108519328D01*
X139256118Y-108450144D01*
X139332302Y-108526327D01*
X139565691Y-108623000D01*
X140706250Y-108623000D01*
X140865000Y-108464250D01*
X140865000Y-107315000D01*
X141119000Y-107315000D01*
X141119000Y-108464250D01*
X141277750Y-108623000D01*
X142418309Y-108623000D01*
X142651698Y-108526327D01*
X142830327Y-108347699D01*
X142927000Y-108114310D01*
X142927000Y-107473750D01*
X142768250Y-107315000D01*
X141119000Y-107315000D01*
X140865000Y-107315000D01*
X140845000Y-107315000D01*
X140845000Y-107061000D01*
X140865000Y-107061000D01*
X140865000Y-105911750D01*
X141119000Y-105911750D01*
X141119000Y-107061000D01*
X142768250Y-107061000D01*
X142927000Y-106902250D01*
X142927000Y-106261690D01*
X142830327Y-106028301D01*
X142651698Y-105849673D01*
X142418309Y-105753000D01*
X141277750Y-105753000D01*
X141119000Y-105911750D01*
X140865000Y-105911750D01*
X140706250Y-105753000D01*
X139565691Y-105753000D01*
X139332302Y-105849673D01*
X139257585Y-105924390D01*
X139223328Y-105871154D01*
X138980385Y-105705157D01*
X138692000Y-105646758D01*
X138641000Y-105646758D01*
X138641000Y-104140000D01*
X138547600Y-103670447D01*
X138281620Y-103272380D01*
X137883553Y-103006400D01*
X137414000Y-102913000D01*
X136944447Y-103006400D01*
X136546380Y-103272380D01*
X136280400Y-103670447D01*
X136187000Y-104140000D01*
X136187000Y-105646758D01*
X136092000Y-105646758D01*
X135822590Y-105697451D01*
X135575154Y-105856672D01*
X135409157Y-106099615D01*
X135350758Y-106388000D01*
X135350758Y-107988000D01*
X135401451Y-108257410D01*
X135560672Y-108504846D01*
X135803615Y-108670843D01*
X136092000Y-108729242D01*
X137215000Y-108729242D01*
X137215000Y-110070032D01*
X137175154Y-110095672D01*
X137009157Y-110338615D01*
X136950758Y-110627000D01*
X136950758Y-111877000D01*
X137001451Y-112146410D01*
X137160672Y-112393846D01*
X137252746Y-112456758D01*
X136142000Y-112456758D01*
X135872590Y-112507451D01*
X135625154Y-112666672D01*
X135459157Y-112909615D01*
X135400758Y-113198000D01*
X135400758Y-113233000D01*
X133278242Y-113233000D01*
X133278242Y-113210000D01*
X133227549Y-112940590D01*
X133068328Y-112693154D01*
X132825385Y-112527157D01*
X132537000Y-112468758D01*
X132286704Y-112468758D01*
X132415698Y-112415327D01*
X132594327Y-112236699D01*
X132691000Y-112003310D01*
X132691000Y-111537750D01*
X132532250Y-111379000D01*
X131683000Y-111379000D01*
X131683000Y-111399000D01*
X131429000Y-111399000D01*
X131429000Y-111379000D01*
X131409000Y-111379000D01*
X131409000Y-111125000D01*
X131429000Y-111125000D01*
X131429000Y-110150750D01*
X131683000Y-110150750D01*
X131683000Y-111125000D01*
X132532250Y-111125000D01*
X132691000Y-110966250D01*
X132691000Y-110500690D01*
X132594327Y-110267301D01*
X132415698Y-110088673D01*
X132182309Y-109992000D01*
X131841750Y-109992000D01*
X131683000Y-110150750D01*
X131429000Y-110150750D01*
X131270250Y-109992000D01*
X130929691Y-109992000D01*
X130696302Y-110088673D01*
X130621585Y-110163390D01*
X130587328Y-110110154D01*
X130533000Y-110073033D01*
X130533000Y-108544968D01*
X130572846Y-108519328D01*
X130620118Y-108450144D01*
X130696302Y-108526327D01*
X130929691Y-108623000D01*
X132070250Y-108623000D01*
X132229000Y-108464250D01*
X132229000Y-107315000D01*
X132483000Y-107315000D01*
X132483000Y-108464250D01*
X132641750Y-108623000D01*
X133782309Y-108623000D01*
X134015698Y-108526327D01*
X134194327Y-108347699D01*
X134291000Y-108114310D01*
X134291000Y-107473750D01*
X134132250Y-107315000D01*
X132483000Y-107315000D01*
X132229000Y-107315000D01*
X132209000Y-107315000D01*
X132209000Y-107061000D01*
X132229000Y-107061000D01*
X132229000Y-107041000D01*
X132483000Y-107041000D01*
X132483000Y-107061000D01*
X134132250Y-107061000D01*
X134291000Y-106902250D01*
X134291000Y-106261690D01*
X134194327Y-106028301D01*
X134015698Y-105849673D01*
X133782309Y-105753000D01*
X132846356Y-105753000D01*
X133201620Y-105515620D01*
X134217620Y-104499620D01*
X134271392Y-104419145D01*
X134483600Y-104101553D01*
X134577000Y-103632000D01*
X134577000Y-92177000D01*
X134940250Y-92177000D01*
X135099000Y-92018250D01*
X135099000Y-91633242D01*
X135353000Y-91633242D01*
X135353000Y-92018250D01*
X135511750Y-92177000D01*
X136077309Y-92177000D01*
X136310698Y-92080327D01*
X136489327Y-91901699D01*
X136586000Y-91668310D01*
X136586000Y-91588250D01*
X136439389Y-91441639D01*
X136467846Y-91423328D01*
X136633843Y-91180385D01*
X136692242Y-90892000D01*
X136692242Y-90442000D01*
X136672735Y-90338329D01*
X136692242Y-90242000D01*
X136692242Y-89792000D01*
X136672735Y-89688329D01*
X136692242Y-89592000D01*
X136692242Y-89142000D01*
X136672735Y-89038329D01*
X136692242Y-88942000D01*
X136692242Y-88492000D01*
X136672735Y-88388329D01*
X136692242Y-88292000D01*
X136692242Y-87842000D01*
X136672735Y-87738329D01*
X136692242Y-87642000D01*
X136692242Y-87192000D01*
X136672735Y-87088329D01*
X136692242Y-86992000D01*
X136692242Y-86542000D01*
X136672735Y-86438329D01*
X136692242Y-86342000D01*
X136692242Y-85892000D01*
X136641549Y-85622590D01*
X136482328Y-85375154D01*
X136437337Y-85344413D01*
X136586000Y-85195750D01*
X136586000Y-85115690D01*
X136571217Y-85080000D01*
X136890250Y-85080000D01*
X137049000Y-84921250D01*
X137049000Y-83947000D01*
X136199750Y-83947000D01*
X136041000Y-84105750D01*
X136041000Y-84571310D01*
X136055783Y-84607000D01*
X135511750Y-84607000D01*
X135353000Y-84765750D01*
X135353000Y-85150758D01*
X135099000Y-85150758D01*
X135099000Y-84765750D01*
X134964000Y-84630750D01*
X134964000Y-83009250D01*
X135099000Y-82874250D01*
X135099000Y-82489242D01*
X135353000Y-82489242D01*
X135353000Y-82874250D01*
X135511750Y-83033000D01*
X136055783Y-83033000D01*
X136041000Y-83068690D01*
X136041000Y-83534250D01*
X136199750Y-83693000D01*
X137049000Y-83693000D01*
X137049000Y-82718750D01*
X136890250Y-82560000D01*
X136571217Y-82560000D01*
X136586000Y-82524310D01*
X136586000Y-82444250D01*
X136439389Y-82297639D01*
X136467846Y-82279328D01*
X136633843Y-82036385D01*
X136692242Y-81748000D01*
X136692242Y-81298000D01*
X136672735Y-81194329D01*
X136692242Y-81098000D01*
X136692242Y-80648000D01*
X136672735Y-80544329D01*
X136692242Y-80448000D01*
X136692242Y-79998000D01*
X136672735Y-79894329D01*
X136692242Y-79798000D01*
X136692242Y-79348000D01*
X136672735Y-79244329D01*
X136692242Y-79148000D01*
X136692242Y-78991737D01*
X136718053Y-79017593D01*
X136718053Y-79017593D01*
G37*
X136718053Y-79017593D02*
X136718566Y-79017806D01*
X137949000Y-80248240D01*
X137949000Y-82620761D01*
X137802309Y-82560000D01*
X137461750Y-82560000D01*
X137303000Y-82718750D01*
X137303000Y-83693000D01*
X137323000Y-83693000D01*
X137323000Y-83947000D01*
X137303000Y-83947000D01*
X137303000Y-84921250D01*
X137461750Y-85080000D01*
X137802309Y-85080000D01*
X138035698Y-84983327D01*
X138110415Y-84908610D01*
X138144672Y-84961846D01*
X138249000Y-85033131D01*
X138249000Y-85074000D01*
X138319564Y-85428748D01*
X138438765Y-85607145D01*
X138520512Y-85729488D01*
X138913512Y-86122488D01*
X139214252Y-86323436D01*
X139569000Y-86394000D01*
X139689729Y-86394000D01*
X139659758Y-86542000D01*
X139659758Y-86992000D01*
X139679265Y-87095671D01*
X139659758Y-87192000D01*
X139659758Y-87642000D01*
X139679265Y-87745671D01*
X139659758Y-87842000D01*
X139659758Y-88292000D01*
X139679265Y-88395671D01*
X139659758Y-88492000D01*
X139659758Y-88942000D01*
X139679265Y-89045671D01*
X139659758Y-89142000D01*
X139659758Y-89592000D01*
X139679265Y-89695671D01*
X139659758Y-89792000D01*
X139659758Y-90242000D01*
X139679265Y-90345671D01*
X139659758Y-90442000D01*
X139659758Y-90892000D01*
X139679265Y-90995671D01*
X139659758Y-91092000D01*
X139659758Y-91542000D01*
X139710451Y-91811410D01*
X139869672Y-92058846D01*
X140112615Y-92224843D01*
X140401000Y-92283242D01*
X141851000Y-92283242D01*
X142120410Y-92232549D01*
X142367846Y-92073328D01*
X142533843Y-91830385D01*
X142592242Y-91542000D01*
X142592242Y-91092000D01*
X142572735Y-90988329D01*
X142592242Y-90892000D01*
X142592242Y-90442000D01*
X142572735Y-90338329D01*
X142592242Y-90242000D01*
X142592242Y-89792000D01*
X142572735Y-89688329D01*
X142592242Y-89592000D01*
X142592242Y-89142000D01*
X142572735Y-89038329D01*
X142592242Y-88942000D01*
X142592242Y-88492000D01*
X142572735Y-88388329D01*
X142592242Y-88292000D01*
X142592242Y-88269000D01*
X143624090Y-88269000D01*
X143691219Y-88336129D01*
X143680105Y-88392000D01*
X143800147Y-88995492D01*
X144141998Y-89507107D01*
X144373811Y-89662000D01*
X144141998Y-89816893D01*
X143800147Y-90328508D01*
X143680105Y-90932000D01*
X143800147Y-91535492D01*
X144141998Y-92047107D01*
X144373811Y-92202000D01*
X144141998Y-92356893D01*
X143800147Y-92868508D01*
X143680105Y-93472000D01*
X143800147Y-94075492D01*
X144141998Y-94587107D01*
X144373811Y-94742000D01*
X144141998Y-94896893D01*
X143800147Y-95408508D01*
X143680105Y-96012000D01*
X143800147Y-96615492D01*
X144141998Y-97127107D01*
X144373811Y-97282000D01*
X144141998Y-97436893D01*
X143800147Y-97948508D01*
X143680105Y-98552000D01*
X143800147Y-99155492D01*
X144141998Y-99667107D01*
X144373811Y-99822000D01*
X144141998Y-99976893D01*
X143800147Y-100488508D01*
X143680105Y-101092000D01*
X143800147Y-101695492D01*
X144141998Y-102207107D01*
X144373811Y-102362000D01*
X144141998Y-102516893D01*
X143800147Y-103028508D01*
X143680105Y-103632000D01*
X143800147Y-104235492D01*
X144141998Y-104747107D01*
X144373811Y-104902000D01*
X144141998Y-105056893D01*
X143800147Y-105568508D01*
X143680105Y-106172000D01*
X143800147Y-106775492D01*
X144141998Y-107287107D01*
X144453118Y-107494991D01*
X144406642Y-107516817D01*
X144016355Y-107945076D01*
X143846524Y-108355110D01*
X143967845Y-108585000D01*
X145161000Y-108585000D01*
X145161000Y-108565000D01*
X145415000Y-108565000D01*
X145415000Y-108585000D01*
X145435000Y-108585000D01*
X145435000Y-108839000D01*
X145415000Y-108839000D01*
X145415000Y-108859000D01*
X145161000Y-108859000D01*
X145161000Y-108839000D01*
X143967845Y-108839000D01*
X143846524Y-109068890D01*
X144016355Y-109478924D01*
X144406642Y-109907183D01*
X144453118Y-109929009D01*
X144141998Y-110136893D01*
X143800147Y-110648508D01*
X143680105Y-111252000D01*
X143800147Y-111855492D01*
X144141998Y-112367107D01*
X144373811Y-112522000D01*
X144141998Y-112676893D01*
X143800147Y-113188508D01*
X143680105Y-113792000D01*
X143800147Y-114395492D01*
X144141998Y-114907107D01*
X144373811Y-115062000D01*
X144141998Y-115216893D01*
X143800147Y-115728508D01*
X143680105Y-116332000D01*
X143800147Y-116935492D01*
X144141998Y-117447107D01*
X144373811Y-117602000D01*
X144141998Y-117756893D01*
X143800147Y-118268508D01*
X143680105Y-118872000D01*
X143800147Y-119475492D01*
X144141998Y-119987107D01*
X144373811Y-120142000D01*
X144141998Y-120296893D01*
X143800147Y-120808508D01*
X143680105Y-121412000D01*
X143800147Y-122015492D01*
X143934791Y-122217000D01*
X141210206Y-122217000D01*
X141361410Y-122188549D01*
X141608846Y-122029328D01*
X141774843Y-121786385D01*
X141833242Y-121498000D01*
X141833242Y-119498000D01*
X141782549Y-119228590D01*
X141623328Y-118981154D01*
X141380385Y-118815157D01*
X141092000Y-118756758D01*
X140169000Y-118756758D01*
X140169000Y-115896529D01*
X140211410Y-115888549D01*
X140422252Y-115752875D01*
X140615690Y-115833000D01*
X141206250Y-115833000D01*
X141365000Y-115674250D01*
X141365000Y-114325000D01*
X141619000Y-114325000D01*
X141619000Y-115674250D01*
X141777750Y-115833000D01*
X142368310Y-115833000D01*
X142601699Y-115736327D01*
X142780327Y-115557698D01*
X142877000Y-115324309D01*
X142877000Y-114483750D01*
X142718250Y-114325000D01*
X141619000Y-114325000D01*
X141365000Y-114325000D01*
X141345000Y-114325000D01*
X141345000Y-114071000D01*
X141365000Y-114071000D01*
X141365000Y-112721750D01*
X141619000Y-112721750D01*
X141619000Y-114071000D01*
X142718250Y-114071000D01*
X142877000Y-113912250D01*
X142877000Y-113071691D01*
X142780327Y-112838302D01*
X142601699Y-112659673D01*
X142368310Y-112563000D01*
X141777750Y-112563000D01*
X141619000Y-112721750D01*
X141365000Y-112721750D01*
X141206250Y-112563000D01*
X140615690Y-112563000D01*
X140419400Y-112644306D01*
X140230385Y-112515157D01*
X140214796Y-112512000D01*
X140319002Y-112512000D01*
X140319002Y-112353252D01*
X140477750Y-112512000D01*
X140818309Y-112512000D01*
X141051698Y-112415327D01*
X141230327Y-112236699D01*
X141327000Y-112003310D01*
X141327000Y-111537750D01*
X141168250Y-111379000D01*
X140319000Y-111379000D01*
X140319000Y-111399000D01*
X140065000Y-111399000D01*
X140065000Y-111379000D01*
X140045000Y-111379000D01*
X140045000Y-111125000D01*
X140065000Y-111125000D01*
X140065000Y-110150750D01*
X140319000Y-110150750D01*
X140319000Y-111125000D01*
X141168250Y-111125000D01*
X141327000Y-110966250D01*
X141327000Y-110500690D01*
X141230327Y-110267301D01*
X141051698Y-110088673D01*
X140818309Y-109992000D01*
X140477750Y-109992000D01*
X140319000Y-110150750D01*
X140065000Y-110150750D01*
X139906250Y-109992000D01*
X139565691Y-109992000D01*
X139332302Y-110088673D01*
X139257585Y-110163390D01*
X139223328Y-110110154D01*
X139169000Y-110073033D01*
X139169000Y-108544968D01*
X139208846Y-108519328D01*
X139256118Y-108450144D01*
X139332302Y-108526327D01*
X139565691Y-108623000D01*
X140706250Y-108623000D01*
X140865000Y-108464250D01*
X140865000Y-107315000D01*
X141119000Y-107315000D01*
X141119000Y-108464250D01*
X141277750Y-108623000D01*
X142418309Y-108623000D01*
X142651698Y-108526327D01*
X142830327Y-108347699D01*
X142927000Y-108114310D01*
X142927000Y-107473750D01*
X142768250Y-107315000D01*
X141119000Y-107315000D01*
X140865000Y-107315000D01*
X140845000Y-107315000D01*
X140845000Y-107061000D01*
X140865000Y-107061000D01*
X140865000Y-105911750D01*
X141119000Y-105911750D01*
X141119000Y-107061000D01*
X142768250Y-107061000D01*
X142927000Y-106902250D01*
X142927000Y-106261690D01*
X142830327Y-106028301D01*
X142651698Y-105849673D01*
X142418309Y-105753000D01*
X141277750Y-105753000D01*
X141119000Y-105911750D01*
X140865000Y-105911750D01*
X140706250Y-105753000D01*
X139565691Y-105753000D01*
X139332302Y-105849673D01*
X139257585Y-105924390D01*
X139223328Y-105871154D01*
X138980385Y-105705157D01*
X138692000Y-105646758D01*
X138641000Y-105646758D01*
X138641000Y-104140000D01*
X138547600Y-103670447D01*
X138281620Y-103272380D01*
X137883553Y-103006400D01*
X137414000Y-102913000D01*
X136944447Y-103006400D01*
X136546380Y-103272380D01*
X136280400Y-103670447D01*
X136187000Y-104140000D01*
X136187000Y-105646758D01*
X136092000Y-105646758D01*
X135822590Y-105697451D01*
X135575154Y-105856672D01*
X135409157Y-106099615D01*
X135350758Y-106388000D01*
X135350758Y-107988000D01*
X135401451Y-108257410D01*
X135560672Y-108504846D01*
X135803615Y-108670843D01*
X136092000Y-108729242D01*
X137215000Y-108729242D01*
X137215000Y-110070032D01*
X137175154Y-110095672D01*
X137009157Y-110338615D01*
X136950758Y-110627000D01*
X136950758Y-111877000D01*
X137001451Y-112146410D01*
X137160672Y-112393846D01*
X137252746Y-112456758D01*
X136142000Y-112456758D01*
X135872590Y-112507451D01*
X135625154Y-112666672D01*
X135459157Y-112909615D01*
X135400758Y-113198000D01*
X135400758Y-113233000D01*
X133278242Y-113233000D01*
X133278242Y-113210000D01*
X133227549Y-112940590D01*
X133068328Y-112693154D01*
X132825385Y-112527157D01*
X132537000Y-112468758D01*
X132286704Y-112468758D01*
X132415698Y-112415327D01*
X132594327Y-112236699D01*
X132691000Y-112003310D01*
X132691000Y-111537750D01*
X132532250Y-111379000D01*
X131683000Y-111379000D01*
X131683000Y-111399000D01*
X131429000Y-111399000D01*
X131429000Y-111379000D01*
X131409000Y-111379000D01*
X131409000Y-111125000D01*
X131429000Y-111125000D01*
X131429000Y-110150750D01*
X131683000Y-110150750D01*
X131683000Y-111125000D01*
X132532250Y-111125000D01*
X132691000Y-110966250D01*
X132691000Y-110500690D01*
X132594327Y-110267301D01*
X132415698Y-110088673D01*
X132182309Y-109992000D01*
X131841750Y-109992000D01*
X131683000Y-110150750D01*
X131429000Y-110150750D01*
X131270250Y-109992000D01*
X130929691Y-109992000D01*
X130696302Y-110088673D01*
X130621585Y-110163390D01*
X130587328Y-110110154D01*
X130533000Y-110073033D01*
X130533000Y-108544968D01*
X130572846Y-108519328D01*
X130620118Y-108450144D01*
X130696302Y-108526327D01*
X130929691Y-108623000D01*
X132070250Y-108623000D01*
X132229000Y-108464250D01*
X132229000Y-107315000D01*
X132483000Y-107315000D01*
X132483000Y-108464250D01*
X132641750Y-108623000D01*
X133782309Y-108623000D01*
X134015698Y-108526327D01*
X134194327Y-108347699D01*
X134291000Y-108114310D01*
X134291000Y-107473750D01*
X134132250Y-107315000D01*
X132483000Y-107315000D01*
X132229000Y-107315000D01*
X132209000Y-107315000D01*
X132209000Y-107061000D01*
X132229000Y-107061000D01*
X132229000Y-107041000D01*
X132483000Y-107041000D01*
X132483000Y-107061000D01*
X134132250Y-107061000D01*
X134291000Y-106902250D01*
X134291000Y-106261690D01*
X134194327Y-106028301D01*
X134015698Y-105849673D01*
X133782309Y-105753000D01*
X132846356Y-105753000D01*
X133201620Y-105515620D01*
X134217620Y-104499620D01*
X134271392Y-104419145D01*
X134483600Y-104101553D01*
X134577000Y-103632000D01*
X134577000Y-92177000D01*
X134940250Y-92177000D01*
X135099000Y-92018250D01*
X135099000Y-91633242D01*
X135353000Y-91633242D01*
X135353000Y-92018250D01*
X135511750Y-92177000D01*
X136077309Y-92177000D01*
X136310698Y-92080327D01*
X136489327Y-91901699D01*
X136586000Y-91668310D01*
X136586000Y-91588250D01*
X136439389Y-91441639D01*
X136467846Y-91423328D01*
X136633843Y-91180385D01*
X136692242Y-90892000D01*
X136692242Y-90442000D01*
X136672735Y-90338329D01*
X136692242Y-90242000D01*
X136692242Y-89792000D01*
X136672735Y-89688329D01*
X136692242Y-89592000D01*
X136692242Y-89142000D01*
X136672735Y-89038329D01*
X136692242Y-88942000D01*
X136692242Y-88492000D01*
X136672735Y-88388329D01*
X136692242Y-88292000D01*
X136692242Y-87842000D01*
X136672735Y-87738329D01*
X136692242Y-87642000D01*
X136692242Y-87192000D01*
X136672735Y-87088329D01*
X136692242Y-86992000D01*
X136692242Y-86542000D01*
X136672735Y-86438329D01*
X136692242Y-86342000D01*
X136692242Y-85892000D01*
X136641549Y-85622590D01*
X136482328Y-85375154D01*
X136437337Y-85344413D01*
X136586000Y-85195750D01*
X136586000Y-85115690D01*
X136571217Y-85080000D01*
X136890250Y-85080000D01*
X137049000Y-84921250D01*
X137049000Y-83947000D01*
X136199750Y-83947000D01*
X136041000Y-84105750D01*
X136041000Y-84571310D01*
X136055783Y-84607000D01*
X135511750Y-84607000D01*
X135353000Y-84765750D01*
X135353000Y-85150758D01*
X135099000Y-85150758D01*
X135099000Y-84765750D01*
X134964000Y-84630750D01*
X134964000Y-83009250D01*
X135099000Y-82874250D01*
X135099000Y-82489242D01*
X135353000Y-82489242D01*
X135353000Y-82874250D01*
X135511750Y-83033000D01*
X136055783Y-83033000D01*
X136041000Y-83068690D01*
X136041000Y-83534250D01*
X136199750Y-83693000D01*
X137049000Y-83693000D01*
X137049000Y-82718750D01*
X136890250Y-82560000D01*
X136571217Y-82560000D01*
X136586000Y-82524310D01*
X136586000Y-82444250D01*
X136439389Y-82297639D01*
X136467846Y-82279328D01*
X136633843Y-82036385D01*
X136692242Y-81748000D01*
X136692242Y-81298000D01*
X136672735Y-81194329D01*
X136692242Y-81098000D01*
X136692242Y-80648000D01*
X136672735Y-80544329D01*
X136692242Y-80448000D01*
X136692242Y-79998000D01*
X136672735Y-79894329D01*
X136692242Y-79798000D01*
X136692242Y-79348000D01*
X136672735Y-79244329D01*
X136692242Y-79148000D01*
X136692242Y-78991737D01*
X136718053Y-79017593D01*
G36*
X187062157Y-72013615D02*
X187003758Y-72302000D01*
X187003758Y-74002000D01*
X187054451Y-74271410D01*
X187213672Y-74518846D01*
X187401864Y-74647433D01*
X187107147Y-75088508D01*
X186987105Y-75692000D01*
X187107147Y-76295492D01*
X187448998Y-76807107D01*
X187680811Y-76962000D01*
X187448998Y-77116893D01*
X187107147Y-77628508D01*
X186987105Y-78232000D01*
X187107147Y-78835492D01*
X187448998Y-79347107D01*
X187680811Y-79502000D01*
X187448998Y-79656893D01*
X187107147Y-80168508D01*
X186987105Y-80772000D01*
X187107147Y-81375492D01*
X187448998Y-81887107D01*
X187680811Y-82042000D01*
X187448998Y-82196893D01*
X187107147Y-82708508D01*
X186987105Y-83312000D01*
X187107147Y-83915492D01*
X187448998Y-84427107D01*
X187680811Y-84582000D01*
X187448998Y-84736893D01*
X187107147Y-85248508D01*
X187018725Y-85693035D01*
X185822380Y-86889380D01*
X185556400Y-87287447D01*
X185463000Y-87757000D01*
X185463000Y-122217000D01*
X158462945Y-122217000D01*
X158497645Y-122178924D01*
X158667476Y-121768890D01*
X158546155Y-121539000D01*
X157353000Y-121539000D01*
X157353000Y-121559000D01*
X157099000Y-121559000D01*
X157099000Y-121539000D01*
X154813000Y-121539000D01*
X154813000Y-121559000D01*
X154559000Y-121559000D01*
X154559000Y-121539000D01*
X153365845Y-121539000D01*
X153244524Y-121768890D01*
X153414355Y-122178924D01*
X153449055Y-122217000D01*
X151595000Y-122217000D01*
X151595000Y-119271910D01*
X153067545Y-120744455D01*
X153306941Y-120904414D01*
X153244524Y-121055110D01*
X153365845Y-121285000D01*
X154559000Y-121285000D01*
X154559000Y-121265000D01*
X154813000Y-121265000D01*
X154813000Y-121285000D01*
X157099000Y-121285000D01*
X157099000Y-121265000D01*
X157353000Y-121265000D01*
X157353000Y-121285000D01*
X158546155Y-121285000D01*
X158667476Y-121055110D01*
X158497645Y-120645076D01*
X158107358Y-120216817D01*
X158060882Y-120194991D01*
X158372002Y-119987107D01*
X158713853Y-119475492D01*
X158833895Y-118872000D01*
X158713853Y-118268508D01*
X158372002Y-117756893D01*
X158140189Y-117602000D01*
X158372002Y-117447107D01*
X158713853Y-116935492D01*
X158833895Y-116332000D01*
X158713853Y-115728508D01*
X158372002Y-115216893D01*
X158140189Y-115062000D01*
X158372002Y-114907107D01*
X158713853Y-114395492D01*
X158833895Y-113792000D01*
X158713853Y-113188508D01*
X158372002Y-112676893D01*
X158140189Y-112522000D01*
X158372002Y-112367107D01*
X158713853Y-111855492D01*
X158833895Y-111252000D01*
X158713853Y-110648508D01*
X158372002Y-110136893D01*
X158140189Y-109982000D01*
X158372002Y-109827107D01*
X158713853Y-109315492D01*
X158833895Y-108712000D01*
X158713853Y-108108508D01*
X158372002Y-107596893D01*
X158140189Y-107442000D01*
X158372002Y-107287107D01*
X158713853Y-106775492D01*
X158833895Y-106172000D01*
X158713853Y-105568508D01*
X158372002Y-105056893D01*
X158140189Y-104902000D01*
X158372002Y-104747107D01*
X158713853Y-104235492D01*
X158833895Y-103632000D01*
X158713853Y-103028508D01*
X158372002Y-102516893D01*
X158140189Y-102362000D01*
X158372002Y-102207107D01*
X158713853Y-101695492D01*
X158833895Y-101092000D01*
X158713853Y-100488508D01*
X158372002Y-99976893D01*
X158140189Y-99822000D01*
X158372002Y-99667107D01*
X158713853Y-99155492D01*
X158833895Y-98552000D01*
X158713853Y-97948508D01*
X158372002Y-97436893D01*
X158140189Y-97282000D01*
X158372002Y-97127107D01*
X158713853Y-96615492D01*
X158833895Y-96012000D01*
X158713853Y-95408508D01*
X158372002Y-94896893D01*
X158140189Y-94742000D01*
X158372002Y-94587107D01*
X158713853Y-94075492D01*
X158833895Y-93472000D01*
X158713853Y-92868508D01*
X158372002Y-92356893D01*
X158140189Y-92202000D01*
X158372002Y-92047107D01*
X158713853Y-91535492D01*
X158833895Y-90932000D01*
X158713853Y-90328508D01*
X158372002Y-89816893D01*
X158140189Y-89662000D01*
X158372002Y-89507107D01*
X158713853Y-88995492D01*
X158833895Y-88392000D01*
X158713853Y-87788508D01*
X158372002Y-87276893D01*
X158140189Y-87122000D01*
X158372002Y-86967107D01*
X158713853Y-86455492D01*
X158833895Y-85852000D01*
X158713853Y-85248508D01*
X158372002Y-84736893D01*
X158140189Y-84582000D01*
X158372002Y-84427107D01*
X158713853Y-83915492D01*
X158833895Y-83312000D01*
X158713853Y-82708508D01*
X158372002Y-82196893D01*
X158140189Y-82042000D01*
X158372002Y-81887107D01*
X158713853Y-81375492D01*
X158833895Y-80772000D01*
X158713853Y-80168508D01*
X158372002Y-79656893D01*
X158140189Y-79502000D01*
X158372002Y-79347107D01*
X158713853Y-78835492D01*
X158833895Y-78232000D01*
X158713853Y-77628508D01*
X158372002Y-77116893D01*
X158140189Y-76962000D01*
X158372002Y-76807107D01*
X158713853Y-76295492D01*
X158833895Y-75692000D01*
X158713853Y-75088508D01*
X158372002Y-74576893D01*
X158140189Y-74422000D01*
X158372002Y-74267107D01*
X158713853Y-73755492D01*
X158833895Y-73152000D01*
X158713853Y-72548508D01*
X158372002Y-72036893D01*
X158162638Y-71897000D01*
X187141837Y-71897000D01*
X187062157Y-72013615D01*
X187062157Y-72013615D01*
G37*
X187062157Y-72013615D02*
X187003758Y-72302000D01*
X187003758Y-74002000D01*
X187054451Y-74271410D01*
X187213672Y-74518846D01*
X187401864Y-74647433D01*
X187107147Y-75088508D01*
X186987105Y-75692000D01*
X187107147Y-76295492D01*
X187448998Y-76807107D01*
X187680811Y-76962000D01*
X187448998Y-77116893D01*
X187107147Y-77628508D01*
X186987105Y-78232000D01*
X187107147Y-78835492D01*
X187448998Y-79347107D01*
X187680811Y-79502000D01*
X187448998Y-79656893D01*
X187107147Y-80168508D01*
X186987105Y-80772000D01*
X187107147Y-81375492D01*
X187448998Y-81887107D01*
X187680811Y-82042000D01*
X187448998Y-82196893D01*
X187107147Y-82708508D01*
X186987105Y-83312000D01*
X187107147Y-83915492D01*
X187448998Y-84427107D01*
X187680811Y-84582000D01*
X187448998Y-84736893D01*
X187107147Y-85248508D01*
X187018725Y-85693035D01*
X185822380Y-86889380D01*
X185556400Y-87287447D01*
X185463000Y-87757000D01*
X185463000Y-122217000D01*
X158462945Y-122217000D01*
X158497645Y-122178924D01*
X158667476Y-121768890D01*
X158546155Y-121539000D01*
X157353000Y-121539000D01*
X157353000Y-121559000D01*
X157099000Y-121559000D01*
X157099000Y-121539000D01*
X154813000Y-121539000D01*
X154813000Y-121559000D01*
X154559000Y-121559000D01*
X154559000Y-121539000D01*
X153365845Y-121539000D01*
X153244524Y-121768890D01*
X153414355Y-122178924D01*
X153449055Y-122217000D01*
X151595000Y-122217000D01*
X151595000Y-119271910D01*
X153067545Y-120744455D01*
X153306941Y-120904414D01*
X153244524Y-121055110D01*
X153365845Y-121285000D01*
X154559000Y-121285000D01*
X154559000Y-121265000D01*
X154813000Y-121265000D01*
X154813000Y-121285000D01*
X157099000Y-121285000D01*
X157099000Y-121265000D01*
X157353000Y-121265000D01*
X157353000Y-121285000D01*
X158546155Y-121285000D01*
X158667476Y-121055110D01*
X158497645Y-120645076D01*
X158107358Y-120216817D01*
X158060882Y-120194991D01*
X158372002Y-119987107D01*
X158713853Y-119475492D01*
X158833895Y-118872000D01*
X158713853Y-118268508D01*
X158372002Y-117756893D01*
X158140189Y-117602000D01*
X158372002Y-117447107D01*
X158713853Y-116935492D01*
X158833895Y-116332000D01*
X158713853Y-115728508D01*
X158372002Y-115216893D01*
X158140189Y-115062000D01*
X158372002Y-114907107D01*
X158713853Y-114395492D01*
X158833895Y-113792000D01*
X158713853Y-113188508D01*
X158372002Y-112676893D01*
X158140189Y-112522000D01*
X158372002Y-112367107D01*
X158713853Y-111855492D01*
X158833895Y-111252000D01*
X158713853Y-110648508D01*
X158372002Y-110136893D01*
X158140189Y-109982000D01*
X158372002Y-109827107D01*
X158713853Y-109315492D01*
X158833895Y-108712000D01*
X158713853Y-108108508D01*
X158372002Y-107596893D01*
X158140189Y-107442000D01*
X158372002Y-107287107D01*
X158713853Y-106775492D01*
X158833895Y-106172000D01*
X158713853Y-105568508D01*
X158372002Y-105056893D01*
X158140189Y-104902000D01*
X158372002Y-104747107D01*
X158713853Y-104235492D01*
X158833895Y-103632000D01*
X158713853Y-103028508D01*
X158372002Y-102516893D01*
X158140189Y-102362000D01*
X158372002Y-102207107D01*
X158713853Y-101695492D01*
X158833895Y-101092000D01*
X158713853Y-100488508D01*
X158372002Y-99976893D01*
X158140189Y-99822000D01*
X158372002Y-99667107D01*
X158713853Y-99155492D01*
X158833895Y-98552000D01*
X158713853Y-97948508D01*
X158372002Y-97436893D01*
X158140189Y-97282000D01*
X158372002Y-97127107D01*
X158713853Y-96615492D01*
X158833895Y-96012000D01*
X158713853Y-95408508D01*
X158372002Y-94896893D01*
X158140189Y-94742000D01*
X158372002Y-94587107D01*
X158713853Y-94075492D01*
X158833895Y-93472000D01*
X158713853Y-92868508D01*
X158372002Y-92356893D01*
X158140189Y-92202000D01*
X158372002Y-92047107D01*
X158713853Y-91535492D01*
X158833895Y-90932000D01*
X158713853Y-90328508D01*
X158372002Y-89816893D01*
X158140189Y-89662000D01*
X158372002Y-89507107D01*
X158713853Y-88995492D01*
X158833895Y-88392000D01*
X158713853Y-87788508D01*
X158372002Y-87276893D01*
X158140189Y-87122000D01*
X158372002Y-86967107D01*
X158713853Y-86455492D01*
X158833895Y-85852000D01*
X158713853Y-85248508D01*
X158372002Y-84736893D01*
X158140189Y-84582000D01*
X158372002Y-84427107D01*
X158713853Y-83915492D01*
X158833895Y-83312000D01*
X158713853Y-82708508D01*
X158372002Y-82196893D01*
X158140189Y-82042000D01*
X158372002Y-81887107D01*
X158713853Y-81375492D01*
X158833895Y-80772000D01*
X158713853Y-80168508D01*
X158372002Y-79656893D01*
X158140189Y-79502000D01*
X158372002Y-79347107D01*
X158713853Y-78835492D01*
X158833895Y-78232000D01*
X158713853Y-77628508D01*
X158372002Y-77116893D01*
X158140189Y-76962000D01*
X158372002Y-76807107D01*
X158713853Y-76295492D01*
X158833895Y-75692000D01*
X158713853Y-75088508D01*
X158372002Y-74576893D01*
X158140189Y-74422000D01*
X158372002Y-74267107D01*
X158713853Y-73755492D01*
X158833895Y-73152000D01*
X158713853Y-72548508D01*
X158372002Y-72036893D01*
X158162638Y-71897000D01*
X187141837Y-71897000D01*
X187062157Y-72013615D01*
G36*
X195703998Y-117447107D02*
X196015118Y-117654991D01*
X195968642Y-117676817D01*
X195578355Y-118105076D01*
X195408524Y-118515110D01*
X195529845Y-118745000D01*
X196723000Y-118745000D01*
X196723000Y-118725000D01*
X196977000Y-118725000D01*
X196977000Y-118745000D01*
X196997000Y-118745000D01*
X196997000Y-118999000D01*
X196977000Y-118999000D01*
X196977000Y-119019000D01*
X196723000Y-119019000D01*
X196723000Y-118999000D01*
X195529845Y-118999000D01*
X195408524Y-119228890D01*
X195433835Y-119290000D01*
X192659750Y-119290000D01*
X192724993Y-118962000D01*
X193802000Y-118962000D01*
X194128046Y-118897145D01*
X194404455Y-118712455D01*
X195690301Y-117426609D01*
X195703998Y-117447107D01*
X195703998Y-117447107D01*
G37*
X195703998Y-117447107D02*
X196015118Y-117654991D01*
X195968642Y-117676817D01*
X195578355Y-118105076D01*
X195408524Y-118515110D01*
X195529845Y-118745000D01*
X196723000Y-118745000D01*
X196723000Y-118725000D01*
X196977000Y-118725000D01*
X196977000Y-118745000D01*
X196997000Y-118745000D01*
X196997000Y-118999000D01*
X196977000Y-118999000D01*
X196977000Y-119019000D01*
X196723000Y-119019000D01*
X196723000Y-118999000D01*
X195529845Y-118999000D01*
X195408524Y-119228890D01*
X195433835Y-119290000D01*
X192659750Y-119290000D01*
X192724993Y-118962000D01*
X193802000Y-118962000D01*
X194128046Y-118897145D01*
X194404455Y-118712455D01*
X195690301Y-117426609D01*
X195703998Y-117447107D01*
G36*
X195408524Y-113435110D02*
X195529845Y-113665000D01*
X196723000Y-113665000D01*
X196723000Y-113645000D01*
X196977000Y-113645000D01*
X196977000Y-113665000D01*
X196997000Y-113665000D01*
X196997000Y-113919000D01*
X196977000Y-113919000D01*
X196977000Y-113939000D01*
X196723000Y-113939000D01*
X196723000Y-113919000D01*
X195529845Y-113919000D01*
X195408524Y-114148890D01*
X195525998Y-114432515D01*
X195485545Y-114459545D01*
X193195090Y-116750000D01*
X192659750Y-116750000D01*
X192742895Y-116332000D01*
X192654887Y-115889556D01*
X192858046Y-115849145D01*
X193134455Y-115664455D01*
X195424910Y-113374000D01*
X195433835Y-113374000D01*
X195408524Y-113435110D01*
X195408524Y-113435110D01*
G37*
X195408524Y-113435110D02*
X195529845Y-113665000D01*
X196723000Y-113665000D01*
X196723000Y-113645000D01*
X196977000Y-113645000D01*
X196977000Y-113665000D01*
X196997000Y-113665000D01*
X196997000Y-113919000D01*
X196977000Y-113919000D01*
X196977000Y-113939000D01*
X196723000Y-113939000D01*
X196723000Y-113919000D01*
X195529845Y-113919000D01*
X195408524Y-114148890D01*
X195525998Y-114432515D01*
X195485545Y-114459545D01*
X193195090Y-116750000D01*
X192659750Y-116750000D01*
X192742895Y-116332000D01*
X192654887Y-115889556D01*
X192858046Y-115849145D01*
X193134455Y-115664455D01*
X195424910Y-113374000D01*
X195433835Y-113374000D01*
X195408524Y-113435110D01*
G36*
X193195090Y-109130000D02*
X192551165Y-109130000D01*
X192576476Y-109068890D01*
X192455155Y-108839000D01*
X191262000Y-108839000D01*
X191262000Y-108859000D01*
X191008000Y-108859000D01*
X191008000Y-108839000D01*
X190988000Y-108839000D01*
X190988000Y-108585000D01*
X191008000Y-108585000D01*
X191008000Y-108565000D01*
X191262000Y-108565000D01*
X191262000Y-108585000D01*
X192455155Y-108585000D01*
X192576476Y-108355110D01*
X192406645Y-107945076D01*
X192016358Y-107516817D01*
X191969882Y-107494991D01*
X192281002Y-107287107D01*
X192456805Y-107024000D01*
X195301090Y-107024000D01*
X193195090Y-109130000D01*
X193195090Y-109130000D01*
G37*
X193195090Y-109130000D02*
X192551165Y-109130000D01*
X192576476Y-109068890D01*
X192455155Y-108839000D01*
X191262000Y-108839000D01*
X191262000Y-108859000D01*
X191008000Y-108859000D01*
X191008000Y-108839000D01*
X190988000Y-108839000D01*
X190988000Y-108585000D01*
X191008000Y-108585000D01*
X191008000Y-108565000D01*
X191262000Y-108565000D01*
X191262000Y-108585000D01*
X192455155Y-108585000D01*
X192576476Y-108355110D01*
X192406645Y-107945076D01*
X192016358Y-107516817D01*
X191969882Y-107494991D01*
X192281002Y-107287107D01*
X192456805Y-107024000D01*
X195301090Y-107024000D01*
X193195090Y-109130000D01*
G36*
X153244524Y-108355110D02*
X153365845Y-108585000D01*
X154559000Y-108585000D01*
X154559000Y-108565000D01*
X154813000Y-108565000D01*
X154813000Y-108585000D01*
X154833000Y-108585000D01*
X154833000Y-108839000D01*
X154813000Y-108839000D01*
X154813000Y-108859000D01*
X154559000Y-108859000D01*
X154559000Y-108839000D01*
X153365845Y-108839000D01*
X153244524Y-109068890D01*
X153269835Y-109130000D01*
X151154910Y-109130000D01*
X151990910Y-108294000D01*
X153269835Y-108294000D01*
X153244524Y-108355110D01*
X153244524Y-108355110D01*
G37*
X153244524Y-108355110D02*
X153365845Y-108585000D01*
X154559000Y-108585000D01*
X154559000Y-108565000D01*
X154813000Y-108565000D01*
X154813000Y-108585000D01*
X154833000Y-108585000D01*
X154833000Y-108839000D01*
X154813000Y-108839000D01*
X154813000Y-108859000D01*
X154559000Y-108859000D01*
X154559000Y-108839000D01*
X153365845Y-108839000D01*
X153244524Y-109068890D01*
X153269835Y-109130000D01*
X151154910Y-109130000D01*
X151990910Y-108294000D01*
X153269835Y-108294000D01*
X153244524Y-108355110D01*
G36*
X127276000Y-96393000D02*
X127296000Y-96393000D01*
X127296000Y-96647000D01*
X127276000Y-96647000D01*
X127276000Y-97746250D01*
X127434750Y-97905000D01*
X128250309Y-97905000D01*
X128443281Y-97825068D01*
X128408154Y-97847672D01*
X128242157Y-98090615D01*
X128183758Y-98379000D01*
X128183758Y-98979000D01*
X128234451Y-99248410D01*
X128275372Y-99312003D01*
X128242157Y-99360615D01*
X128183758Y-99649000D01*
X128183758Y-99948782D01*
X126657000Y-98422024D01*
X126657000Y-98044000D01*
X126629351Y-97905000D01*
X126863250Y-97905000D01*
X127022000Y-97746250D01*
X127022000Y-96647000D01*
X127002000Y-96647000D01*
X127002000Y-96393000D01*
X127022000Y-96393000D01*
X127022000Y-96373000D01*
X127276000Y-96373000D01*
X127276000Y-96393000D01*
X127276000Y-96393000D01*
G37*
X127276000Y-96393000D02*
X127296000Y-96393000D01*
X127296000Y-96647000D01*
X127276000Y-96647000D01*
X127276000Y-97746250D01*
X127434750Y-97905000D01*
X128250309Y-97905000D01*
X128443281Y-97825068D01*
X128408154Y-97847672D01*
X128242157Y-98090615D01*
X128183758Y-98379000D01*
X128183758Y-98979000D01*
X128234451Y-99248410D01*
X128275372Y-99312003D01*
X128242157Y-99360615D01*
X128183758Y-99649000D01*
X128183758Y-99948782D01*
X126657000Y-98422024D01*
X126657000Y-98044000D01*
X126629351Y-97905000D01*
X126863250Y-97905000D01*
X127022000Y-97746250D01*
X127022000Y-96647000D01*
X127002000Y-96647000D01*
X127002000Y-96393000D01*
X127022000Y-96393000D01*
X127022000Y-96373000D01*
X127276000Y-96373000D01*
X127276000Y-96393000D01*
G36*
X127127000Y-87741000D02*
X128905000Y-87741000D01*
X128905000Y-87721000D01*
X129159000Y-87721000D01*
X129159000Y-87741000D01*
X129179000Y-87741000D01*
X129179000Y-87995000D01*
X129159000Y-87995000D01*
X129159000Y-88844250D01*
X129317750Y-89003000D01*
X129783310Y-89003000D01*
X130016699Y-88906327D01*
X130187000Y-88736025D01*
X130187000Y-88973250D01*
X130345750Y-89132000D01*
X131445000Y-89132000D01*
X131445000Y-89112000D01*
X131699000Y-89112000D01*
X131699000Y-89132000D01*
X131719000Y-89132000D01*
X131719000Y-89386000D01*
X131699000Y-89386000D01*
X131699000Y-90710250D01*
X131857750Y-90869000D01*
X132123000Y-90869000D01*
X132123000Y-92753000D01*
X130430702Y-92753000D01*
X130312385Y-92672157D01*
X130024000Y-92613758D01*
X129024000Y-92613758D01*
X128754590Y-92664451D01*
X128507154Y-92823672D01*
X128459882Y-92892856D01*
X128383698Y-92816673D01*
X128150309Y-92720000D01*
X127809750Y-92720000D01*
X127651000Y-92878750D01*
X127651000Y-93853000D01*
X127671000Y-93853000D01*
X127671000Y-94107000D01*
X127651000Y-94107000D01*
X127651000Y-94127000D01*
X127397000Y-94127000D01*
X127397000Y-94107000D01*
X126547750Y-94107000D01*
X126389000Y-94265750D01*
X126389000Y-94731310D01*
X126485673Y-94964699D01*
X126655975Y-95135000D01*
X126047691Y-95135000D01*
X125832192Y-95224263D01*
X125968846Y-95136328D01*
X126134843Y-94893385D01*
X126193242Y-94605000D01*
X126193242Y-93355000D01*
X126169476Y-93228690D01*
X126389000Y-93228690D01*
X126389000Y-93694250D01*
X126547750Y-93853000D01*
X127397000Y-93853000D01*
X127397000Y-92878750D01*
X127238250Y-92720000D01*
X126897691Y-92720000D01*
X126664302Y-92816673D01*
X126485673Y-92995301D01*
X126389000Y-93228690D01*
X126169476Y-93228690D01*
X126142549Y-93085590D01*
X125983328Y-92838154D01*
X125750507Y-92679073D01*
X125739145Y-92621954D01*
X125554455Y-92345545D01*
X124077910Y-90869000D01*
X124174250Y-90869000D01*
X124333000Y-90710250D01*
X124333000Y-89386000D01*
X124587000Y-89386000D01*
X124587000Y-90710250D01*
X124745750Y-90869000D01*
X125336310Y-90869000D01*
X125569699Y-90772327D01*
X125748327Y-90593698D01*
X125845000Y-90360309D01*
X125845000Y-89544750D01*
X130187000Y-89544750D01*
X130187000Y-90360309D01*
X130283673Y-90593698D01*
X130462301Y-90772327D01*
X130695690Y-90869000D01*
X131286250Y-90869000D01*
X131445000Y-90710250D01*
X131445000Y-89386000D01*
X130345750Y-89386000D01*
X130187000Y-89544750D01*
X125845000Y-89544750D01*
X125686250Y-89386000D01*
X124587000Y-89386000D01*
X124333000Y-89386000D01*
X124313000Y-89386000D01*
X124313000Y-89132000D01*
X124333000Y-89132000D01*
X124333000Y-89112000D01*
X124587000Y-89112000D01*
X124587000Y-89132000D01*
X125686250Y-89132000D01*
X125845000Y-88973250D01*
X125845000Y-88736025D01*
X126015301Y-88906327D01*
X126248690Y-89003000D01*
X126714250Y-89003000D01*
X126873000Y-88844250D01*
X126873000Y-87995000D01*
X127127000Y-87995000D01*
X127127000Y-88844250D01*
X127285750Y-89003000D01*
X127751310Y-89003000D01*
X127984699Y-88906327D01*
X128016000Y-88875026D01*
X128047301Y-88906327D01*
X128280690Y-89003000D01*
X128746250Y-89003000D01*
X128905000Y-88844250D01*
X128905000Y-87995000D01*
X127127000Y-87995000D01*
X126873000Y-87995000D01*
X126853000Y-87995000D01*
X126853000Y-87741000D01*
X126873000Y-87741000D01*
X126873000Y-87721000D01*
X127127000Y-87721000D01*
X127127000Y-87741000D01*
X127127000Y-87741000D01*
G37*
X127127000Y-87741000D02*
X128905000Y-87741000D01*
X128905000Y-87721000D01*
X129159000Y-87721000D01*
X129159000Y-87741000D01*
X129179000Y-87741000D01*
X129179000Y-87995000D01*
X129159000Y-87995000D01*
X129159000Y-88844250D01*
X129317750Y-89003000D01*
X129783310Y-89003000D01*
X130016699Y-88906327D01*
X130187000Y-88736025D01*
X130187000Y-88973250D01*
X130345750Y-89132000D01*
X131445000Y-89132000D01*
X131445000Y-89112000D01*
X131699000Y-89112000D01*
X131699000Y-89132000D01*
X131719000Y-89132000D01*
X131719000Y-89386000D01*
X131699000Y-89386000D01*
X131699000Y-90710250D01*
X131857750Y-90869000D01*
X132123000Y-90869000D01*
X132123000Y-92753000D01*
X130430702Y-92753000D01*
X130312385Y-92672157D01*
X130024000Y-92613758D01*
X129024000Y-92613758D01*
X128754590Y-92664451D01*
X128507154Y-92823672D01*
X128459882Y-92892856D01*
X128383698Y-92816673D01*
X128150309Y-92720000D01*
X127809750Y-92720000D01*
X127651000Y-92878750D01*
X127651000Y-93853000D01*
X127671000Y-93853000D01*
X127671000Y-94107000D01*
X127651000Y-94107000D01*
X127651000Y-94127000D01*
X127397000Y-94127000D01*
X127397000Y-94107000D01*
X126547750Y-94107000D01*
X126389000Y-94265750D01*
X126389000Y-94731310D01*
X126485673Y-94964699D01*
X126655975Y-95135000D01*
X126047691Y-95135000D01*
X125832192Y-95224263D01*
X125968846Y-95136328D01*
X126134843Y-94893385D01*
X126193242Y-94605000D01*
X126193242Y-93355000D01*
X126169476Y-93228690D01*
X126389000Y-93228690D01*
X126389000Y-93694250D01*
X126547750Y-93853000D01*
X127397000Y-93853000D01*
X127397000Y-92878750D01*
X127238250Y-92720000D01*
X126897691Y-92720000D01*
X126664302Y-92816673D01*
X126485673Y-92995301D01*
X126389000Y-93228690D01*
X126169476Y-93228690D01*
X126142549Y-93085590D01*
X125983328Y-92838154D01*
X125750507Y-92679073D01*
X125739145Y-92621954D01*
X125554455Y-92345545D01*
X124077910Y-90869000D01*
X124174250Y-90869000D01*
X124333000Y-90710250D01*
X124333000Y-89386000D01*
X124587000Y-89386000D01*
X124587000Y-90710250D01*
X124745750Y-90869000D01*
X125336310Y-90869000D01*
X125569699Y-90772327D01*
X125748327Y-90593698D01*
X125845000Y-90360309D01*
X125845000Y-89544750D01*
X130187000Y-89544750D01*
X130187000Y-90360309D01*
X130283673Y-90593698D01*
X130462301Y-90772327D01*
X130695690Y-90869000D01*
X131286250Y-90869000D01*
X131445000Y-90710250D01*
X131445000Y-89386000D01*
X130345750Y-89386000D01*
X130187000Y-89544750D01*
X125845000Y-89544750D01*
X125686250Y-89386000D01*
X124587000Y-89386000D01*
X124333000Y-89386000D01*
X124313000Y-89386000D01*
X124313000Y-89132000D01*
X124333000Y-89132000D01*
X124333000Y-89112000D01*
X124587000Y-89112000D01*
X124587000Y-89132000D01*
X125686250Y-89132000D01*
X125845000Y-88973250D01*
X125845000Y-88736025D01*
X126015301Y-88906327D01*
X126248690Y-89003000D01*
X126714250Y-89003000D01*
X126873000Y-88844250D01*
X126873000Y-87995000D01*
X127127000Y-87995000D01*
X127127000Y-88844250D01*
X127285750Y-89003000D01*
X127751310Y-89003000D01*
X127984699Y-88906327D01*
X128016000Y-88875026D01*
X128047301Y-88906327D01*
X128280690Y-89003000D01*
X128746250Y-89003000D01*
X128905000Y-88844250D01*
X128905000Y-87995000D01*
X127127000Y-87995000D01*
X126873000Y-87995000D01*
X126853000Y-87995000D01*
X126853000Y-87741000D01*
X126873000Y-87741000D01*
X126873000Y-87721000D01*
X127127000Y-87721000D01*
X127127000Y-87741000D01*
G36*
X122084000Y-90932000D02*
X122148855Y-91258046D01*
X122333545Y-91534455D01*
X123519090Y-92720000D01*
X123237750Y-92720000D01*
X123079000Y-92878750D01*
X123079000Y-93853000D01*
X123099000Y-93853000D01*
X123099000Y-94107000D01*
X123079000Y-94107000D01*
X123079000Y-94127000D01*
X122825000Y-94127000D01*
X122825000Y-94107000D01*
X121975750Y-94107000D01*
X121817000Y-94265750D01*
X121817000Y-94652000D01*
X121383233Y-94652000D01*
X121370549Y-94584590D01*
X121211328Y-94337154D01*
X121059722Y-94233565D01*
X121196846Y-94145328D01*
X121362843Y-93902385D01*
X121421242Y-93614000D01*
X121421242Y-93228690D01*
X121817000Y-93228690D01*
X121817000Y-93694250D01*
X121975750Y-93853000D01*
X122825000Y-93853000D01*
X122825000Y-92878750D01*
X122666250Y-92720000D01*
X122325691Y-92720000D01*
X122092302Y-92816673D01*
X121913673Y-92995301D01*
X121817000Y-93228690D01*
X121421242Y-93228690D01*
X121421242Y-92314000D01*
X121370549Y-92044590D01*
X121211328Y-91797154D01*
X121182000Y-91777115D01*
X121182000Y-91718578D01*
X121396846Y-91580328D01*
X121562843Y-91337385D01*
X121621242Y-91049000D01*
X121621242Y-89799000D01*
X121570549Y-89529590D01*
X121411328Y-89282154D01*
X121222036Y-89152815D01*
X121396846Y-89040328D01*
X121562843Y-88797385D01*
X121621242Y-88509000D01*
X121621242Y-87847668D01*
X122084000Y-87384910D01*
X122084000Y-90932000D01*
X122084000Y-90932000D01*
G37*
X122084000Y-90932000D02*
X122148855Y-91258046D01*
X122333545Y-91534455D01*
X123519090Y-92720000D01*
X123237750Y-92720000D01*
X123079000Y-92878750D01*
X123079000Y-93853000D01*
X123099000Y-93853000D01*
X123099000Y-94107000D01*
X123079000Y-94107000D01*
X123079000Y-94127000D01*
X122825000Y-94127000D01*
X122825000Y-94107000D01*
X121975750Y-94107000D01*
X121817000Y-94265750D01*
X121817000Y-94652000D01*
X121383233Y-94652000D01*
X121370549Y-94584590D01*
X121211328Y-94337154D01*
X121059722Y-94233565D01*
X121196846Y-94145328D01*
X121362843Y-93902385D01*
X121421242Y-93614000D01*
X121421242Y-93228690D01*
X121817000Y-93228690D01*
X121817000Y-93694250D01*
X121975750Y-93853000D01*
X122825000Y-93853000D01*
X122825000Y-92878750D01*
X122666250Y-92720000D01*
X122325691Y-92720000D01*
X122092302Y-92816673D01*
X121913673Y-92995301D01*
X121817000Y-93228690D01*
X121421242Y-93228690D01*
X121421242Y-92314000D01*
X121370549Y-92044590D01*
X121211328Y-91797154D01*
X121182000Y-91777115D01*
X121182000Y-91718578D01*
X121396846Y-91580328D01*
X121562843Y-91337385D01*
X121621242Y-91049000D01*
X121621242Y-89799000D01*
X121570549Y-89529590D01*
X121411328Y-89282154D01*
X121222036Y-89152815D01*
X121396846Y-89040328D01*
X121562843Y-88797385D01*
X121621242Y-88509000D01*
X121621242Y-87847668D01*
X122084000Y-87384910D01*
X122084000Y-90932000D01*
G36*
X117403750Y-87757000D02*
X118253000Y-87757000D01*
X118253000Y-87737000D01*
X118507000Y-87737000D01*
X118507000Y-87757000D01*
X118527000Y-87757000D01*
X118527000Y-88011000D01*
X118507000Y-88011000D01*
X118507000Y-88985250D01*
X118665750Y-89144000D01*
X119006309Y-89144000D01*
X119239698Y-89047327D01*
X119314415Y-88972610D01*
X119348672Y-89025846D01*
X119537964Y-89155185D01*
X119363154Y-89267672D01*
X119315882Y-89336856D01*
X119239698Y-89260673D01*
X119006309Y-89164000D01*
X118665750Y-89164000D01*
X118507000Y-89322750D01*
X118507000Y-90297000D01*
X118527000Y-90297000D01*
X118527000Y-90551000D01*
X118507000Y-90551000D01*
X118507000Y-90571000D01*
X118253000Y-90571000D01*
X118253000Y-90551000D01*
X117403750Y-90551000D01*
X117245000Y-90709750D01*
X117245000Y-91175310D01*
X117341673Y-91408699D01*
X117520302Y-91587327D01*
X117731061Y-91674626D01*
X117563154Y-91782672D01*
X117397157Y-92025615D01*
X117338758Y-92314000D01*
X117338758Y-93382000D01*
X117094000Y-93382000D01*
X116767954Y-93446855D01*
X116491545Y-93631545D01*
X116171545Y-93951545D01*
X115986855Y-94227954D01*
X115976948Y-94277761D01*
X115907154Y-94322672D01*
X115824165Y-94444130D01*
X115755328Y-94337154D01*
X115726000Y-94317115D01*
X115726000Y-89672690D01*
X117245000Y-89672690D01*
X117245000Y-90138250D01*
X117403750Y-90297000D01*
X118253000Y-90297000D01*
X118253000Y-89322750D01*
X118094250Y-89164000D01*
X117753691Y-89164000D01*
X117520302Y-89260673D01*
X117341673Y-89439301D01*
X117245000Y-89672690D01*
X115726000Y-89672690D01*
X115726000Y-88867242D01*
X116142000Y-88867242D01*
X116411410Y-88816549D01*
X116658846Y-88657328D01*
X116824843Y-88414385D01*
X116874382Y-88169750D01*
X117245000Y-88169750D01*
X117245000Y-88635310D01*
X117341673Y-88868699D01*
X117520302Y-89047327D01*
X117753691Y-89144000D01*
X118094250Y-89144000D01*
X118253000Y-88985250D01*
X118253000Y-88011000D01*
X117403750Y-88011000D01*
X117245000Y-88169750D01*
X116874382Y-88169750D01*
X116883242Y-88126000D01*
X116883242Y-87720000D01*
X117366750Y-87720000D01*
X117403750Y-87757000D01*
X117403750Y-87757000D01*
G37*
X117403750Y-87757000D02*
X118253000Y-87757000D01*
X118253000Y-87737000D01*
X118507000Y-87737000D01*
X118507000Y-87757000D01*
X118527000Y-87757000D01*
X118527000Y-88011000D01*
X118507000Y-88011000D01*
X118507000Y-88985250D01*
X118665750Y-89144000D01*
X119006309Y-89144000D01*
X119239698Y-89047327D01*
X119314415Y-88972610D01*
X119348672Y-89025846D01*
X119537964Y-89155185D01*
X119363154Y-89267672D01*
X119315882Y-89336856D01*
X119239698Y-89260673D01*
X119006309Y-89164000D01*
X118665750Y-89164000D01*
X118507000Y-89322750D01*
X118507000Y-90297000D01*
X118527000Y-90297000D01*
X118527000Y-90551000D01*
X118507000Y-90551000D01*
X118507000Y-90571000D01*
X118253000Y-90571000D01*
X118253000Y-90551000D01*
X117403750Y-90551000D01*
X117245000Y-90709750D01*
X117245000Y-91175310D01*
X117341673Y-91408699D01*
X117520302Y-91587327D01*
X117731061Y-91674626D01*
X117563154Y-91782672D01*
X117397157Y-92025615D01*
X117338758Y-92314000D01*
X117338758Y-93382000D01*
X117094000Y-93382000D01*
X116767954Y-93446855D01*
X116491545Y-93631545D01*
X116171545Y-93951545D01*
X115986855Y-94227954D01*
X115976948Y-94277761D01*
X115907154Y-94322672D01*
X115824165Y-94444130D01*
X115755328Y-94337154D01*
X115726000Y-94317115D01*
X115726000Y-89672690D01*
X117245000Y-89672690D01*
X117245000Y-90138250D01*
X117403750Y-90297000D01*
X118253000Y-90297000D01*
X118253000Y-89322750D01*
X118094250Y-89164000D01*
X117753691Y-89164000D01*
X117520302Y-89260673D01*
X117341673Y-89439301D01*
X117245000Y-89672690D01*
X115726000Y-89672690D01*
X115726000Y-88867242D01*
X116142000Y-88867242D01*
X116411410Y-88816549D01*
X116658846Y-88657328D01*
X116824843Y-88414385D01*
X116874382Y-88169750D01*
X117245000Y-88169750D01*
X117245000Y-88635310D01*
X117341673Y-88868699D01*
X117520302Y-89047327D01*
X117753691Y-89144000D01*
X118094250Y-89144000D01*
X118253000Y-88985250D01*
X118253000Y-88011000D01*
X117403750Y-88011000D01*
X117245000Y-88169750D01*
X116874382Y-88169750D01*
X116883242Y-88126000D01*
X116883242Y-87720000D01*
X117366750Y-87720000D01*
X117403750Y-87757000D01*
G36*
X153244524Y-93115110D02*
X153365845Y-93345000D01*
X154559000Y-93345000D01*
X154559000Y-93325000D01*
X154813000Y-93325000D01*
X154813000Y-93345000D01*
X154833000Y-93345000D01*
X154833000Y-93599000D01*
X154813000Y-93599000D01*
X154813000Y-93619000D01*
X154559000Y-93619000D01*
X154559000Y-93599000D01*
X153365845Y-93599000D01*
X153244524Y-93828890D01*
X153269835Y-93890000D01*
X150646910Y-93890000D01*
X151482910Y-93054000D01*
X153269835Y-93054000D01*
X153244524Y-93115110D01*
X153244524Y-93115110D01*
G37*
X153244524Y-93115110D02*
X153365845Y-93345000D01*
X154559000Y-93345000D01*
X154559000Y-93325000D01*
X154813000Y-93325000D01*
X154813000Y-93345000D01*
X154833000Y-93345000D01*
X154833000Y-93599000D01*
X154813000Y-93599000D01*
X154813000Y-93619000D01*
X154559000Y-93619000D01*
X154559000Y-93599000D01*
X153365845Y-93599000D01*
X153244524Y-93828890D01*
X153269835Y-93890000D01*
X150646910Y-93890000D01*
X151482910Y-93054000D01*
X153269835Y-93054000D01*
X153244524Y-93115110D01*
G36*
X154813000Y-88265000D02*
X154833000Y-88265000D01*
X154833000Y-88519000D01*
X154813000Y-88519000D01*
X154813000Y-90805000D01*
X154833000Y-90805000D01*
X154833000Y-91059000D01*
X154813000Y-91059000D01*
X154813000Y-91079000D01*
X154559000Y-91079000D01*
X154559000Y-91059000D01*
X153365845Y-91059000D01*
X153244524Y-91288890D01*
X153269835Y-91350000D01*
X151612004Y-91350000D01*
X151612004Y-90522910D01*
X153285967Y-88848947D01*
X153414355Y-89158924D01*
X153804642Y-89587183D01*
X153963954Y-89662000D01*
X153804642Y-89736817D01*
X153414355Y-90165076D01*
X153244524Y-90575110D01*
X153365845Y-90805000D01*
X154559000Y-90805000D01*
X154559000Y-88519000D01*
X154539000Y-88519000D01*
X154539000Y-88265000D01*
X154559000Y-88265000D01*
X154559000Y-88245000D01*
X154813000Y-88245000D01*
X154813000Y-88265000D01*
X154813000Y-88265000D01*
G37*
X154813000Y-88265000D02*
X154833000Y-88265000D01*
X154833000Y-88519000D01*
X154813000Y-88519000D01*
X154813000Y-90805000D01*
X154833000Y-90805000D01*
X154833000Y-91059000D01*
X154813000Y-91059000D01*
X154813000Y-91079000D01*
X154559000Y-91079000D01*
X154559000Y-91059000D01*
X153365845Y-91059000D01*
X153244524Y-91288890D01*
X153269835Y-91350000D01*
X151612004Y-91350000D01*
X151612004Y-90522910D01*
X153285967Y-88848947D01*
X153414355Y-89158924D01*
X153804642Y-89587183D01*
X153963954Y-89662000D01*
X153804642Y-89736817D01*
X153414355Y-90165076D01*
X153244524Y-90575110D01*
X153365845Y-90805000D01*
X154559000Y-90805000D01*
X154559000Y-88519000D01*
X154539000Y-88519000D01*
X154539000Y-88265000D01*
X154559000Y-88265000D01*
X154559000Y-88245000D01*
X154813000Y-88245000D01*
X154813000Y-88265000D01*
G36*
X195047090Y-86270000D02*
X192551165Y-86270000D01*
X192576476Y-86208890D01*
X192455155Y-85979000D01*
X191262000Y-85979000D01*
X191262000Y-85999000D01*
X191008000Y-85999000D01*
X191008000Y-85979000D01*
X190988000Y-85979000D01*
X190988000Y-85725000D01*
X191008000Y-85725000D01*
X191008000Y-85705000D01*
X191262000Y-85705000D01*
X191262000Y-85725000D01*
X192455155Y-85725000D01*
X192576476Y-85495110D01*
X192406645Y-85085076D01*
X192016358Y-84656817D01*
X191969882Y-84634991D01*
X192281002Y-84427107D01*
X192456805Y-84164000D01*
X192941090Y-84164000D01*
X195047090Y-86270000D01*
X195047090Y-86270000D01*
G37*
X195047090Y-86270000D02*
X192551165Y-86270000D01*
X192576476Y-86208890D01*
X192455155Y-85979000D01*
X191262000Y-85979000D01*
X191262000Y-85999000D01*
X191008000Y-85999000D01*
X191008000Y-85979000D01*
X190988000Y-85979000D01*
X190988000Y-85725000D01*
X191008000Y-85725000D01*
X191008000Y-85705000D01*
X191262000Y-85705000D01*
X191262000Y-85725000D01*
X192455155Y-85725000D01*
X192576476Y-85495110D01*
X192406645Y-85085076D01*
X192016358Y-84656817D01*
X191969882Y-84634991D01*
X192281002Y-84427107D01*
X192456805Y-84164000D01*
X192941090Y-84164000D01*
X195047090Y-86270000D01*
G36*
X117403750Y-85217000D02*
X118253000Y-85217000D01*
X118253000Y-85197000D01*
X118507000Y-85197000D01*
X118507000Y-85217000D01*
X118527000Y-85217000D01*
X118527000Y-85471000D01*
X118507000Y-85471000D01*
X118507000Y-85491000D01*
X118253000Y-85491000D01*
X118253000Y-85471000D01*
X117403750Y-85471000D01*
X117245000Y-85629750D01*
X117245000Y-86016000D01*
X116728081Y-86016000D01*
X116824843Y-85874385D01*
X116883242Y-85586000D01*
X116883242Y-85180000D01*
X117366750Y-85180000D01*
X117403750Y-85217000D01*
X117403750Y-85217000D01*
G37*
X117403750Y-85217000D02*
X118253000Y-85217000D01*
X118253000Y-85197000D01*
X118507000Y-85197000D01*
X118507000Y-85217000D01*
X118527000Y-85217000D01*
X118527000Y-85471000D01*
X118507000Y-85471000D01*
X118507000Y-85491000D01*
X118253000Y-85491000D01*
X118253000Y-85471000D01*
X117403750Y-85471000D01*
X117245000Y-85629750D01*
X117245000Y-86016000D01*
X116728081Y-86016000D01*
X116824843Y-85874385D01*
X116883242Y-85586000D01*
X116883242Y-85180000D01*
X117366750Y-85180000D01*
X117403750Y-85217000D01*
G36*
X143680105Y-83312000D02*
X143800147Y-83915492D01*
X144141998Y-84427107D01*
X144453118Y-84634991D01*
X144406642Y-84656817D01*
X144016355Y-85085076D01*
X143846524Y-85495110D01*
X143967845Y-85725000D01*
X145161000Y-85725000D01*
X145161000Y-85705000D01*
X145415000Y-85705000D01*
X145415000Y-85725000D01*
X145435000Y-85725000D01*
X145435000Y-85979000D01*
X145415000Y-85979000D01*
X145415000Y-85999000D01*
X145161000Y-85999000D01*
X145161000Y-85979000D01*
X144492748Y-85979000D01*
X144171000Y-85915000D01*
X142547084Y-85915000D01*
X142592242Y-85692000D01*
X142592242Y-85242000D01*
X142541549Y-84972590D01*
X142382328Y-84725154D01*
X142139385Y-84559157D01*
X141851000Y-84500758D01*
X140405951Y-84500758D01*
X140417242Y-84445000D01*
X140417242Y-83195000D01*
X140406750Y-83139242D01*
X141851000Y-83139242D01*
X142120410Y-83088549D01*
X142219168Y-83025000D01*
X143737193Y-83025000D01*
X143680105Y-83312000D01*
X143680105Y-83312000D01*
G37*
X143680105Y-83312000D02*
X143800147Y-83915492D01*
X144141998Y-84427107D01*
X144453118Y-84634991D01*
X144406642Y-84656817D01*
X144016355Y-85085076D01*
X143846524Y-85495110D01*
X143967845Y-85725000D01*
X145161000Y-85725000D01*
X145161000Y-85705000D01*
X145415000Y-85705000D01*
X145415000Y-85725000D01*
X145435000Y-85725000D01*
X145435000Y-85979000D01*
X145415000Y-85979000D01*
X145415000Y-85999000D01*
X145161000Y-85999000D01*
X145161000Y-85979000D01*
X144492748Y-85979000D01*
X144171000Y-85915000D01*
X142547084Y-85915000D01*
X142592242Y-85692000D01*
X142592242Y-85242000D01*
X142541549Y-84972590D01*
X142382328Y-84725154D01*
X142139385Y-84559157D01*
X141851000Y-84500758D01*
X140405951Y-84500758D01*
X140417242Y-84445000D01*
X140417242Y-83195000D01*
X140406750Y-83139242D01*
X141851000Y-83139242D01*
X142120410Y-83088549D01*
X142219168Y-83025000D01*
X143737193Y-83025000D01*
X143680105Y-83312000D01*
G36*
X153153157Y-72013615D02*
X153094758Y-72302000D01*
X153094758Y-74002000D01*
X153145451Y-74271410D01*
X153304672Y-74518846D01*
X153492864Y-74647433D01*
X153198147Y-75088508D01*
X153078105Y-75692000D01*
X153198147Y-76295492D01*
X153539998Y-76807107D01*
X153771811Y-76962000D01*
X153539998Y-77116893D01*
X153198147Y-77628508D01*
X153078105Y-78232000D01*
X153194071Y-78815003D01*
X153067545Y-78899545D01*
X152305545Y-79661545D01*
X152120855Y-79937954D01*
X152056000Y-80264000D01*
X152056000Y-82197090D01*
X149191175Y-85061915D01*
X148974002Y-84736893D01*
X148742189Y-84582000D01*
X148974002Y-84427107D01*
X149315853Y-83915492D01*
X149435895Y-83312000D01*
X149315853Y-82708508D01*
X148974002Y-82196893D01*
X148742189Y-82042000D01*
X148974002Y-81887107D01*
X149315853Y-81375492D01*
X149435895Y-80772000D01*
X149315853Y-80168508D01*
X148974002Y-79656893D01*
X148742189Y-79502000D01*
X148974002Y-79347107D01*
X149315853Y-78835492D01*
X149435895Y-78232000D01*
X149315853Y-77628508D01*
X148974002Y-77116893D01*
X148742189Y-76962000D01*
X148974002Y-76807107D01*
X149315853Y-76295492D01*
X149435895Y-75692000D01*
X149315853Y-75088508D01*
X148974002Y-74576893D01*
X148742189Y-74422000D01*
X148974002Y-74267107D01*
X149315853Y-73755492D01*
X149435895Y-73152000D01*
X149315853Y-72548508D01*
X148974002Y-72036893D01*
X148764638Y-71897000D01*
X153232837Y-71897000D01*
X153153157Y-72013615D01*
X153153157Y-72013615D01*
G37*
X153153157Y-72013615D02*
X153094758Y-72302000D01*
X153094758Y-74002000D01*
X153145451Y-74271410D01*
X153304672Y-74518846D01*
X153492864Y-74647433D01*
X153198147Y-75088508D01*
X153078105Y-75692000D01*
X153198147Y-76295492D01*
X153539998Y-76807107D01*
X153771811Y-76962000D01*
X153539998Y-77116893D01*
X153198147Y-77628508D01*
X153078105Y-78232000D01*
X153194071Y-78815003D01*
X153067545Y-78899545D01*
X152305545Y-79661545D01*
X152120855Y-79937954D01*
X152056000Y-80264000D01*
X152056000Y-82197090D01*
X149191175Y-85061915D01*
X148974002Y-84736893D01*
X148742189Y-84582000D01*
X148974002Y-84427107D01*
X149315853Y-83915492D01*
X149435895Y-83312000D01*
X149315853Y-82708508D01*
X148974002Y-82196893D01*
X148742189Y-82042000D01*
X148974002Y-81887107D01*
X149315853Y-81375492D01*
X149435895Y-80772000D01*
X149315853Y-80168508D01*
X148974002Y-79656893D01*
X148742189Y-79502000D01*
X148974002Y-79347107D01*
X149315853Y-78835492D01*
X149435895Y-78232000D01*
X149315853Y-77628508D01*
X148974002Y-77116893D01*
X148742189Y-76962000D01*
X148974002Y-76807107D01*
X149315853Y-76295492D01*
X149435895Y-75692000D01*
X149315853Y-75088508D01*
X148974002Y-74576893D01*
X148742189Y-74422000D01*
X148974002Y-74267107D01*
X149315853Y-73755492D01*
X149435895Y-73152000D01*
X149315853Y-72548508D01*
X148974002Y-72036893D01*
X148764638Y-71897000D01*
X153232837Y-71897000D01*
X153153157Y-72013615D01*
G36*
X144141998Y-72036893D02*
X143966195Y-72300000D01*
X133487000Y-72300000D01*
X133160954Y-72364855D01*
X132884545Y-72549545D01*
X131377332Y-74056758D01*
X130741000Y-74056758D01*
X130471590Y-74107451D01*
X130224154Y-74266672D01*
X130058157Y-74509615D01*
X129999758Y-74798000D01*
X129999758Y-75248000D01*
X130050451Y-75517410D01*
X130198725Y-75747833D01*
X130125403Y-75924847D01*
X130106000Y-75944250D01*
X130106000Y-76051750D01*
X130125403Y-76071153D01*
X130200200Y-76251729D01*
X130058157Y-76459615D01*
X129999758Y-76748000D01*
X129999758Y-77198000D01*
X130019265Y-77301671D01*
X129999758Y-77398000D01*
X129999758Y-77848000D01*
X130019265Y-77951671D01*
X129999758Y-78048000D01*
X129999758Y-78498000D01*
X130019265Y-78601671D01*
X129999758Y-78698000D01*
X129999758Y-79148000D01*
X130019265Y-79251671D01*
X129999758Y-79348000D01*
X129999758Y-79798000D01*
X130019265Y-79901671D01*
X129999758Y-79998000D01*
X129999758Y-80448000D01*
X130019265Y-80551671D01*
X129999758Y-80648000D01*
X129999758Y-81098000D01*
X130019265Y-81201671D01*
X129999758Y-81298000D01*
X129999758Y-81748000D01*
X130019265Y-81851671D01*
X129999758Y-81948000D01*
X129999758Y-82398000D01*
X130019265Y-82501671D01*
X129999758Y-82598000D01*
X129999758Y-83048000D01*
X130050451Y-83317410D01*
X130209672Y-83564846D01*
X130254663Y-83595587D01*
X130106000Y-83744250D01*
X130106000Y-83824310D01*
X130202673Y-84057699D01*
X130381302Y-84236327D01*
X130614691Y-84333000D01*
X131330250Y-84333000D01*
X131489000Y-84174250D01*
X131489000Y-83789242D01*
X131743000Y-83789242D01*
X131743000Y-84174250D01*
X131901750Y-84333000D01*
X132617309Y-84333000D01*
X132752000Y-84277209D01*
X132752000Y-84947919D01*
X132610385Y-84851157D01*
X132322000Y-84792758D01*
X130822000Y-84792758D01*
X130552590Y-84843451D01*
X130478697Y-84891000D01*
X130213968Y-84891000D01*
X130188328Y-84851154D01*
X129959000Y-84694460D01*
X129959000Y-83312000D01*
X129888436Y-82957252D01*
X129687488Y-82656512D01*
X129179488Y-82148512D01*
X129144981Y-82125455D01*
X128878748Y-81947564D01*
X128524000Y-81877000D01*
X127943000Y-81877000D01*
X127943000Y-73858142D01*
X128032846Y-73800328D01*
X128080118Y-73731144D01*
X128156302Y-73807327D01*
X128389691Y-73904000D01*
X128730250Y-73904000D01*
X128889000Y-73745250D01*
X128889000Y-72771000D01*
X129143000Y-72771000D01*
X129143000Y-73745250D01*
X129301750Y-73904000D01*
X129642309Y-73904000D01*
X129875698Y-73807327D01*
X130054327Y-73628699D01*
X130151000Y-73395310D01*
X130151000Y-72929750D01*
X129992250Y-72771000D01*
X129143000Y-72771000D01*
X128889000Y-72771000D01*
X128869000Y-72771000D01*
X128869000Y-72517000D01*
X128889000Y-72517000D01*
X128889000Y-72497000D01*
X129143000Y-72497000D01*
X129143000Y-72517000D01*
X129992250Y-72517000D01*
X130151000Y-72358250D01*
X130151000Y-71897000D01*
X144351362Y-71897000D01*
X144141998Y-72036893D01*
X144141998Y-72036893D01*
G37*
X144141998Y-72036893D02*
X143966195Y-72300000D01*
X133487000Y-72300000D01*
X133160954Y-72364855D01*
X132884545Y-72549545D01*
X131377332Y-74056758D01*
X130741000Y-74056758D01*
X130471590Y-74107451D01*
X130224154Y-74266672D01*
X130058157Y-74509615D01*
X129999758Y-74798000D01*
X129999758Y-75248000D01*
X130050451Y-75517410D01*
X130198725Y-75747833D01*
X130125403Y-75924847D01*
X130106000Y-75944250D01*
X130106000Y-76051750D01*
X130125403Y-76071153D01*
X130200200Y-76251729D01*
X130058157Y-76459615D01*
X129999758Y-76748000D01*
X129999758Y-77198000D01*
X130019265Y-77301671D01*
X129999758Y-77398000D01*
X129999758Y-77848000D01*
X130019265Y-77951671D01*
X129999758Y-78048000D01*
X129999758Y-78498000D01*
X130019265Y-78601671D01*
X129999758Y-78698000D01*
X129999758Y-79148000D01*
X130019265Y-79251671D01*
X129999758Y-79348000D01*
X129999758Y-79798000D01*
X130019265Y-79901671D01*
X129999758Y-79998000D01*
X129999758Y-80448000D01*
X130019265Y-80551671D01*
X129999758Y-80648000D01*
X129999758Y-81098000D01*
X130019265Y-81201671D01*
X129999758Y-81298000D01*
X129999758Y-81748000D01*
X130019265Y-81851671D01*
X129999758Y-81948000D01*
X129999758Y-82398000D01*
X130019265Y-82501671D01*
X129999758Y-82598000D01*
X129999758Y-83048000D01*
X130050451Y-83317410D01*
X130209672Y-83564846D01*
X130254663Y-83595587D01*
X130106000Y-83744250D01*
X130106000Y-83824310D01*
X130202673Y-84057699D01*
X130381302Y-84236327D01*
X130614691Y-84333000D01*
X131330250Y-84333000D01*
X131489000Y-84174250D01*
X131489000Y-83789242D01*
X131743000Y-83789242D01*
X131743000Y-84174250D01*
X131901750Y-84333000D01*
X132617309Y-84333000D01*
X132752000Y-84277209D01*
X132752000Y-84947919D01*
X132610385Y-84851157D01*
X132322000Y-84792758D01*
X130822000Y-84792758D01*
X130552590Y-84843451D01*
X130478697Y-84891000D01*
X130213968Y-84891000D01*
X130188328Y-84851154D01*
X129959000Y-84694460D01*
X129959000Y-83312000D01*
X129888436Y-82957252D01*
X129687488Y-82656512D01*
X129179488Y-82148512D01*
X129144981Y-82125455D01*
X128878748Y-81947564D01*
X128524000Y-81877000D01*
X127943000Y-81877000D01*
X127943000Y-73858142D01*
X128032846Y-73800328D01*
X128080118Y-73731144D01*
X128156302Y-73807327D01*
X128389691Y-73904000D01*
X128730250Y-73904000D01*
X128889000Y-73745250D01*
X128889000Y-72771000D01*
X129143000Y-72771000D01*
X129143000Y-73745250D01*
X129301750Y-73904000D01*
X129642309Y-73904000D01*
X129875698Y-73807327D01*
X130054327Y-73628699D01*
X130151000Y-73395310D01*
X130151000Y-72929750D01*
X129992250Y-72771000D01*
X129143000Y-72771000D01*
X128889000Y-72771000D01*
X128869000Y-72771000D01*
X128869000Y-72517000D01*
X128889000Y-72517000D01*
X128889000Y-72497000D01*
X129143000Y-72497000D01*
X129143000Y-72517000D01*
X129992250Y-72517000D01*
X130151000Y-72358250D01*
X130151000Y-71897000D01*
X144351362Y-71897000D01*
X144141998Y-72036893D01*
G36*
X117403750Y-82677000D02*
X118253000Y-82677000D01*
X118253000Y-82657000D01*
X118507000Y-82657000D01*
X118507000Y-82677000D01*
X118527000Y-82677000D01*
X118527000Y-82931000D01*
X118507000Y-82931000D01*
X118507000Y-82951000D01*
X118253000Y-82951000D01*
X118253000Y-82931000D01*
X117403750Y-82931000D01*
X117245000Y-83089750D01*
X117245000Y-83476000D01*
X116728081Y-83476000D01*
X116824843Y-83334385D01*
X116883242Y-83046000D01*
X116883242Y-82640000D01*
X117366750Y-82640000D01*
X117403750Y-82677000D01*
X117403750Y-82677000D01*
G37*
X117403750Y-82677000D02*
X118253000Y-82677000D01*
X118253000Y-82657000D01*
X118507000Y-82657000D01*
X118507000Y-82677000D01*
X118527000Y-82677000D01*
X118527000Y-82931000D01*
X118507000Y-82931000D01*
X118507000Y-82951000D01*
X118253000Y-82951000D01*
X118253000Y-82931000D01*
X117403750Y-82931000D01*
X117245000Y-83089750D01*
X117245000Y-83476000D01*
X116728081Y-83476000D01*
X116824843Y-83334385D01*
X116883242Y-83046000D01*
X116883242Y-82640000D01*
X117366750Y-82640000D01*
X117403750Y-82677000D01*
G36*
X117403750Y-80137000D02*
X118253000Y-80137000D01*
X118253000Y-80117000D01*
X118507000Y-80117000D01*
X118507000Y-80137000D01*
X118527000Y-80137000D01*
X118527000Y-80391000D01*
X118507000Y-80391000D01*
X118507000Y-80411000D01*
X118253000Y-80411000D01*
X118253000Y-80391000D01*
X117403750Y-80391000D01*
X117245000Y-80549750D01*
X117245000Y-80936000D01*
X116728081Y-80936000D01*
X116824843Y-80794385D01*
X116883242Y-80506000D01*
X116883242Y-80100000D01*
X117366750Y-80100000D01*
X117403750Y-80137000D01*
X117403750Y-80137000D01*
G37*
X117403750Y-80137000D02*
X118253000Y-80137000D01*
X118253000Y-80117000D01*
X118507000Y-80117000D01*
X118507000Y-80137000D01*
X118527000Y-80137000D01*
X118527000Y-80391000D01*
X118507000Y-80391000D01*
X118507000Y-80411000D01*
X118253000Y-80411000D01*
X118253000Y-80391000D01*
X117403750Y-80391000D01*
X117245000Y-80549750D01*
X117245000Y-80936000D01*
X116728081Y-80936000D01*
X116824843Y-80794385D01*
X116883242Y-80506000D01*
X116883242Y-80100000D01*
X117366750Y-80100000D01*
X117403750Y-80137000D01*
G36*
X136041000Y-74390250D02*
X136199750Y-74549000D01*
X137049000Y-74549000D01*
X137049000Y-74529000D01*
X137303000Y-74529000D01*
X137303000Y-74549000D01*
X137323000Y-74549000D01*
X137323000Y-74803000D01*
X137303000Y-74803000D01*
X137303000Y-75777250D01*
X137461750Y-75936000D01*
X137802309Y-75936000D01*
X137949000Y-75875239D01*
X137949000Y-76184000D01*
X138042400Y-76653553D01*
X138277864Y-77005950D01*
X138308380Y-77051620D01*
X138324380Y-77067620D01*
X138722448Y-77333600D01*
X139192000Y-77427000D01*
X139661552Y-77333600D01*
X139674559Y-77324909D01*
X139659758Y-77398000D01*
X139659758Y-77848000D01*
X139679265Y-77951671D01*
X139659758Y-78048000D01*
X139659758Y-78488518D01*
X138281620Y-77110380D01*
X138281619Y-77110380D01*
X138109947Y-76938407D01*
X137659136Y-76751214D01*
X137414000Y-76751000D01*
X137171005Y-76750788D01*
X136719869Y-76937194D01*
X136692242Y-76964773D01*
X136692242Y-76748000D01*
X136641549Y-76478590D01*
X136482328Y-76231154D01*
X136437337Y-76200413D01*
X136586000Y-76051750D01*
X136586000Y-75971690D01*
X136571217Y-75936000D01*
X136890250Y-75936000D01*
X137049000Y-75777250D01*
X137049000Y-74803000D01*
X136199750Y-74803000D01*
X136041000Y-74961750D01*
X136041000Y-75427310D01*
X136055783Y-75463000D01*
X135511750Y-75463000D01*
X135353000Y-75621750D01*
X135353000Y-76006758D01*
X135099000Y-76006758D01*
X135099000Y-75621750D01*
X134940250Y-75463000D01*
X134374691Y-75463000D01*
X134141302Y-75559673D01*
X133962673Y-75738301D01*
X133866000Y-75971690D01*
X133866000Y-76051750D01*
X133935250Y-76121000D01*
X133085950Y-76121000D01*
X133106597Y-76071153D01*
X133126000Y-76051750D01*
X133126000Y-75944250D01*
X133106597Y-75924847D01*
X133031800Y-75744271D01*
X133173843Y-75536385D01*
X133232242Y-75248000D01*
X133232242Y-74798000D01*
X133202734Y-74641176D01*
X133839910Y-74004000D01*
X136041000Y-74004000D01*
X136041000Y-74390250D01*
X136041000Y-74390250D01*
G37*
X136041000Y-74390250D02*
X136199750Y-74549000D01*
X137049000Y-74549000D01*
X137049000Y-74529000D01*
X137303000Y-74529000D01*
X137303000Y-74549000D01*
X137323000Y-74549000D01*
X137323000Y-74803000D01*
X137303000Y-74803000D01*
X137303000Y-75777250D01*
X137461750Y-75936000D01*
X137802309Y-75936000D01*
X137949000Y-75875239D01*
X137949000Y-76184000D01*
X138042400Y-76653553D01*
X138277864Y-77005950D01*
X138308380Y-77051620D01*
X138324380Y-77067620D01*
X138722448Y-77333600D01*
X139192000Y-77427000D01*
X139661552Y-77333600D01*
X139674559Y-77324909D01*
X139659758Y-77398000D01*
X139659758Y-77848000D01*
X139679265Y-77951671D01*
X139659758Y-78048000D01*
X139659758Y-78488518D01*
X138281620Y-77110380D01*
X138281619Y-77110380D01*
X138109947Y-76938407D01*
X137659136Y-76751214D01*
X137414000Y-76751000D01*
X137171005Y-76750788D01*
X136719869Y-76937194D01*
X136692242Y-76964773D01*
X136692242Y-76748000D01*
X136641549Y-76478590D01*
X136482328Y-76231154D01*
X136437337Y-76200413D01*
X136586000Y-76051750D01*
X136586000Y-75971690D01*
X136571217Y-75936000D01*
X136890250Y-75936000D01*
X137049000Y-75777250D01*
X137049000Y-74803000D01*
X136199750Y-74803000D01*
X136041000Y-74961750D01*
X136041000Y-75427310D01*
X136055783Y-75463000D01*
X135511750Y-75463000D01*
X135353000Y-75621750D01*
X135353000Y-76006758D01*
X135099000Y-76006758D01*
X135099000Y-75621750D01*
X134940250Y-75463000D01*
X134374691Y-75463000D01*
X134141302Y-75559673D01*
X133962673Y-75738301D01*
X133866000Y-75971690D01*
X133866000Y-76051750D01*
X133935250Y-76121000D01*
X133085950Y-76121000D01*
X133106597Y-76071153D01*
X133126000Y-76051750D01*
X133126000Y-75944250D01*
X133106597Y-75924847D01*
X133031800Y-75744271D01*
X133173843Y-75536385D01*
X133232242Y-75248000D01*
X133232242Y-74798000D01*
X133202734Y-74641176D01*
X133839910Y-74004000D01*
X136041000Y-74004000D01*
X136041000Y-74390250D01*
G36*
X117403750Y-77597000D02*
X118253000Y-77597000D01*
X118253000Y-77577000D01*
X118507000Y-77577000D01*
X118507000Y-77597000D01*
X118527000Y-77597000D01*
X118527000Y-77851000D01*
X118507000Y-77851000D01*
X118507000Y-77871000D01*
X118253000Y-77871000D01*
X118253000Y-77851000D01*
X117403750Y-77851000D01*
X117245000Y-78009750D01*
X117245000Y-78396000D01*
X116728081Y-78396000D01*
X116824843Y-78254385D01*
X116883242Y-77966000D01*
X116883242Y-77560000D01*
X117366750Y-77560000D01*
X117403750Y-77597000D01*
X117403750Y-77597000D01*
G37*
X117403750Y-77597000D02*
X118253000Y-77597000D01*
X118253000Y-77577000D01*
X118507000Y-77577000D01*
X118507000Y-77597000D01*
X118527000Y-77597000D01*
X118527000Y-77851000D01*
X118507000Y-77851000D01*
X118507000Y-77871000D01*
X118253000Y-77871000D01*
X118253000Y-77851000D01*
X117403750Y-77851000D01*
X117245000Y-78009750D01*
X117245000Y-78396000D01*
X116728081Y-78396000D01*
X116824843Y-78254385D01*
X116883242Y-77966000D01*
X116883242Y-77560000D01*
X117366750Y-77560000D01*
X117403750Y-77597000D01*
G36*
X199517000Y-78105000D02*
X199537000Y-78105000D01*
X199537000Y-78359000D01*
X199517000Y-78359000D01*
X199517000Y-78379000D01*
X199263000Y-78379000D01*
X199263000Y-78359000D01*
X199243000Y-78359000D01*
X199243000Y-78105000D01*
X199263000Y-78105000D01*
X199263000Y-78085000D01*
X199517000Y-78085000D01*
X199517000Y-78105000D01*
X199517000Y-78105000D01*
G37*
X199517000Y-78105000D02*
X199537000Y-78105000D01*
X199537000Y-78359000D01*
X199517000Y-78359000D01*
X199517000Y-78379000D01*
X199263000Y-78379000D01*
X199263000Y-78359000D01*
X199243000Y-78359000D01*
X199243000Y-78105000D01*
X199263000Y-78105000D01*
X199263000Y-78085000D01*
X199517000Y-78085000D01*
X199517000Y-78105000D01*
G36*
X195317157Y-72013615D02*
X195258758Y-72302000D01*
X195258758Y-74002000D01*
X195309451Y-74271410D01*
X195468672Y-74518846D01*
X195656864Y-74647433D01*
X195362147Y-75088508D01*
X195242105Y-75692000D01*
X195362147Y-76295492D01*
X195703998Y-76807107D01*
X195935811Y-76962000D01*
X195703998Y-77116893D01*
X195362147Y-77628508D01*
X195329508Y-77792598D01*
X193896455Y-76359545D01*
X193620046Y-76174855D01*
X193294000Y-76110000D01*
X192659750Y-76110000D01*
X192742895Y-75692000D01*
X192622853Y-75088508D01*
X192281002Y-74576893D01*
X192049189Y-74422000D01*
X192281002Y-74267107D01*
X192622853Y-73755492D01*
X192742895Y-73152000D01*
X192622853Y-72548508D01*
X192281002Y-72036893D01*
X192071638Y-71897000D01*
X195396837Y-71897000D01*
X195317157Y-72013615D01*
X195317157Y-72013615D01*
G37*
X195317157Y-72013615D02*
X195258758Y-72302000D01*
X195258758Y-74002000D01*
X195309451Y-74271410D01*
X195468672Y-74518846D01*
X195656864Y-74647433D01*
X195362147Y-75088508D01*
X195242105Y-75692000D01*
X195362147Y-76295492D01*
X195703998Y-76807107D01*
X195935811Y-76962000D01*
X195703998Y-77116893D01*
X195362147Y-77628508D01*
X195329508Y-77792598D01*
X193896455Y-76359545D01*
X193620046Y-76174855D01*
X193294000Y-76110000D01*
X192659750Y-76110000D01*
X192742895Y-75692000D01*
X192622853Y-75088508D01*
X192281002Y-74576893D01*
X192049189Y-74422000D01*
X192281002Y-74267107D01*
X192622853Y-73755492D01*
X192742895Y-73152000D01*
X192622853Y-72548508D01*
X192281002Y-72036893D01*
X192071638Y-71897000D01*
X195396837Y-71897000D01*
X195317157Y-72013615D01*
G36*
X198243998Y-76807107D02*
X198555118Y-77014991D01*
X198508642Y-77036817D01*
X198181993Y-77395247D01*
X197996002Y-77116893D01*
X197764189Y-76962000D01*
X197996002Y-76807107D01*
X198120000Y-76621531D01*
X198243998Y-76807107D01*
X198243998Y-76807107D01*
G37*
X198243998Y-76807107D02*
X198555118Y-77014991D01*
X198508642Y-77036817D01*
X198181993Y-77395247D01*
X197996002Y-77116893D01*
X197764189Y-76962000D01*
X197996002Y-76807107D01*
X198120000Y-76621531D01*
X198243998Y-76807107D01*
G36*
X117403750Y-75057000D02*
X118253000Y-75057000D01*
X118253000Y-75037000D01*
X118507000Y-75037000D01*
X118507000Y-75057000D01*
X118527000Y-75057000D01*
X118527000Y-75311000D01*
X118507000Y-75311000D01*
X118507000Y-75331000D01*
X118253000Y-75331000D01*
X118253000Y-75311000D01*
X117403750Y-75311000D01*
X117245000Y-75469750D01*
X117245000Y-75856000D01*
X116728081Y-75856000D01*
X116824843Y-75714385D01*
X116883242Y-75426000D01*
X116883242Y-75020000D01*
X117366750Y-75020000D01*
X117403750Y-75057000D01*
X117403750Y-75057000D01*
G37*
X117403750Y-75057000D02*
X118253000Y-75057000D01*
X118253000Y-75037000D01*
X118507000Y-75037000D01*
X118507000Y-75057000D01*
X118527000Y-75057000D01*
X118527000Y-75311000D01*
X118507000Y-75311000D01*
X118507000Y-75331000D01*
X118253000Y-75331000D01*
X118253000Y-75311000D01*
X117403750Y-75311000D01*
X117245000Y-75469750D01*
X117245000Y-75856000D01*
X116728081Y-75856000D01*
X116824843Y-75714385D01*
X116883242Y-75426000D01*
X116883242Y-75020000D01*
X117366750Y-75020000D01*
X117403750Y-75057000D01*
M02*
