G04 #@! TF.FileFunction,Copper,L2,Bot,Signal*
%FSLAX46Y46*%
G04 Gerber Fmt 4.6, Leading zero omitted, Abs format (unit mm)*
G04 Created by KiCad (PCBNEW 4.0.7) date 04/16/18 15:15:31*
%MOMM*%
%LPD*%
G01*
G04 APERTURE LIST*
%ADD10C,0.100000*%
%ADD11R,1.700000X1.700000*%
%ADD12O,1.700000X1.700000*%
%ADD13C,3.000000*%
%ADD14C,4.000000*%
%ADD15C,0.800000*%
%ADD16C,0.600000*%
%ADD17C,1.000000*%
%ADD18C,1.000000*%
%ADD19C,0.500000*%
%ADD20C,0.400000*%
%ADD21C,0.250000*%
%ADD22C,0.254000*%
G04 APERTURE END LIST*
D10*
D11*
X196850000Y-73152000D03*
D12*
X199390000Y-73152000D03*
X196850000Y-75692000D03*
X199390000Y-75692000D03*
X196850000Y-78232000D03*
X199390000Y-78232000D03*
X196850000Y-80772000D03*
X199390000Y-80772000D03*
X196850000Y-83312000D03*
X199390000Y-83312000D03*
X196850000Y-85852000D03*
X199390000Y-85852000D03*
X196850000Y-88392000D03*
X199390000Y-88392000D03*
X196850000Y-90932000D03*
X199390000Y-90932000D03*
X196850000Y-93472000D03*
X199390000Y-93472000D03*
X196850000Y-96012000D03*
X199390000Y-96012000D03*
X196850000Y-98552000D03*
X199390000Y-98552000D03*
X196850000Y-101092000D03*
X199390000Y-101092000D03*
X196850000Y-103632000D03*
X199390000Y-103632000D03*
X196850000Y-106172000D03*
X199390000Y-106172000D03*
X196850000Y-108712000D03*
X199390000Y-108712000D03*
X196850000Y-111252000D03*
X199390000Y-111252000D03*
X196850000Y-113792000D03*
X199390000Y-113792000D03*
X196850000Y-116332000D03*
X199390000Y-116332000D03*
X196850000Y-118872000D03*
X199390000Y-118872000D03*
X196850000Y-121412000D03*
X199390000Y-121412000D03*
D11*
X154686000Y-73152000D03*
D12*
X157226000Y-73152000D03*
X154686000Y-75692000D03*
X157226000Y-75692000D03*
X154686000Y-78232000D03*
X157226000Y-78232000D03*
X154686000Y-80772000D03*
X157226000Y-80772000D03*
X154686000Y-83312000D03*
X157226000Y-83312000D03*
X154686000Y-85852000D03*
X157226000Y-85852000D03*
X154686000Y-88392000D03*
X157226000Y-88392000D03*
X154686000Y-90932000D03*
X157226000Y-90932000D03*
X154686000Y-93472000D03*
X157226000Y-93472000D03*
X154686000Y-96012000D03*
X157226000Y-96012000D03*
X154686000Y-98552000D03*
X157226000Y-98552000D03*
X154686000Y-101092000D03*
X157226000Y-101092000D03*
X154686000Y-103632000D03*
X157226000Y-103632000D03*
X154686000Y-106172000D03*
X157226000Y-106172000D03*
X154686000Y-108712000D03*
X157226000Y-108712000D03*
X154686000Y-111252000D03*
X157226000Y-111252000D03*
X154686000Y-113792000D03*
X157226000Y-113792000D03*
X154686000Y-116332000D03*
X157226000Y-116332000D03*
X154686000Y-118872000D03*
X157226000Y-118872000D03*
X154686000Y-121412000D03*
X157226000Y-121412000D03*
D13*
X117856000Y-111760000D03*
D14*
X122936000Y-116840000D03*
X112776000Y-116840000D03*
X112776000Y-106680000D03*
X122936000Y-106680000D03*
D11*
X147828000Y-121412000D03*
D12*
X145288000Y-121412000D03*
X147828000Y-118872000D03*
X145288000Y-118872000D03*
X147828000Y-116332000D03*
X145288000Y-116332000D03*
X147828000Y-113792000D03*
X145288000Y-113792000D03*
X147828000Y-111252000D03*
X145288000Y-111252000D03*
X147828000Y-108712000D03*
X145288000Y-108712000D03*
X147828000Y-106172000D03*
X145288000Y-106172000D03*
X147828000Y-103632000D03*
X145288000Y-103632000D03*
X147828000Y-101092000D03*
X145288000Y-101092000D03*
X147828000Y-98552000D03*
X145288000Y-98552000D03*
X147828000Y-96012000D03*
X145288000Y-96012000D03*
X147828000Y-93472000D03*
X145288000Y-93472000D03*
X147828000Y-90932000D03*
X145288000Y-90932000D03*
X147828000Y-88392000D03*
X145288000Y-88392000D03*
X147828000Y-85852000D03*
X145288000Y-85852000D03*
X147828000Y-83312000D03*
X145288000Y-83312000D03*
X147828000Y-80772000D03*
X145288000Y-80772000D03*
X147828000Y-78232000D03*
X145288000Y-78232000D03*
X147828000Y-75692000D03*
X145288000Y-75692000D03*
X147828000Y-73152000D03*
X145288000Y-73152000D03*
D11*
X188595000Y-73152000D03*
D12*
X191135000Y-73152000D03*
X188595000Y-75692000D03*
X191135000Y-75692000D03*
X188595000Y-78232000D03*
X191135000Y-78232000D03*
X188595000Y-80772000D03*
X191135000Y-80772000D03*
X188595000Y-83312000D03*
X191135000Y-83312000D03*
X188595000Y-85852000D03*
X191135000Y-85852000D03*
X188595000Y-88392000D03*
X191135000Y-88392000D03*
X188595000Y-90932000D03*
X191135000Y-90932000D03*
X188595000Y-93472000D03*
X191135000Y-93472000D03*
X188595000Y-96012000D03*
X191135000Y-96012000D03*
X188595000Y-98552000D03*
X191135000Y-98552000D03*
X188595000Y-101092000D03*
X191135000Y-101092000D03*
X188595000Y-103632000D03*
X191135000Y-103632000D03*
X188595000Y-106172000D03*
X191135000Y-106172000D03*
X188595000Y-108712000D03*
X191135000Y-108712000D03*
X188595000Y-111252000D03*
X191135000Y-111252000D03*
X188595000Y-113792000D03*
X191135000Y-113792000D03*
X188595000Y-116332000D03*
X191135000Y-116332000D03*
X188595000Y-118872000D03*
X191135000Y-118872000D03*
X188595000Y-121412000D03*
X191135000Y-121412000D03*
D15*
X143256000Y-88900000D03*
X143256000Y-90932000D03*
X143256000Y-92964000D03*
X151384000Y-81788000D03*
X143256000Y-83312000D03*
X143256000Y-85852000D03*
X143256000Y-124968000D03*
X141732000Y-125984000D03*
X139192000Y-125984000D03*
X136144000Y-125984000D03*
X133096000Y-125984000D03*
X130048000Y-125984000D03*
X127000000Y-125984000D03*
X123952000Y-125984000D03*
X120904000Y-125984000D03*
X117856000Y-125984000D03*
X114808000Y-125984000D03*
X111760000Y-125984000D03*
X133858000Y-72136000D03*
X142748000Y-72136000D03*
X139700000Y-72136000D03*
X136652000Y-72136000D03*
X143256000Y-94996000D03*
X143256000Y-97028000D03*
X143256000Y-99060000D03*
X143256000Y-101092000D03*
X143256000Y-103124000D03*
X143256000Y-105156000D03*
X115316000Y-72136000D03*
X122936000Y-72136000D03*
X120396000Y-72136000D03*
X117856000Y-72136000D03*
X110744000Y-124460000D03*
X110744000Y-121920000D03*
X110744000Y-118872000D03*
X110744000Y-114300000D03*
X110744000Y-110744000D03*
X110744000Y-104140000D03*
X110744000Y-100584000D03*
X110744000Y-97028000D03*
X110744000Y-93472000D03*
X110744000Y-89408000D03*
X143256000Y-119888000D03*
X143256000Y-121920000D03*
X143256000Y-117856000D03*
X143256000Y-115824000D03*
X143256000Y-113284000D03*
X143256000Y-111252000D03*
X143256000Y-109220000D03*
X122428000Y-92202000D03*
X127508000Y-91694000D03*
X125476000Y-91694000D03*
X131572000Y-91694000D03*
X130810000Y-72136000D03*
D16*
X126238000Y-77216000D03*
X126238000Y-81788000D03*
X126238000Y-75184000D03*
D15*
X132842000Y-84328000D03*
X193040000Y-75946000D03*
X193040000Y-115824000D03*
X193040000Y-119126000D03*
X143256000Y-107188000D03*
X134874000Y-107188000D03*
D17*
X133858000Y-74676000D03*
X135382000Y-83820000D03*
X112522000Y-72136000D03*
X127254000Y-98552000D03*
X127254000Y-102616000D03*
D16*
X117094000Y-87884000D03*
X117094000Y-85344000D03*
X117094000Y-82804000D03*
X117094000Y-80264000D03*
X117094000Y-77724000D03*
X117094000Y-75184000D03*
X117094000Y-90424000D03*
D17*
X137414000Y-77978000D03*
D15*
X139192000Y-76200000D03*
X137414000Y-104140000D03*
X127000000Y-83820000D03*
D16*
X117602000Y-99314000D03*
X120396000Y-81534000D03*
X118618000Y-99314000D03*
X120904000Y-73660000D03*
D15*
X195072000Y-123190000D03*
X150368000Y-107188000D03*
X150368000Y-118872000D03*
D16*
X118618000Y-94234000D03*
X120396000Y-84074000D03*
D18*
X143256000Y-94996000D02*
X143256000Y-92964000D01*
X143256000Y-90932000D02*
X143256000Y-88900000D01*
X154686000Y-88392000D02*
X152400000Y-88392000D01*
X151384000Y-87376000D02*
X151384000Y-81788000D01*
X152400000Y-88392000D02*
X151384000Y-87376000D01*
X143256000Y-86106000D02*
X143256000Y-85852000D01*
X111760000Y-125984000D02*
X110998000Y-125984000D01*
X141732000Y-125984000D02*
X139192000Y-125984000D01*
X136144000Y-125984000D02*
X133096000Y-125984000D01*
X130048000Y-125984000D02*
X127000000Y-125984000D01*
X123952000Y-125984000D02*
X120904000Y-125984000D01*
X117856000Y-125984000D02*
X114808000Y-125984000D01*
X143256000Y-83312000D02*
X143256000Y-73152000D01*
X143256000Y-73152000D02*
X143256000Y-72390000D01*
X142748000Y-72136000D02*
X143256000Y-72644000D01*
X143256000Y-72390000D02*
X143256000Y-72644000D01*
X136652000Y-72136000D02*
X139700000Y-72136000D01*
X143256000Y-97028000D02*
X143256000Y-99060000D01*
X143256000Y-101092000D02*
X143256000Y-103124000D01*
X117856000Y-72136000D02*
X120396000Y-72136000D01*
X110744000Y-121920000D02*
X110744000Y-118872000D01*
X110744000Y-114300000D02*
X110744000Y-110744000D01*
X110744000Y-104140000D02*
X110744000Y-100584000D01*
X110744000Y-97028000D02*
X110744000Y-93472000D01*
X143256000Y-117856000D02*
X143256000Y-119888000D01*
X143256000Y-113284000D02*
X143256000Y-115824000D01*
X143256000Y-109220000D02*
X143256000Y-111252000D01*
X126238000Y-81788000D02*
X122936000Y-81788000D01*
X122428000Y-82296000D02*
X122428000Y-92202000D01*
X122936000Y-81788000D02*
X122428000Y-82296000D01*
X134874000Y-107188000D02*
X123444000Y-107188000D01*
X123444000Y-107188000D02*
X122936000Y-106680000D01*
X112776000Y-106680000D02*
X110744000Y-106680000D01*
X112776000Y-116840000D02*
X110744000Y-116840000D01*
X143256000Y-123444000D02*
X143256000Y-124968000D01*
X143256000Y-123190000D02*
X143256000Y-123444000D01*
X110998000Y-125984000D02*
X110744000Y-125730000D01*
X110744000Y-125730000D02*
X110744000Y-124460000D01*
X110744000Y-124460000D02*
X110744000Y-116840000D01*
X110998000Y-72136000D02*
X112522000Y-72136000D01*
X110744000Y-72390000D02*
X110998000Y-72136000D01*
X110744000Y-106680000D02*
X110744000Y-72390000D01*
X110744000Y-116840000D02*
X110744000Y-106680000D01*
D19*
X117094000Y-75184000D02*
X117094000Y-72136000D01*
X117094000Y-90424000D02*
X112776000Y-90424000D01*
X112776000Y-90424000D02*
X113030000Y-90424000D01*
X113030000Y-90424000D02*
X112776000Y-90424000D01*
D18*
X122936000Y-106680000D02*
X123190000Y-106680000D01*
X123190000Y-106680000D02*
X127254000Y-102616000D01*
X122936000Y-106680000D02*
X122936000Y-105156000D01*
X122936000Y-105156000D02*
X122428000Y-104648000D01*
X122428000Y-104648000D02*
X122428000Y-92202000D01*
X122428000Y-92202000D02*
X122936000Y-91694000D01*
X122936000Y-91694000D02*
X125476000Y-91694000D01*
X127508000Y-91694000D02*
X131572000Y-91694000D01*
X125476000Y-91694000D02*
X127508000Y-91694000D01*
X126238000Y-81788000D02*
X126238000Y-77216000D01*
X126238000Y-77216000D02*
X126238000Y-75184000D01*
X126238000Y-75184000D02*
X126238000Y-72136000D01*
X135382000Y-83820000D02*
X133350000Y-83820000D01*
X133350000Y-83820000D02*
X132842000Y-84328000D01*
X157226000Y-121412000D02*
X154686000Y-121412000D01*
X154686000Y-121412000D02*
X154432000Y-121666000D01*
X154432000Y-121666000D02*
X152908000Y-121666000D01*
D20*
X193040000Y-75946000D02*
X193294000Y-75946000D01*
X193294000Y-75946000D02*
X193040000Y-75946000D01*
D18*
X191135000Y-85852000D02*
X193040000Y-85852000D01*
X191135000Y-108712000D02*
X192532000Y-108712000D01*
X192532000Y-108712000D02*
X193040000Y-108204000D01*
X151638000Y-123444000D02*
X192278000Y-123444000D01*
X192278000Y-123444000D02*
X193040000Y-122682000D01*
X193040000Y-122682000D02*
X193040000Y-119126000D01*
X193040000Y-119126000D02*
X193040000Y-115824000D01*
X193040000Y-115824000D02*
X193040000Y-108204000D01*
X193040000Y-108204000D02*
X193040000Y-85852000D01*
X193040000Y-85852000D02*
X193040000Y-75946000D01*
X192976500Y-76009500D02*
X193040000Y-75946000D01*
D20*
X193040000Y-75946000D02*
X192976500Y-76009500D01*
D18*
X112776000Y-106680000D02*
X112776000Y-90424000D01*
X112776000Y-90424000D02*
X112776000Y-72390000D01*
X112776000Y-72390000D02*
X112522000Y-72136000D01*
X134874000Y-107188000D02*
X143256000Y-107188000D01*
X112776000Y-106680000D02*
X112776000Y-116840000D01*
X112776000Y-116840000D02*
X122936000Y-116840000D01*
X122936000Y-116840000D02*
X122936000Y-106680000D01*
X154686000Y-90932000D02*
X154686000Y-88392000D01*
X154686000Y-108712000D02*
X153670000Y-108712000D01*
X153670000Y-108712000D02*
X152908000Y-109474000D01*
X154686000Y-90932000D02*
X154686000Y-93472000D01*
X154686000Y-93472000D02*
X152908000Y-93472000D01*
X143256000Y-108712000D02*
X143256000Y-119888000D01*
X143256000Y-119888000D02*
X143256000Y-121920000D01*
X143256000Y-121920000D02*
X143256000Y-123190000D01*
X152908000Y-90170000D02*
X154686000Y-88392000D01*
X152908000Y-93472000D02*
X152908000Y-90170000D01*
X152908000Y-122936000D02*
X152908000Y-121666000D01*
X152908000Y-121666000D02*
X152908000Y-109474000D01*
X152908000Y-109474000D02*
X152908000Y-93472000D01*
X152400000Y-123444000D02*
X152908000Y-122936000D01*
X143510000Y-123444000D02*
X151638000Y-123444000D01*
X151638000Y-123444000D02*
X152400000Y-123444000D01*
X143256000Y-123190000D02*
X143510000Y-123444000D01*
X133858000Y-74676000D02*
X133858000Y-72136000D01*
X135382000Y-83820000D02*
X143256000Y-83820000D01*
X143256000Y-86106000D02*
X143256000Y-83820000D01*
X143256000Y-83820000D02*
X143256000Y-83312000D01*
X133858000Y-72136000D02*
X130810000Y-72136000D01*
X130810000Y-72136000D02*
X126238000Y-72136000D01*
X126238000Y-72136000D02*
X122936000Y-72136000D01*
X122936000Y-72136000D02*
X117094000Y-72136000D01*
X117094000Y-72136000D02*
X115316000Y-72136000D01*
X115316000Y-72136000D02*
X112522000Y-72136000D01*
X145288000Y-85852000D02*
X143510000Y-85852000D01*
X143256000Y-108712000D02*
X145288000Y-108712000D01*
X143256000Y-86106000D02*
X143256000Y-94996000D01*
X143256000Y-105156000D02*
X143256000Y-107188000D01*
X143256000Y-107188000D02*
X143256000Y-108712000D01*
X143510000Y-85852000D02*
X143256000Y-86106000D01*
X127254000Y-102616000D02*
X127254000Y-98552000D01*
D19*
X117094000Y-75184000D02*
X117094000Y-77724000D01*
X117094000Y-77724000D02*
X117094000Y-80264000D01*
X117094000Y-80264000D02*
X117094000Y-82804000D01*
X117094000Y-82804000D02*
X117094000Y-85344000D01*
X117094000Y-85344000D02*
X117094000Y-87884000D01*
X117094000Y-87884000D02*
X117094000Y-90424000D01*
D18*
X131064000Y-85852000D02*
X131064000Y-84328000D01*
X131064000Y-84328000D02*
X137414000Y-77978000D01*
X137414000Y-77978000D02*
X139192000Y-76200000D01*
X129032000Y-83820000D02*
X127000000Y-83820000D01*
X137414000Y-104140000D02*
X137414000Y-92202000D01*
X137414000Y-92202000D02*
X131064000Y-85852000D01*
X131064000Y-85852000D02*
X129032000Y-83820000D01*
D21*
X117856000Y-99060000D02*
X117602000Y-99314000D01*
X117856000Y-84074000D02*
X117856000Y-99060000D01*
X120396000Y-81534000D02*
X117856000Y-84074000D01*
X118618000Y-99314000D02*
X121158000Y-96774000D01*
X121158000Y-96774000D02*
X121158000Y-95758000D01*
X121158000Y-73914000D02*
X121158000Y-95758000D01*
X120904000Y-73660000D02*
X121158000Y-73914000D01*
D18*
X199390000Y-75692000D02*
X196850000Y-75692000D01*
X195072000Y-123190000D02*
X195072000Y-76454000D01*
X195072000Y-76454000D02*
X195834000Y-75692000D01*
X195834000Y-75692000D02*
X199390000Y-75692000D01*
X150368000Y-118872000D02*
X150368000Y-107188000D01*
D21*
X118618000Y-85852000D02*
X118618000Y-94234000D01*
X120396000Y-84074000D02*
X118618000Y-85852000D01*
D22*
G36*
X144141998Y-72036893D02*
X143800147Y-72548508D01*
X143680105Y-73152000D01*
X143800147Y-73755492D01*
X144141998Y-74267107D01*
X144373811Y-74422000D01*
X144141998Y-74576893D01*
X143800147Y-75088508D01*
X143680105Y-75692000D01*
X143800147Y-76295492D01*
X144141998Y-76807107D01*
X144373811Y-76962000D01*
X144141998Y-77116893D01*
X143800147Y-77628508D01*
X143680105Y-78232000D01*
X143800147Y-78835492D01*
X144141998Y-79347107D01*
X144373811Y-79502000D01*
X144141998Y-79656893D01*
X143800147Y-80168508D01*
X143680105Y-80772000D01*
X143800147Y-81375492D01*
X144141998Y-81887107D01*
X144373811Y-82042000D01*
X144141998Y-82196893D01*
X143800147Y-82708508D01*
X143680105Y-83312000D01*
X143800147Y-83915492D01*
X144141998Y-84427107D01*
X144453118Y-84634991D01*
X144406642Y-84656817D01*
X144016355Y-85085076D01*
X143846524Y-85495110D01*
X143967845Y-85725000D01*
X145161000Y-85725000D01*
X145161000Y-85705000D01*
X145415000Y-85705000D01*
X145415000Y-85725000D01*
X145435000Y-85725000D01*
X145435000Y-85979000D01*
X145415000Y-85979000D01*
X145415000Y-85999000D01*
X145161000Y-85999000D01*
X145161000Y-85979000D01*
X143967845Y-85979000D01*
X143846524Y-86208890D01*
X144016355Y-86618924D01*
X144406642Y-87047183D01*
X144453118Y-87069009D01*
X144141998Y-87276893D01*
X143800147Y-87788508D01*
X143680105Y-88392000D01*
X143800147Y-88995492D01*
X144141998Y-89507107D01*
X144373811Y-89662000D01*
X144141998Y-89816893D01*
X143800147Y-90328508D01*
X143680105Y-90932000D01*
X143800147Y-91535492D01*
X144141998Y-92047107D01*
X144373811Y-92202000D01*
X144141998Y-92356893D01*
X143800147Y-92868508D01*
X143680105Y-93472000D01*
X143800147Y-94075492D01*
X144141998Y-94587107D01*
X144373811Y-94742000D01*
X144141998Y-94896893D01*
X143800147Y-95408508D01*
X143680105Y-96012000D01*
X143800147Y-96615492D01*
X144141998Y-97127107D01*
X144373811Y-97282000D01*
X144141998Y-97436893D01*
X143800147Y-97948508D01*
X143680105Y-98552000D01*
X143800147Y-99155492D01*
X144141998Y-99667107D01*
X144373811Y-99822000D01*
X144141998Y-99976893D01*
X143800147Y-100488508D01*
X143680105Y-101092000D01*
X143800147Y-101695492D01*
X144141998Y-102207107D01*
X144373811Y-102362000D01*
X144141998Y-102516893D01*
X143800147Y-103028508D01*
X143680105Y-103632000D01*
X143800147Y-104235492D01*
X144141998Y-104747107D01*
X144373811Y-104902000D01*
X144141998Y-105056893D01*
X143800147Y-105568508D01*
X143680105Y-106172000D01*
X143800147Y-106775492D01*
X144141998Y-107287107D01*
X144453118Y-107494991D01*
X144406642Y-107516817D01*
X144016355Y-107945076D01*
X143846524Y-108355110D01*
X143967845Y-108585000D01*
X145161000Y-108585000D01*
X145161000Y-108565000D01*
X145415000Y-108565000D01*
X145415000Y-108585000D01*
X145435000Y-108585000D01*
X145435000Y-108839000D01*
X145415000Y-108839000D01*
X145415000Y-108859000D01*
X145161000Y-108859000D01*
X145161000Y-108839000D01*
X143967845Y-108839000D01*
X143846524Y-109068890D01*
X144016355Y-109478924D01*
X144406642Y-109907183D01*
X144453118Y-109929009D01*
X144141998Y-110136893D01*
X143800147Y-110648508D01*
X143680105Y-111252000D01*
X143800147Y-111855492D01*
X144141998Y-112367107D01*
X144373811Y-112522000D01*
X144141998Y-112676893D01*
X143800147Y-113188508D01*
X143680105Y-113792000D01*
X143800147Y-114395492D01*
X144141998Y-114907107D01*
X144373811Y-115062000D01*
X144141998Y-115216893D01*
X143800147Y-115728508D01*
X143680105Y-116332000D01*
X143800147Y-116935492D01*
X144141998Y-117447107D01*
X144373811Y-117602000D01*
X144141998Y-117756893D01*
X143800147Y-118268508D01*
X143680105Y-118872000D01*
X143800147Y-119475492D01*
X144141998Y-119987107D01*
X144373811Y-120142000D01*
X144141998Y-120296893D01*
X143800147Y-120808508D01*
X143680105Y-121412000D01*
X143800147Y-122015492D01*
X144141998Y-122527107D01*
X144653613Y-122868958D01*
X145257105Y-122989000D01*
X145318895Y-122989000D01*
X145922387Y-122868958D01*
X146329580Y-122596880D01*
X146446672Y-122778846D01*
X146689615Y-122944843D01*
X146978000Y-123003242D01*
X148678000Y-123003242D01*
X148947410Y-122952549D01*
X149194846Y-122793328D01*
X149360843Y-122550385D01*
X149419242Y-122262000D01*
X149419242Y-121768890D01*
X153244524Y-121768890D01*
X153414355Y-122178924D01*
X153804642Y-122607183D01*
X154329108Y-122853486D01*
X154559000Y-122732819D01*
X154559000Y-121539000D01*
X154813000Y-121539000D01*
X154813000Y-122732819D01*
X155042892Y-122853486D01*
X155567358Y-122607183D01*
X155956000Y-122180729D01*
X156344642Y-122607183D01*
X156869108Y-122853486D01*
X157099000Y-122732819D01*
X157099000Y-121539000D01*
X157353000Y-121539000D01*
X157353000Y-122732819D01*
X157582892Y-122853486D01*
X158107358Y-122607183D01*
X158497645Y-122178924D01*
X158667476Y-121768890D01*
X158546155Y-121539000D01*
X157353000Y-121539000D01*
X157099000Y-121539000D01*
X154813000Y-121539000D01*
X154559000Y-121539000D01*
X153365845Y-121539000D01*
X153244524Y-121768890D01*
X149419242Y-121768890D01*
X149419242Y-120562000D01*
X149368549Y-120292590D01*
X149209328Y-120045154D01*
X149021136Y-119916567D01*
X149315853Y-119475492D01*
X149317698Y-119466217D01*
X149500380Y-119739620D01*
X149898447Y-120005600D01*
X150368000Y-120099000D01*
X150837553Y-120005600D01*
X151235620Y-119739620D01*
X151501600Y-119341553D01*
X151595000Y-118872000D01*
X151595000Y-107188000D01*
X151501600Y-106718447D01*
X151235620Y-106320380D01*
X150837553Y-106054400D01*
X150368000Y-105961000D01*
X149898447Y-106054400D01*
X149500380Y-106320380D01*
X149366536Y-106520692D01*
X149435895Y-106172000D01*
X149315853Y-105568508D01*
X148974002Y-105056893D01*
X148742189Y-104902000D01*
X148974002Y-104747107D01*
X149315853Y-104235492D01*
X149435895Y-103632000D01*
X149315853Y-103028508D01*
X148974002Y-102516893D01*
X148742189Y-102362000D01*
X148974002Y-102207107D01*
X149315853Y-101695492D01*
X149435895Y-101092000D01*
X149315853Y-100488508D01*
X148974002Y-99976893D01*
X148742189Y-99822000D01*
X148974002Y-99667107D01*
X149315853Y-99155492D01*
X149435895Y-98552000D01*
X149315853Y-97948508D01*
X148974002Y-97436893D01*
X148742189Y-97282000D01*
X148974002Y-97127107D01*
X149315853Y-96615492D01*
X149435895Y-96012000D01*
X149315853Y-95408508D01*
X148974002Y-94896893D01*
X148742189Y-94742000D01*
X148974002Y-94587107D01*
X149315853Y-94075492D01*
X149435895Y-93472000D01*
X149315853Y-92868508D01*
X148974002Y-92356893D01*
X148742189Y-92202000D01*
X148974002Y-92047107D01*
X149315853Y-91535492D01*
X149364905Y-91288890D01*
X153244524Y-91288890D01*
X153414355Y-91698924D01*
X153804642Y-92127183D01*
X153963954Y-92202000D01*
X153804642Y-92276817D01*
X153414355Y-92705076D01*
X153244524Y-93115110D01*
X153365845Y-93345000D01*
X154559000Y-93345000D01*
X154559000Y-91059000D01*
X153365845Y-91059000D01*
X153244524Y-91288890D01*
X149364905Y-91288890D01*
X149435895Y-90932000D01*
X149315853Y-90328508D01*
X148974002Y-89816893D01*
X148742189Y-89662000D01*
X148974002Y-89507107D01*
X149315853Y-88995492D01*
X149364905Y-88748890D01*
X153244524Y-88748890D01*
X153414355Y-89158924D01*
X153804642Y-89587183D01*
X153963954Y-89662000D01*
X153804642Y-89736817D01*
X153414355Y-90165076D01*
X153244524Y-90575110D01*
X153365845Y-90805000D01*
X154559000Y-90805000D01*
X154559000Y-88519000D01*
X153365845Y-88519000D01*
X153244524Y-88748890D01*
X149364905Y-88748890D01*
X149435895Y-88392000D01*
X149315853Y-87788508D01*
X148974002Y-87276893D01*
X148742189Y-87122000D01*
X148974002Y-86967107D01*
X149315853Y-86455492D01*
X149435895Y-85852000D01*
X149315853Y-85248508D01*
X148974002Y-84736893D01*
X148742189Y-84582000D01*
X148974002Y-84427107D01*
X149315853Y-83915492D01*
X149435895Y-83312000D01*
X149315853Y-82708508D01*
X148974002Y-82196893D01*
X148742189Y-82042000D01*
X148974002Y-81887107D01*
X149315853Y-81375492D01*
X149435895Y-80772000D01*
X149315853Y-80168508D01*
X148974002Y-79656893D01*
X148742189Y-79502000D01*
X148974002Y-79347107D01*
X149315853Y-78835492D01*
X149435895Y-78232000D01*
X149315853Y-77628508D01*
X148974002Y-77116893D01*
X148742189Y-76962000D01*
X148974002Y-76807107D01*
X149315853Y-76295492D01*
X149435895Y-75692000D01*
X149315853Y-75088508D01*
X148974002Y-74576893D01*
X148742189Y-74422000D01*
X148974002Y-74267107D01*
X149315853Y-73755492D01*
X149435895Y-73152000D01*
X149315853Y-72548508D01*
X148974002Y-72036893D01*
X148764638Y-71897000D01*
X153232837Y-71897000D01*
X153153157Y-72013615D01*
X153094758Y-72302000D01*
X153094758Y-74002000D01*
X153145451Y-74271410D01*
X153304672Y-74518846D01*
X153492864Y-74647433D01*
X153198147Y-75088508D01*
X153078105Y-75692000D01*
X153198147Y-76295492D01*
X153539998Y-76807107D01*
X153771811Y-76962000D01*
X153539998Y-77116893D01*
X153198147Y-77628508D01*
X153078105Y-78232000D01*
X153198147Y-78835492D01*
X153539998Y-79347107D01*
X153771811Y-79502000D01*
X153539998Y-79656893D01*
X153198147Y-80168508D01*
X153078105Y-80772000D01*
X153198147Y-81375492D01*
X153539998Y-81887107D01*
X153771811Y-82042000D01*
X153539998Y-82196893D01*
X153198147Y-82708508D01*
X153078105Y-83312000D01*
X153198147Y-83915492D01*
X153539998Y-84427107D01*
X153771811Y-84582000D01*
X153539998Y-84736893D01*
X153198147Y-85248508D01*
X153078105Y-85852000D01*
X153198147Y-86455492D01*
X153539998Y-86967107D01*
X153851118Y-87174991D01*
X153804642Y-87196817D01*
X153414355Y-87625076D01*
X153244524Y-88035110D01*
X153365845Y-88265000D01*
X154559000Y-88265000D01*
X154559000Y-88245000D01*
X154813000Y-88245000D01*
X154813000Y-88265000D01*
X154833000Y-88265000D01*
X154833000Y-88519000D01*
X154813000Y-88519000D01*
X154813000Y-90805000D01*
X154833000Y-90805000D01*
X154833000Y-91059000D01*
X154813000Y-91059000D01*
X154813000Y-93345000D01*
X154833000Y-93345000D01*
X154833000Y-93599000D01*
X154813000Y-93599000D01*
X154813000Y-93619000D01*
X154559000Y-93619000D01*
X154559000Y-93599000D01*
X153365845Y-93599000D01*
X153244524Y-93828890D01*
X153414355Y-94238924D01*
X153804642Y-94667183D01*
X153851118Y-94689009D01*
X153539998Y-94896893D01*
X153198147Y-95408508D01*
X153078105Y-96012000D01*
X153198147Y-96615492D01*
X153539998Y-97127107D01*
X153771811Y-97282000D01*
X153539998Y-97436893D01*
X153198147Y-97948508D01*
X153078105Y-98552000D01*
X153198147Y-99155492D01*
X153539998Y-99667107D01*
X153771811Y-99822000D01*
X153539998Y-99976893D01*
X153198147Y-100488508D01*
X153078105Y-101092000D01*
X153198147Y-101695492D01*
X153539998Y-102207107D01*
X153771811Y-102362000D01*
X153539998Y-102516893D01*
X153198147Y-103028508D01*
X153078105Y-103632000D01*
X153198147Y-104235492D01*
X153539998Y-104747107D01*
X153771811Y-104902000D01*
X153539998Y-105056893D01*
X153198147Y-105568508D01*
X153078105Y-106172000D01*
X153198147Y-106775492D01*
X153539998Y-107287107D01*
X153851118Y-107494991D01*
X153804642Y-107516817D01*
X153414355Y-107945076D01*
X153244524Y-108355110D01*
X153365845Y-108585000D01*
X154559000Y-108585000D01*
X154559000Y-108565000D01*
X154813000Y-108565000D01*
X154813000Y-108585000D01*
X154833000Y-108585000D01*
X154833000Y-108839000D01*
X154813000Y-108839000D01*
X154813000Y-108859000D01*
X154559000Y-108859000D01*
X154559000Y-108839000D01*
X153365845Y-108839000D01*
X153244524Y-109068890D01*
X153414355Y-109478924D01*
X153804642Y-109907183D01*
X153851118Y-109929009D01*
X153539998Y-110136893D01*
X153198147Y-110648508D01*
X153078105Y-111252000D01*
X153198147Y-111855492D01*
X153539998Y-112367107D01*
X153771811Y-112522000D01*
X153539998Y-112676893D01*
X153198147Y-113188508D01*
X153078105Y-113792000D01*
X153198147Y-114395492D01*
X153539998Y-114907107D01*
X153771811Y-115062000D01*
X153539998Y-115216893D01*
X153198147Y-115728508D01*
X153078105Y-116332000D01*
X153198147Y-116935492D01*
X153539998Y-117447107D01*
X153771811Y-117602000D01*
X153539998Y-117756893D01*
X153198147Y-118268508D01*
X153078105Y-118872000D01*
X153198147Y-119475492D01*
X153539998Y-119987107D01*
X153851118Y-120194991D01*
X153804642Y-120216817D01*
X153414355Y-120645076D01*
X153244524Y-121055110D01*
X153365845Y-121285000D01*
X154559000Y-121285000D01*
X154559000Y-121265000D01*
X154813000Y-121265000D01*
X154813000Y-121285000D01*
X157099000Y-121285000D01*
X157099000Y-121265000D01*
X157353000Y-121265000D01*
X157353000Y-121285000D01*
X158546155Y-121285000D01*
X158667476Y-121055110D01*
X158497645Y-120645076D01*
X158107358Y-120216817D01*
X158060882Y-120194991D01*
X158372002Y-119987107D01*
X158713853Y-119475492D01*
X158833895Y-118872000D01*
X158713853Y-118268508D01*
X158372002Y-117756893D01*
X158140189Y-117602000D01*
X158372002Y-117447107D01*
X158713853Y-116935492D01*
X158833895Y-116332000D01*
X158713853Y-115728508D01*
X158372002Y-115216893D01*
X158140189Y-115062000D01*
X158372002Y-114907107D01*
X158713853Y-114395492D01*
X158833895Y-113792000D01*
X158713853Y-113188508D01*
X158372002Y-112676893D01*
X158140189Y-112522000D01*
X158372002Y-112367107D01*
X158713853Y-111855492D01*
X158833895Y-111252000D01*
X158713853Y-110648508D01*
X158372002Y-110136893D01*
X158140189Y-109982000D01*
X158372002Y-109827107D01*
X158713853Y-109315492D01*
X158833895Y-108712000D01*
X158713853Y-108108508D01*
X158372002Y-107596893D01*
X158140189Y-107442000D01*
X158372002Y-107287107D01*
X158713853Y-106775492D01*
X158833895Y-106172000D01*
X158713853Y-105568508D01*
X158372002Y-105056893D01*
X158140189Y-104902000D01*
X158372002Y-104747107D01*
X158713853Y-104235492D01*
X158833895Y-103632000D01*
X158713853Y-103028508D01*
X158372002Y-102516893D01*
X158140189Y-102362000D01*
X158372002Y-102207107D01*
X158713853Y-101695492D01*
X158833895Y-101092000D01*
X158713853Y-100488508D01*
X158372002Y-99976893D01*
X158140189Y-99822000D01*
X158372002Y-99667107D01*
X158713853Y-99155492D01*
X158833895Y-98552000D01*
X158713853Y-97948508D01*
X158372002Y-97436893D01*
X158140189Y-97282000D01*
X158372002Y-97127107D01*
X158713853Y-96615492D01*
X158833895Y-96012000D01*
X158713853Y-95408508D01*
X158372002Y-94896893D01*
X158140189Y-94742000D01*
X158372002Y-94587107D01*
X158713853Y-94075492D01*
X158833895Y-93472000D01*
X158713853Y-92868508D01*
X158372002Y-92356893D01*
X158140189Y-92202000D01*
X158372002Y-92047107D01*
X158713853Y-91535492D01*
X158833895Y-90932000D01*
X158713853Y-90328508D01*
X158372002Y-89816893D01*
X158140189Y-89662000D01*
X158372002Y-89507107D01*
X158713853Y-88995492D01*
X158833895Y-88392000D01*
X158713853Y-87788508D01*
X158372002Y-87276893D01*
X158140189Y-87122000D01*
X158372002Y-86967107D01*
X158713853Y-86455492D01*
X158833895Y-85852000D01*
X158713853Y-85248508D01*
X158372002Y-84736893D01*
X158140189Y-84582000D01*
X158372002Y-84427107D01*
X158713853Y-83915492D01*
X158833895Y-83312000D01*
X158713853Y-82708508D01*
X158372002Y-82196893D01*
X158140189Y-82042000D01*
X158372002Y-81887107D01*
X158713853Y-81375492D01*
X158833895Y-80772000D01*
X158713853Y-80168508D01*
X158372002Y-79656893D01*
X158140189Y-79502000D01*
X158372002Y-79347107D01*
X158713853Y-78835492D01*
X158833895Y-78232000D01*
X158713853Y-77628508D01*
X158372002Y-77116893D01*
X158140189Y-76962000D01*
X158372002Y-76807107D01*
X158713853Y-76295492D01*
X158833895Y-75692000D01*
X158713853Y-75088508D01*
X158372002Y-74576893D01*
X158140189Y-74422000D01*
X158372002Y-74267107D01*
X158713853Y-73755492D01*
X158833895Y-73152000D01*
X158713853Y-72548508D01*
X158372002Y-72036893D01*
X158162638Y-71897000D01*
X187141837Y-71897000D01*
X187062157Y-72013615D01*
X187003758Y-72302000D01*
X187003758Y-74002000D01*
X187054451Y-74271410D01*
X187213672Y-74518846D01*
X187401864Y-74647433D01*
X187107147Y-75088508D01*
X186987105Y-75692000D01*
X187107147Y-76295492D01*
X187448998Y-76807107D01*
X187680811Y-76962000D01*
X187448998Y-77116893D01*
X187107147Y-77628508D01*
X186987105Y-78232000D01*
X187107147Y-78835492D01*
X187448998Y-79347107D01*
X187680811Y-79502000D01*
X187448998Y-79656893D01*
X187107147Y-80168508D01*
X186987105Y-80772000D01*
X187107147Y-81375492D01*
X187448998Y-81887107D01*
X187680811Y-82042000D01*
X187448998Y-82196893D01*
X187107147Y-82708508D01*
X186987105Y-83312000D01*
X187107147Y-83915492D01*
X187448998Y-84427107D01*
X187680811Y-84582000D01*
X187448998Y-84736893D01*
X187107147Y-85248508D01*
X186987105Y-85852000D01*
X187107147Y-86455492D01*
X187448998Y-86967107D01*
X187680811Y-87122000D01*
X187448998Y-87276893D01*
X187107147Y-87788508D01*
X186987105Y-88392000D01*
X187107147Y-88995492D01*
X187448998Y-89507107D01*
X187680811Y-89662000D01*
X187448998Y-89816893D01*
X187107147Y-90328508D01*
X186987105Y-90932000D01*
X187107147Y-91535492D01*
X187448998Y-92047107D01*
X187680811Y-92202000D01*
X187448998Y-92356893D01*
X187107147Y-92868508D01*
X186987105Y-93472000D01*
X187107147Y-94075492D01*
X187448998Y-94587107D01*
X187680811Y-94742000D01*
X187448998Y-94896893D01*
X187107147Y-95408508D01*
X186987105Y-96012000D01*
X187107147Y-96615492D01*
X187448998Y-97127107D01*
X187680811Y-97282000D01*
X187448998Y-97436893D01*
X187107147Y-97948508D01*
X186987105Y-98552000D01*
X187107147Y-99155492D01*
X187448998Y-99667107D01*
X187680811Y-99822000D01*
X187448998Y-99976893D01*
X187107147Y-100488508D01*
X186987105Y-101092000D01*
X187107147Y-101695492D01*
X187448998Y-102207107D01*
X187680811Y-102362000D01*
X187448998Y-102516893D01*
X187107147Y-103028508D01*
X186987105Y-103632000D01*
X187107147Y-104235492D01*
X187448998Y-104747107D01*
X187680811Y-104902000D01*
X187448998Y-105056893D01*
X187107147Y-105568508D01*
X186987105Y-106172000D01*
X187107147Y-106775492D01*
X187448998Y-107287107D01*
X187680811Y-107442000D01*
X187448998Y-107596893D01*
X187107147Y-108108508D01*
X186987105Y-108712000D01*
X187107147Y-109315492D01*
X187448998Y-109827107D01*
X187680811Y-109982000D01*
X187448998Y-110136893D01*
X187107147Y-110648508D01*
X186987105Y-111252000D01*
X187107147Y-111855492D01*
X187448998Y-112367107D01*
X187680811Y-112522000D01*
X187448998Y-112676893D01*
X187107147Y-113188508D01*
X186987105Y-113792000D01*
X187107147Y-114395492D01*
X187448998Y-114907107D01*
X187680811Y-115062000D01*
X187448998Y-115216893D01*
X187107147Y-115728508D01*
X186987105Y-116332000D01*
X187107147Y-116935492D01*
X187448998Y-117447107D01*
X187680811Y-117602000D01*
X187448998Y-117756893D01*
X187107147Y-118268508D01*
X186987105Y-118872000D01*
X187107147Y-119475492D01*
X187448998Y-119987107D01*
X187680811Y-120142000D01*
X187448998Y-120296893D01*
X187107147Y-120808508D01*
X186987105Y-121412000D01*
X187107147Y-122015492D01*
X187448998Y-122527107D01*
X187960613Y-122868958D01*
X188564105Y-122989000D01*
X188625895Y-122989000D01*
X189229387Y-122868958D01*
X189741002Y-122527107D01*
X189865000Y-122341531D01*
X189988998Y-122527107D01*
X190500613Y-122868958D01*
X191104105Y-122989000D01*
X191165895Y-122989000D01*
X191769387Y-122868958D01*
X192281002Y-122527107D01*
X192622853Y-122015492D01*
X192742895Y-121412000D01*
X192622853Y-120808508D01*
X192281002Y-120296893D01*
X192049189Y-120142000D01*
X192281002Y-119987107D01*
X192622853Y-119475492D01*
X192742895Y-118872000D01*
X192622853Y-118268508D01*
X192281002Y-117756893D01*
X192049189Y-117602000D01*
X192281002Y-117447107D01*
X192622853Y-116935492D01*
X192742895Y-116332000D01*
X192622853Y-115728508D01*
X192281002Y-115216893D01*
X192049189Y-115062000D01*
X192281002Y-114907107D01*
X192622853Y-114395492D01*
X192742895Y-113792000D01*
X192622853Y-113188508D01*
X192281002Y-112676893D01*
X192049189Y-112522000D01*
X192281002Y-112367107D01*
X192622853Y-111855492D01*
X192742895Y-111252000D01*
X192622853Y-110648508D01*
X192281002Y-110136893D01*
X191969882Y-109929009D01*
X192016358Y-109907183D01*
X192406645Y-109478924D01*
X192576476Y-109068890D01*
X192455155Y-108839000D01*
X191262000Y-108839000D01*
X191262000Y-108859000D01*
X191008000Y-108859000D01*
X191008000Y-108839000D01*
X190988000Y-108839000D01*
X190988000Y-108585000D01*
X191008000Y-108585000D01*
X191008000Y-108565000D01*
X191262000Y-108565000D01*
X191262000Y-108585000D01*
X192455155Y-108585000D01*
X192576476Y-108355110D01*
X192406645Y-107945076D01*
X192016358Y-107516817D01*
X191969882Y-107494991D01*
X192281002Y-107287107D01*
X192622853Y-106775492D01*
X192742895Y-106172000D01*
X192622853Y-105568508D01*
X192281002Y-105056893D01*
X192049189Y-104902000D01*
X192281002Y-104747107D01*
X192622853Y-104235492D01*
X192742895Y-103632000D01*
X192622853Y-103028508D01*
X192281002Y-102516893D01*
X192049189Y-102362000D01*
X192281002Y-102207107D01*
X192622853Y-101695492D01*
X192742895Y-101092000D01*
X192622853Y-100488508D01*
X192281002Y-99976893D01*
X192049189Y-99822000D01*
X192281002Y-99667107D01*
X192622853Y-99155492D01*
X192742895Y-98552000D01*
X192622853Y-97948508D01*
X192281002Y-97436893D01*
X192049189Y-97282000D01*
X192281002Y-97127107D01*
X192622853Y-96615492D01*
X192742895Y-96012000D01*
X192622853Y-95408508D01*
X192281002Y-94896893D01*
X192049189Y-94742000D01*
X192281002Y-94587107D01*
X192622853Y-94075492D01*
X192742895Y-93472000D01*
X192622853Y-92868508D01*
X192281002Y-92356893D01*
X192049189Y-92202000D01*
X192281002Y-92047107D01*
X192622853Y-91535492D01*
X192742895Y-90932000D01*
X192622853Y-90328508D01*
X192281002Y-89816893D01*
X192049189Y-89662000D01*
X192281002Y-89507107D01*
X192622853Y-88995492D01*
X192742895Y-88392000D01*
X192622853Y-87788508D01*
X192281002Y-87276893D01*
X191969882Y-87069009D01*
X192016358Y-87047183D01*
X192406645Y-86618924D01*
X192576476Y-86208890D01*
X192455155Y-85979000D01*
X191262000Y-85979000D01*
X191262000Y-85999000D01*
X191008000Y-85999000D01*
X191008000Y-85979000D01*
X190988000Y-85979000D01*
X190988000Y-85725000D01*
X191008000Y-85725000D01*
X191008000Y-85705000D01*
X191262000Y-85705000D01*
X191262000Y-85725000D01*
X192455155Y-85725000D01*
X192576476Y-85495110D01*
X192406645Y-85085076D01*
X192016358Y-84656817D01*
X191969882Y-84634991D01*
X192281002Y-84427107D01*
X192622853Y-83915492D01*
X192742895Y-83312000D01*
X192622853Y-82708508D01*
X192281002Y-82196893D01*
X192049189Y-82042000D01*
X192281002Y-81887107D01*
X192622853Y-81375492D01*
X192742895Y-80772000D01*
X192622853Y-80168508D01*
X192281002Y-79656893D01*
X192049189Y-79502000D01*
X192281002Y-79347107D01*
X192622853Y-78835492D01*
X192742895Y-78232000D01*
X192622853Y-77628508D01*
X192281002Y-77116893D01*
X192049189Y-76962000D01*
X192281002Y-76807107D01*
X192622853Y-76295492D01*
X192742895Y-75692000D01*
X192622853Y-75088508D01*
X192281002Y-74576893D01*
X192049189Y-74422000D01*
X192281002Y-74267107D01*
X192622853Y-73755492D01*
X192742895Y-73152000D01*
X192622853Y-72548508D01*
X192281002Y-72036893D01*
X192071638Y-71897000D01*
X195396837Y-71897000D01*
X195317157Y-72013615D01*
X195258758Y-72302000D01*
X195258758Y-74002000D01*
X195309451Y-74271410D01*
X195468672Y-74518846D01*
X195490007Y-74533424D01*
X195364448Y-74558399D01*
X194966380Y-74824380D01*
X194204380Y-75586380D01*
X193938400Y-75984447D01*
X193845000Y-76454000D01*
X193845000Y-123190000D01*
X193938400Y-123659553D01*
X194204380Y-124057620D01*
X194602447Y-124323600D01*
X195072000Y-124417000D01*
X195541553Y-124323600D01*
X195939620Y-124057620D01*
X196205600Y-123659553D01*
X196299000Y-123190000D01*
X196299000Y-122885545D01*
X196819105Y-122989000D01*
X196880895Y-122989000D01*
X197484387Y-122868958D01*
X197996002Y-122527107D01*
X198120000Y-122341531D01*
X198243998Y-122527107D01*
X198755613Y-122868958D01*
X199359105Y-122989000D01*
X199420895Y-122989000D01*
X200024387Y-122868958D01*
X200391000Y-122623994D01*
X200391000Y-126223000D01*
X110505000Y-126223000D01*
X110505000Y-118715022D01*
X111080584Y-118715022D01*
X111301353Y-119085743D01*
X112273012Y-119479119D01*
X113321247Y-119470713D01*
X114250647Y-119085743D01*
X114471416Y-118715022D01*
X121240584Y-118715022D01*
X121461353Y-119085743D01*
X122433012Y-119479119D01*
X123481247Y-119470713D01*
X124410647Y-119085743D01*
X124631416Y-118715022D01*
X122936000Y-117019605D01*
X121240584Y-118715022D01*
X114471416Y-118715022D01*
X112776000Y-117019605D01*
X111080584Y-118715022D01*
X110505000Y-118715022D01*
X110505000Y-118253671D01*
X110530257Y-118314647D01*
X110900978Y-118535416D01*
X112596395Y-116840000D01*
X112955605Y-116840000D01*
X114651022Y-118535416D01*
X115021743Y-118314647D01*
X115415119Y-117342988D01*
X115407052Y-116337012D01*
X120296881Y-116337012D01*
X120305287Y-117385247D01*
X120690257Y-118314647D01*
X121060978Y-118535416D01*
X122756395Y-116840000D01*
X123115605Y-116840000D01*
X124811022Y-118535416D01*
X125181743Y-118314647D01*
X125575119Y-117342988D01*
X125566713Y-116294753D01*
X125181743Y-115365353D01*
X124811022Y-115144584D01*
X123115605Y-116840000D01*
X122756395Y-116840000D01*
X121060978Y-115144584D01*
X120690257Y-115365353D01*
X120296881Y-116337012D01*
X115407052Y-116337012D01*
X115406713Y-116294753D01*
X115021743Y-115365353D01*
X114651022Y-115144584D01*
X112955605Y-116840000D01*
X112596395Y-116840000D01*
X110900978Y-115144584D01*
X110530257Y-115365353D01*
X110505000Y-115427739D01*
X110505000Y-114964978D01*
X111080584Y-114964978D01*
X112776000Y-116660395D01*
X114471416Y-114964978D01*
X121240584Y-114964978D01*
X122936000Y-116660395D01*
X124631416Y-114964978D01*
X124410647Y-114594257D01*
X123438988Y-114200881D01*
X122390753Y-114209287D01*
X121461353Y-114594257D01*
X121240584Y-114964978D01*
X114471416Y-114964978D01*
X114250647Y-114594257D01*
X113278988Y-114200881D01*
X112230753Y-114209287D01*
X111301353Y-114594257D01*
X111080584Y-114964978D01*
X110505000Y-114964978D01*
X110505000Y-112201034D01*
X115628614Y-112201034D01*
X115966940Y-113019846D01*
X116592858Y-113646858D01*
X117411079Y-113986613D01*
X118297034Y-113987386D01*
X119115846Y-113649060D01*
X119742858Y-113023142D01*
X120082613Y-112204921D01*
X120083386Y-111318966D01*
X119745060Y-110500154D01*
X119119142Y-109873142D01*
X118300921Y-109533387D01*
X117414966Y-109532614D01*
X116596154Y-109870940D01*
X115969142Y-110496858D01*
X115629387Y-111315079D01*
X115628614Y-112201034D01*
X110505000Y-112201034D01*
X110505000Y-108555022D01*
X111080584Y-108555022D01*
X111301353Y-108925743D01*
X112273012Y-109319119D01*
X113321247Y-109310713D01*
X114250647Y-108925743D01*
X114471416Y-108555022D01*
X121240584Y-108555022D01*
X121461353Y-108925743D01*
X122433012Y-109319119D01*
X123481247Y-109310713D01*
X124410647Y-108925743D01*
X124631416Y-108555022D01*
X122936000Y-106859605D01*
X121240584Y-108555022D01*
X114471416Y-108555022D01*
X112776000Y-106859605D01*
X111080584Y-108555022D01*
X110505000Y-108555022D01*
X110505000Y-108093671D01*
X110530257Y-108154647D01*
X110900978Y-108375416D01*
X112596395Y-106680000D01*
X112955605Y-106680000D01*
X114651022Y-108375416D01*
X115021743Y-108154647D01*
X115415119Y-107182988D01*
X115407052Y-106177012D01*
X120296881Y-106177012D01*
X120305287Y-107225247D01*
X120690257Y-108154647D01*
X121060978Y-108375416D01*
X122756395Y-106680000D01*
X123115605Y-106680000D01*
X124811022Y-108375416D01*
X125181743Y-108154647D01*
X125575119Y-107182988D01*
X125566713Y-106134753D01*
X125181743Y-105205353D01*
X124811022Y-104984584D01*
X123115605Y-106680000D01*
X122756395Y-106680000D01*
X121060978Y-104984584D01*
X120690257Y-105205353D01*
X120296881Y-106177012D01*
X115407052Y-106177012D01*
X115406713Y-106134753D01*
X115021743Y-105205353D01*
X114651022Y-104984584D01*
X112955605Y-106680000D01*
X112596395Y-106680000D01*
X110900978Y-104984584D01*
X110530257Y-105205353D01*
X110505000Y-105267739D01*
X110505000Y-104804978D01*
X111080584Y-104804978D01*
X112776000Y-106500395D01*
X114471416Y-104804978D01*
X121240584Y-104804978D01*
X122936000Y-106500395D01*
X124631416Y-104804978D01*
X124410647Y-104434257D01*
X123438988Y-104040881D01*
X122390753Y-104049287D01*
X121461353Y-104434257D01*
X121240584Y-104804978D01*
X114471416Y-104804978D01*
X114250647Y-104434257D01*
X113278988Y-104040881D01*
X112230753Y-104049287D01*
X111301353Y-104434257D01*
X111080584Y-104804978D01*
X110505000Y-104804978D01*
X110505000Y-99517387D01*
X116574822Y-99517387D01*
X116730844Y-99894989D01*
X117019492Y-100184140D01*
X117396821Y-100340821D01*
X117805387Y-100341178D01*
X118110285Y-100215197D01*
X118412821Y-100340821D01*
X118821387Y-100341178D01*
X119198989Y-100185156D01*
X119488140Y-99896508D01*
X119644821Y-99519179D01*
X119644845Y-99492065D01*
X121760455Y-97376455D01*
X121945145Y-97100047D01*
X122010000Y-96774000D01*
X122010000Y-83820000D01*
X125773000Y-83820000D01*
X125866400Y-84289553D01*
X126132380Y-84687620D01*
X126530447Y-84953600D01*
X127000000Y-85047000D01*
X128523760Y-85047000D01*
X136187000Y-92710240D01*
X136187000Y-104140000D01*
X136280400Y-104609553D01*
X136546380Y-105007620D01*
X136944447Y-105273600D01*
X137414000Y-105367000D01*
X137883553Y-105273600D01*
X138281620Y-105007620D01*
X138547600Y-104609553D01*
X138641000Y-104140000D01*
X138641000Y-92202000D01*
X138547600Y-91732447D01*
X138281620Y-91334380D01*
X132291000Y-85343760D01*
X132291000Y-84836240D01*
X138281620Y-78845620D01*
X138281620Y-78845619D01*
X138453593Y-78673947D01*
X138453806Y-78673434D01*
X140059620Y-77067620D01*
X140325601Y-76669552D01*
X140419000Y-76200000D01*
X140325601Y-75730448D01*
X140059620Y-75332380D01*
X139661552Y-75066399D01*
X139192000Y-74973000D01*
X138722448Y-75066399D01*
X138324380Y-75332380D01*
X136546380Y-77110380D01*
X136374407Y-77282053D01*
X136374194Y-77282566D01*
X130302000Y-83354760D01*
X129899620Y-82952380D01*
X129501553Y-82686400D01*
X129032000Y-82593000D01*
X127000000Y-82593000D01*
X126530447Y-82686400D01*
X126132380Y-82952380D01*
X125866400Y-83350447D01*
X125773000Y-83820000D01*
X122010000Y-83820000D01*
X122010000Y-73914000D01*
X121945145Y-73587954D01*
X121931082Y-73566907D01*
X121931178Y-73456613D01*
X121775156Y-73079011D01*
X121486508Y-72789860D01*
X121109179Y-72633179D01*
X120700613Y-72632822D01*
X120323011Y-72788844D01*
X120033860Y-73077492D01*
X119877179Y-73454821D01*
X119876822Y-73863387D01*
X120032844Y-74240989D01*
X120306000Y-74514621D01*
X120306000Y-80506921D01*
X120192613Y-80506822D01*
X119815011Y-80662844D01*
X119525860Y-80951492D01*
X119369179Y-81328821D01*
X119369155Y-81355935D01*
X117253545Y-83471545D01*
X117068855Y-83747954D01*
X117004000Y-84074000D01*
X117004000Y-98459825D01*
X116731860Y-98731492D01*
X116575179Y-99108821D01*
X116574822Y-99517387D01*
X110505000Y-99517387D01*
X110505000Y-71897000D01*
X144351362Y-71897000D01*
X144141998Y-72036893D01*
X144141998Y-72036893D01*
G37*
X144141998Y-72036893D02*
X143800147Y-72548508D01*
X143680105Y-73152000D01*
X143800147Y-73755492D01*
X144141998Y-74267107D01*
X144373811Y-74422000D01*
X144141998Y-74576893D01*
X143800147Y-75088508D01*
X143680105Y-75692000D01*
X143800147Y-76295492D01*
X144141998Y-76807107D01*
X144373811Y-76962000D01*
X144141998Y-77116893D01*
X143800147Y-77628508D01*
X143680105Y-78232000D01*
X143800147Y-78835492D01*
X144141998Y-79347107D01*
X144373811Y-79502000D01*
X144141998Y-79656893D01*
X143800147Y-80168508D01*
X143680105Y-80772000D01*
X143800147Y-81375492D01*
X144141998Y-81887107D01*
X144373811Y-82042000D01*
X144141998Y-82196893D01*
X143800147Y-82708508D01*
X143680105Y-83312000D01*
X143800147Y-83915492D01*
X144141998Y-84427107D01*
X144453118Y-84634991D01*
X144406642Y-84656817D01*
X144016355Y-85085076D01*
X143846524Y-85495110D01*
X143967845Y-85725000D01*
X145161000Y-85725000D01*
X145161000Y-85705000D01*
X145415000Y-85705000D01*
X145415000Y-85725000D01*
X145435000Y-85725000D01*
X145435000Y-85979000D01*
X145415000Y-85979000D01*
X145415000Y-85999000D01*
X145161000Y-85999000D01*
X145161000Y-85979000D01*
X143967845Y-85979000D01*
X143846524Y-86208890D01*
X144016355Y-86618924D01*
X144406642Y-87047183D01*
X144453118Y-87069009D01*
X144141998Y-87276893D01*
X143800147Y-87788508D01*
X143680105Y-88392000D01*
X143800147Y-88995492D01*
X144141998Y-89507107D01*
X144373811Y-89662000D01*
X144141998Y-89816893D01*
X143800147Y-90328508D01*
X143680105Y-90932000D01*
X143800147Y-91535492D01*
X144141998Y-92047107D01*
X144373811Y-92202000D01*
X144141998Y-92356893D01*
X143800147Y-92868508D01*
X143680105Y-93472000D01*
X143800147Y-94075492D01*
X144141998Y-94587107D01*
X144373811Y-94742000D01*
X144141998Y-94896893D01*
X143800147Y-95408508D01*
X143680105Y-96012000D01*
X143800147Y-96615492D01*
X144141998Y-97127107D01*
X144373811Y-97282000D01*
X144141998Y-97436893D01*
X143800147Y-97948508D01*
X143680105Y-98552000D01*
X143800147Y-99155492D01*
X144141998Y-99667107D01*
X144373811Y-99822000D01*
X144141998Y-99976893D01*
X143800147Y-100488508D01*
X143680105Y-101092000D01*
X143800147Y-101695492D01*
X144141998Y-102207107D01*
X144373811Y-102362000D01*
X144141998Y-102516893D01*
X143800147Y-103028508D01*
X143680105Y-103632000D01*
X143800147Y-104235492D01*
X144141998Y-104747107D01*
X144373811Y-104902000D01*
X144141998Y-105056893D01*
X143800147Y-105568508D01*
X143680105Y-106172000D01*
X143800147Y-106775492D01*
X144141998Y-107287107D01*
X144453118Y-107494991D01*
X144406642Y-107516817D01*
X144016355Y-107945076D01*
X143846524Y-108355110D01*
X143967845Y-108585000D01*
X145161000Y-108585000D01*
X145161000Y-108565000D01*
X145415000Y-108565000D01*
X145415000Y-108585000D01*
X145435000Y-108585000D01*
X145435000Y-108839000D01*
X145415000Y-108839000D01*
X145415000Y-108859000D01*
X145161000Y-108859000D01*
X145161000Y-108839000D01*
X143967845Y-108839000D01*
X143846524Y-109068890D01*
X144016355Y-109478924D01*
X144406642Y-109907183D01*
X144453118Y-109929009D01*
X144141998Y-110136893D01*
X143800147Y-110648508D01*
X143680105Y-111252000D01*
X143800147Y-111855492D01*
X144141998Y-112367107D01*
X144373811Y-112522000D01*
X144141998Y-112676893D01*
X143800147Y-113188508D01*
X143680105Y-113792000D01*
X143800147Y-114395492D01*
X144141998Y-114907107D01*
X144373811Y-115062000D01*
X144141998Y-115216893D01*
X143800147Y-115728508D01*
X143680105Y-116332000D01*
X143800147Y-116935492D01*
X144141998Y-117447107D01*
X144373811Y-117602000D01*
X144141998Y-117756893D01*
X143800147Y-118268508D01*
X143680105Y-118872000D01*
X143800147Y-119475492D01*
X144141998Y-119987107D01*
X144373811Y-120142000D01*
X144141998Y-120296893D01*
X143800147Y-120808508D01*
X143680105Y-121412000D01*
X143800147Y-122015492D01*
X144141998Y-122527107D01*
X144653613Y-122868958D01*
X145257105Y-122989000D01*
X145318895Y-122989000D01*
X145922387Y-122868958D01*
X146329580Y-122596880D01*
X146446672Y-122778846D01*
X146689615Y-122944843D01*
X146978000Y-123003242D01*
X148678000Y-123003242D01*
X148947410Y-122952549D01*
X149194846Y-122793328D01*
X149360843Y-122550385D01*
X149419242Y-122262000D01*
X149419242Y-121768890D01*
X153244524Y-121768890D01*
X153414355Y-122178924D01*
X153804642Y-122607183D01*
X154329108Y-122853486D01*
X154559000Y-122732819D01*
X154559000Y-121539000D01*
X154813000Y-121539000D01*
X154813000Y-122732819D01*
X155042892Y-122853486D01*
X155567358Y-122607183D01*
X155956000Y-122180729D01*
X156344642Y-122607183D01*
X156869108Y-122853486D01*
X157099000Y-122732819D01*
X157099000Y-121539000D01*
X157353000Y-121539000D01*
X157353000Y-122732819D01*
X157582892Y-122853486D01*
X158107358Y-122607183D01*
X158497645Y-122178924D01*
X158667476Y-121768890D01*
X158546155Y-121539000D01*
X157353000Y-121539000D01*
X157099000Y-121539000D01*
X154813000Y-121539000D01*
X154559000Y-121539000D01*
X153365845Y-121539000D01*
X153244524Y-121768890D01*
X149419242Y-121768890D01*
X149419242Y-120562000D01*
X149368549Y-120292590D01*
X149209328Y-120045154D01*
X149021136Y-119916567D01*
X149315853Y-119475492D01*
X149317698Y-119466217D01*
X149500380Y-119739620D01*
X149898447Y-120005600D01*
X150368000Y-120099000D01*
X150837553Y-120005600D01*
X151235620Y-119739620D01*
X151501600Y-119341553D01*
X151595000Y-118872000D01*
X151595000Y-107188000D01*
X151501600Y-106718447D01*
X151235620Y-106320380D01*
X150837553Y-106054400D01*
X150368000Y-105961000D01*
X149898447Y-106054400D01*
X149500380Y-106320380D01*
X149366536Y-106520692D01*
X149435895Y-106172000D01*
X149315853Y-105568508D01*
X148974002Y-105056893D01*
X148742189Y-104902000D01*
X148974002Y-104747107D01*
X149315853Y-104235492D01*
X149435895Y-103632000D01*
X149315853Y-103028508D01*
X148974002Y-102516893D01*
X148742189Y-102362000D01*
X148974002Y-102207107D01*
X149315853Y-101695492D01*
X149435895Y-101092000D01*
X149315853Y-100488508D01*
X148974002Y-99976893D01*
X148742189Y-99822000D01*
X148974002Y-99667107D01*
X149315853Y-99155492D01*
X149435895Y-98552000D01*
X149315853Y-97948508D01*
X148974002Y-97436893D01*
X148742189Y-97282000D01*
X148974002Y-97127107D01*
X149315853Y-96615492D01*
X149435895Y-96012000D01*
X149315853Y-95408508D01*
X148974002Y-94896893D01*
X148742189Y-94742000D01*
X148974002Y-94587107D01*
X149315853Y-94075492D01*
X149435895Y-93472000D01*
X149315853Y-92868508D01*
X148974002Y-92356893D01*
X148742189Y-92202000D01*
X148974002Y-92047107D01*
X149315853Y-91535492D01*
X149364905Y-91288890D01*
X153244524Y-91288890D01*
X153414355Y-91698924D01*
X153804642Y-92127183D01*
X153963954Y-92202000D01*
X153804642Y-92276817D01*
X153414355Y-92705076D01*
X153244524Y-93115110D01*
X153365845Y-93345000D01*
X154559000Y-93345000D01*
X154559000Y-91059000D01*
X153365845Y-91059000D01*
X153244524Y-91288890D01*
X149364905Y-91288890D01*
X149435895Y-90932000D01*
X149315853Y-90328508D01*
X148974002Y-89816893D01*
X148742189Y-89662000D01*
X148974002Y-89507107D01*
X149315853Y-88995492D01*
X149364905Y-88748890D01*
X153244524Y-88748890D01*
X153414355Y-89158924D01*
X153804642Y-89587183D01*
X153963954Y-89662000D01*
X153804642Y-89736817D01*
X153414355Y-90165076D01*
X153244524Y-90575110D01*
X153365845Y-90805000D01*
X154559000Y-90805000D01*
X154559000Y-88519000D01*
X153365845Y-88519000D01*
X153244524Y-88748890D01*
X149364905Y-88748890D01*
X149435895Y-88392000D01*
X149315853Y-87788508D01*
X148974002Y-87276893D01*
X148742189Y-87122000D01*
X148974002Y-86967107D01*
X149315853Y-86455492D01*
X149435895Y-85852000D01*
X149315853Y-85248508D01*
X148974002Y-84736893D01*
X148742189Y-84582000D01*
X148974002Y-84427107D01*
X149315853Y-83915492D01*
X149435895Y-83312000D01*
X149315853Y-82708508D01*
X148974002Y-82196893D01*
X148742189Y-82042000D01*
X148974002Y-81887107D01*
X149315853Y-81375492D01*
X149435895Y-80772000D01*
X149315853Y-80168508D01*
X148974002Y-79656893D01*
X148742189Y-79502000D01*
X148974002Y-79347107D01*
X149315853Y-78835492D01*
X149435895Y-78232000D01*
X149315853Y-77628508D01*
X148974002Y-77116893D01*
X148742189Y-76962000D01*
X148974002Y-76807107D01*
X149315853Y-76295492D01*
X149435895Y-75692000D01*
X149315853Y-75088508D01*
X148974002Y-74576893D01*
X148742189Y-74422000D01*
X148974002Y-74267107D01*
X149315853Y-73755492D01*
X149435895Y-73152000D01*
X149315853Y-72548508D01*
X148974002Y-72036893D01*
X148764638Y-71897000D01*
X153232837Y-71897000D01*
X153153157Y-72013615D01*
X153094758Y-72302000D01*
X153094758Y-74002000D01*
X153145451Y-74271410D01*
X153304672Y-74518846D01*
X153492864Y-74647433D01*
X153198147Y-75088508D01*
X153078105Y-75692000D01*
X153198147Y-76295492D01*
X153539998Y-76807107D01*
X153771811Y-76962000D01*
X153539998Y-77116893D01*
X153198147Y-77628508D01*
X153078105Y-78232000D01*
X153198147Y-78835492D01*
X153539998Y-79347107D01*
X153771811Y-79502000D01*
X153539998Y-79656893D01*
X153198147Y-80168508D01*
X153078105Y-80772000D01*
X153198147Y-81375492D01*
X153539998Y-81887107D01*
X153771811Y-82042000D01*
X153539998Y-82196893D01*
X153198147Y-82708508D01*
X153078105Y-83312000D01*
X153198147Y-83915492D01*
X153539998Y-84427107D01*
X153771811Y-84582000D01*
X153539998Y-84736893D01*
X153198147Y-85248508D01*
X153078105Y-85852000D01*
X153198147Y-86455492D01*
X153539998Y-86967107D01*
X153851118Y-87174991D01*
X153804642Y-87196817D01*
X153414355Y-87625076D01*
X153244524Y-88035110D01*
X153365845Y-88265000D01*
X154559000Y-88265000D01*
X154559000Y-88245000D01*
X154813000Y-88245000D01*
X154813000Y-88265000D01*
X154833000Y-88265000D01*
X154833000Y-88519000D01*
X154813000Y-88519000D01*
X154813000Y-90805000D01*
X154833000Y-90805000D01*
X154833000Y-91059000D01*
X154813000Y-91059000D01*
X154813000Y-93345000D01*
X154833000Y-93345000D01*
X154833000Y-93599000D01*
X154813000Y-93599000D01*
X154813000Y-93619000D01*
X154559000Y-93619000D01*
X154559000Y-93599000D01*
X153365845Y-93599000D01*
X153244524Y-93828890D01*
X153414355Y-94238924D01*
X153804642Y-94667183D01*
X153851118Y-94689009D01*
X153539998Y-94896893D01*
X153198147Y-95408508D01*
X153078105Y-96012000D01*
X153198147Y-96615492D01*
X153539998Y-97127107D01*
X153771811Y-97282000D01*
X153539998Y-97436893D01*
X153198147Y-97948508D01*
X153078105Y-98552000D01*
X153198147Y-99155492D01*
X153539998Y-99667107D01*
X153771811Y-99822000D01*
X153539998Y-99976893D01*
X153198147Y-100488508D01*
X153078105Y-101092000D01*
X153198147Y-101695492D01*
X153539998Y-102207107D01*
X153771811Y-102362000D01*
X153539998Y-102516893D01*
X153198147Y-103028508D01*
X153078105Y-103632000D01*
X153198147Y-104235492D01*
X153539998Y-104747107D01*
X153771811Y-104902000D01*
X153539998Y-105056893D01*
X153198147Y-105568508D01*
X153078105Y-106172000D01*
X153198147Y-106775492D01*
X153539998Y-107287107D01*
X153851118Y-107494991D01*
X153804642Y-107516817D01*
X153414355Y-107945076D01*
X153244524Y-108355110D01*
X153365845Y-108585000D01*
X154559000Y-108585000D01*
X154559000Y-108565000D01*
X154813000Y-108565000D01*
X154813000Y-108585000D01*
X154833000Y-108585000D01*
X154833000Y-108839000D01*
X154813000Y-108839000D01*
X154813000Y-108859000D01*
X154559000Y-108859000D01*
X154559000Y-108839000D01*
X153365845Y-108839000D01*
X153244524Y-109068890D01*
X153414355Y-109478924D01*
X153804642Y-109907183D01*
X153851118Y-109929009D01*
X153539998Y-110136893D01*
X153198147Y-110648508D01*
X153078105Y-111252000D01*
X153198147Y-111855492D01*
X153539998Y-112367107D01*
X153771811Y-112522000D01*
X153539998Y-112676893D01*
X153198147Y-113188508D01*
X153078105Y-113792000D01*
X153198147Y-114395492D01*
X153539998Y-114907107D01*
X153771811Y-115062000D01*
X153539998Y-115216893D01*
X153198147Y-115728508D01*
X153078105Y-116332000D01*
X153198147Y-116935492D01*
X153539998Y-117447107D01*
X153771811Y-117602000D01*
X153539998Y-117756893D01*
X153198147Y-118268508D01*
X153078105Y-118872000D01*
X153198147Y-119475492D01*
X153539998Y-119987107D01*
X153851118Y-120194991D01*
X153804642Y-120216817D01*
X153414355Y-120645076D01*
X153244524Y-121055110D01*
X153365845Y-121285000D01*
X154559000Y-121285000D01*
X154559000Y-121265000D01*
X154813000Y-121265000D01*
X154813000Y-121285000D01*
X157099000Y-121285000D01*
X157099000Y-121265000D01*
X157353000Y-121265000D01*
X157353000Y-121285000D01*
X158546155Y-121285000D01*
X158667476Y-121055110D01*
X158497645Y-120645076D01*
X158107358Y-120216817D01*
X158060882Y-120194991D01*
X158372002Y-119987107D01*
X158713853Y-119475492D01*
X158833895Y-118872000D01*
X158713853Y-118268508D01*
X158372002Y-117756893D01*
X158140189Y-117602000D01*
X158372002Y-117447107D01*
X158713853Y-116935492D01*
X158833895Y-116332000D01*
X158713853Y-115728508D01*
X158372002Y-115216893D01*
X158140189Y-115062000D01*
X158372002Y-114907107D01*
X158713853Y-114395492D01*
X158833895Y-113792000D01*
X158713853Y-113188508D01*
X158372002Y-112676893D01*
X158140189Y-112522000D01*
X158372002Y-112367107D01*
X158713853Y-111855492D01*
X158833895Y-111252000D01*
X158713853Y-110648508D01*
X158372002Y-110136893D01*
X158140189Y-109982000D01*
X158372002Y-109827107D01*
X158713853Y-109315492D01*
X158833895Y-108712000D01*
X158713853Y-108108508D01*
X158372002Y-107596893D01*
X158140189Y-107442000D01*
X158372002Y-107287107D01*
X158713853Y-106775492D01*
X158833895Y-106172000D01*
X158713853Y-105568508D01*
X158372002Y-105056893D01*
X158140189Y-104902000D01*
X158372002Y-104747107D01*
X158713853Y-104235492D01*
X158833895Y-103632000D01*
X158713853Y-103028508D01*
X158372002Y-102516893D01*
X158140189Y-102362000D01*
X158372002Y-102207107D01*
X158713853Y-101695492D01*
X158833895Y-101092000D01*
X158713853Y-100488508D01*
X158372002Y-99976893D01*
X158140189Y-99822000D01*
X158372002Y-99667107D01*
X158713853Y-99155492D01*
X158833895Y-98552000D01*
X158713853Y-97948508D01*
X158372002Y-97436893D01*
X158140189Y-97282000D01*
X158372002Y-97127107D01*
X158713853Y-96615492D01*
X158833895Y-96012000D01*
X158713853Y-95408508D01*
X158372002Y-94896893D01*
X158140189Y-94742000D01*
X158372002Y-94587107D01*
X158713853Y-94075492D01*
X158833895Y-93472000D01*
X158713853Y-92868508D01*
X158372002Y-92356893D01*
X158140189Y-92202000D01*
X158372002Y-92047107D01*
X158713853Y-91535492D01*
X158833895Y-90932000D01*
X158713853Y-90328508D01*
X158372002Y-89816893D01*
X158140189Y-89662000D01*
X158372002Y-89507107D01*
X158713853Y-88995492D01*
X158833895Y-88392000D01*
X158713853Y-87788508D01*
X158372002Y-87276893D01*
X158140189Y-87122000D01*
X158372002Y-86967107D01*
X158713853Y-86455492D01*
X158833895Y-85852000D01*
X158713853Y-85248508D01*
X158372002Y-84736893D01*
X158140189Y-84582000D01*
X158372002Y-84427107D01*
X158713853Y-83915492D01*
X158833895Y-83312000D01*
X158713853Y-82708508D01*
X158372002Y-82196893D01*
X158140189Y-82042000D01*
X158372002Y-81887107D01*
X158713853Y-81375492D01*
X158833895Y-80772000D01*
X158713853Y-80168508D01*
X158372002Y-79656893D01*
X158140189Y-79502000D01*
X158372002Y-79347107D01*
X158713853Y-78835492D01*
X158833895Y-78232000D01*
X158713853Y-77628508D01*
X158372002Y-77116893D01*
X158140189Y-76962000D01*
X158372002Y-76807107D01*
X158713853Y-76295492D01*
X158833895Y-75692000D01*
X158713853Y-75088508D01*
X158372002Y-74576893D01*
X158140189Y-74422000D01*
X158372002Y-74267107D01*
X158713853Y-73755492D01*
X158833895Y-73152000D01*
X158713853Y-72548508D01*
X158372002Y-72036893D01*
X158162638Y-71897000D01*
X187141837Y-71897000D01*
X187062157Y-72013615D01*
X187003758Y-72302000D01*
X187003758Y-74002000D01*
X187054451Y-74271410D01*
X187213672Y-74518846D01*
X187401864Y-74647433D01*
X187107147Y-75088508D01*
X186987105Y-75692000D01*
X187107147Y-76295492D01*
X187448998Y-76807107D01*
X187680811Y-76962000D01*
X187448998Y-77116893D01*
X187107147Y-77628508D01*
X186987105Y-78232000D01*
X187107147Y-78835492D01*
X187448998Y-79347107D01*
X187680811Y-79502000D01*
X187448998Y-79656893D01*
X187107147Y-80168508D01*
X186987105Y-80772000D01*
X187107147Y-81375492D01*
X187448998Y-81887107D01*
X187680811Y-82042000D01*
X187448998Y-82196893D01*
X187107147Y-82708508D01*
X186987105Y-83312000D01*
X187107147Y-83915492D01*
X187448998Y-84427107D01*
X187680811Y-84582000D01*
X187448998Y-84736893D01*
X187107147Y-85248508D01*
X186987105Y-85852000D01*
X187107147Y-86455492D01*
X187448998Y-86967107D01*
X187680811Y-87122000D01*
X187448998Y-87276893D01*
X187107147Y-87788508D01*
X186987105Y-88392000D01*
X187107147Y-88995492D01*
X187448998Y-89507107D01*
X187680811Y-89662000D01*
X187448998Y-89816893D01*
X187107147Y-90328508D01*
X186987105Y-90932000D01*
X187107147Y-91535492D01*
X187448998Y-92047107D01*
X187680811Y-92202000D01*
X187448998Y-92356893D01*
X187107147Y-92868508D01*
X186987105Y-93472000D01*
X187107147Y-94075492D01*
X187448998Y-94587107D01*
X187680811Y-94742000D01*
X187448998Y-94896893D01*
X187107147Y-95408508D01*
X186987105Y-96012000D01*
X187107147Y-96615492D01*
X187448998Y-97127107D01*
X187680811Y-97282000D01*
X187448998Y-97436893D01*
X187107147Y-97948508D01*
X186987105Y-98552000D01*
X187107147Y-99155492D01*
X187448998Y-99667107D01*
X187680811Y-99822000D01*
X187448998Y-99976893D01*
X187107147Y-100488508D01*
X186987105Y-101092000D01*
X187107147Y-101695492D01*
X187448998Y-102207107D01*
X187680811Y-102362000D01*
X187448998Y-102516893D01*
X187107147Y-103028508D01*
X186987105Y-103632000D01*
X187107147Y-104235492D01*
X187448998Y-104747107D01*
X187680811Y-104902000D01*
X187448998Y-105056893D01*
X187107147Y-105568508D01*
X186987105Y-106172000D01*
X187107147Y-106775492D01*
X187448998Y-107287107D01*
X187680811Y-107442000D01*
X187448998Y-107596893D01*
X187107147Y-108108508D01*
X186987105Y-108712000D01*
X187107147Y-109315492D01*
X187448998Y-109827107D01*
X187680811Y-109982000D01*
X187448998Y-110136893D01*
X187107147Y-110648508D01*
X186987105Y-111252000D01*
X187107147Y-111855492D01*
X187448998Y-112367107D01*
X187680811Y-112522000D01*
X187448998Y-112676893D01*
X187107147Y-113188508D01*
X186987105Y-113792000D01*
X187107147Y-114395492D01*
X187448998Y-114907107D01*
X187680811Y-115062000D01*
X187448998Y-115216893D01*
X187107147Y-115728508D01*
X186987105Y-116332000D01*
X187107147Y-116935492D01*
X187448998Y-117447107D01*
X187680811Y-117602000D01*
X187448998Y-117756893D01*
X187107147Y-118268508D01*
X186987105Y-118872000D01*
X187107147Y-119475492D01*
X187448998Y-119987107D01*
X187680811Y-120142000D01*
X187448998Y-120296893D01*
X187107147Y-120808508D01*
X186987105Y-121412000D01*
X187107147Y-122015492D01*
X187448998Y-122527107D01*
X187960613Y-122868958D01*
X188564105Y-122989000D01*
X188625895Y-122989000D01*
X189229387Y-122868958D01*
X189741002Y-122527107D01*
X189865000Y-122341531D01*
X189988998Y-122527107D01*
X190500613Y-122868958D01*
X191104105Y-122989000D01*
X191165895Y-122989000D01*
X191769387Y-122868958D01*
X192281002Y-122527107D01*
X192622853Y-122015492D01*
X192742895Y-121412000D01*
X192622853Y-120808508D01*
X192281002Y-120296893D01*
X192049189Y-120142000D01*
X192281002Y-119987107D01*
X192622853Y-119475492D01*
X192742895Y-118872000D01*
X192622853Y-118268508D01*
X192281002Y-117756893D01*
X192049189Y-117602000D01*
X192281002Y-117447107D01*
X192622853Y-116935492D01*
X192742895Y-116332000D01*
X192622853Y-115728508D01*
X192281002Y-115216893D01*
X192049189Y-115062000D01*
X192281002Y-114907107D01*
X192622853Y-114395492D01*
X192742895Y-113792000D01*
X192622853Y-113188508D01*
X192281002Y-112676893D01*
X192049189Y-112522000D01*
X192281002Y-112367107D01*
X192622853Y-111855492D01*
X192742895Y-111252000D01*
X192622853Y-110648508D01*
X192281002Y-110136893D01*
X191969882Y-109929009D01*
X192016358Y-109907183D01*
X192406645Y-109478924D01*
X192576476Y-109068890D01*
X192455155Y-108839000D01*
X191262000Y-108839000D01*
X191262000Y-108859000D01*
X191008000Y-108859000D01*
X191008000Y-108839000D01*
X190988000Y-108839000D01*
X190988000Y-108585000D01*
X191008000Y-108585000D01*
X191008000Y-108565000D01*
X191262000Y-108565000D01*
X191262000Y-108585000D01*
X192455155Y-108585000D01*
X192576476Y-108355110D01*
X192406645Y-107945076D01*
X192016358Y-107516817D01*
X191969882Y-107494991D01*
X192281002Y-107287107D01*
X192622853Y-106775492D01*
X192742895Y-106172000D01*
X192622853Y-105568508D01*
X192281002Y-105056893D01*
X192049189Y-104902000D01*
X192281002Y-104747107D01*
X192622853Y-104235492D01*
X192742895Y-103632000D01*
X192622853Y-103028508D01*
X192281002Y-102516893D01*
X192049189Y-102362000D01*
X192281002Y-102207107D01*
X192622853Y-101695492D01*
X192742895Y-101092000D01*
X192622853Y-100488508D01*
X192281002Y-99976893D01*
X192049189Y-99822000D01*
X192281002Y-99667107D01*
X192622853Y-99155492D01*
X192742895Y-98552000D01*
X192622853Y-97948508D01*
X192281002Y-97436893D01*
X192049189Y-97282000D01*
X192281002Y-97127107D01*
X192622853Y-96615492D01*
X192742895Y-96012000D01*
X192622853Y-95408508D01*
X192281002Y-94896893D01*
X192049189Y-94742000D01*
X192281002Y-94587107D01*
X192622853Y-94075492D01*
X192742895Y-93472000D01*
X192622853Y-92868508D01*
X192281002Y-92356893D01*
X192049189Y-92202000D01*
X192281002Y-92047107D01*
X192622853Y-91535492D01*
X192742895Y-90932000D01*
X192622853Y-90328508D01*
X192281002Y-89816893D01*
X192049189Y-89662000D01*
X192281002Y-89507107D01*
X192622853Y-88995492D01*
X192742895Y-88392000D01*
X192622853Y-87788508D01*
X192281002Y-87276893D01*
X191969882Y-87069009D01*
X192016358Y-87047183D01*
X192406645Y-86618924D01*
X192576476Y-86208890D01*
X192455155Y-85979000D01*
X191262000Y-85979000D01*
X191262000Y-85999000D01*
X191008000Y-85999000D01*
X191008000Y-85979000D01*
X190988000Y-85979000D01*
X190988000Y-85725000D01*
X191008000Y-85725000D01*
X191008000Y-85705000D01*
X191262000Y-85705000D01*
X191262000Y-85725000D01*
X192455155Y-85725000D01*
X192576476Y-85495110D01*
X192406645Y-85085076D01*
X192016358Y-84656817D01*
X191969882Y-84634991D01*
X192281002Y-84427107D01*
X192622853Y-83915492D01*
X192742895Y-83312000D01*
X192622853Y-82708508D01*
X192281002Y-82196893D01*
X192049189Y-82042000D01*
X192281002Y-81887107D01*
X192622853Y-81375492D01*
X192742895Y-80772000D01*
X192622853Y-80168508D01*
X192281002Y-79656893D01*
X192049189Y-79502000D01*
X192281002Y-79347107D01*
X192622853Y-78835492D01*
X192742895Y-78232000D01*
X192622853Y-77628508D01*
X192281002Y-77116893D01*
X192049189Y-76962000D01*
X192281002Y-76807107D01*
X192622853Y-76295492D01*
X192742895Y-75692000D01*
X192622853Y-75088508D01*
X192281002Y-74576893D01*
X192049189Y-74422000D01*
X192281002Y-74267107D01*
X192622853Y-73755492D01*
X192742895Y-73152000D01*
X192622853Y-72548508D01*
X192281002Y-72036893D01*
X192071638Y-71897000D01*
X195396837Y-71897000D01*
X195317157Y-72013615D01*
X195258758Y-72302000D01*
X195258758Y-74002000D01*
X195309451Y-74271410D01*
X195468672Y-74518846D01*
X195490007Y-74533424D01*
X195364448Y-74558399D01*
X194966380Y-74824380D01*
X194204380Y-75586380D01*
X193938400Y-75984447D01*
X193845000Y-76454000D01*
X193845000Y-123190000D01*
X193938400Y-123659553D01*
X194204380Y-124057620D01*
X194602447Y-124323600D01*
X195072000Y-124417000D01*
X195541553Y-124323600D01*
X195939620Y-124057620D01*
X196205600Y-123659553D01*
X196299000Y-123190000D01*
X196299000Y-122885545D01*
X196819105Y-122989000D01*
X196880895Y-122989000D01*
X197484387Y-122868958D01*
X197996002Y-122527107D01*
X198120000Y-122341531D01*
X198243998Y-122527107D01*
X198755613Y-122868958D01*
X199359105Y-122989000D01*
X199420895Y-122989000D01*
X200024387Y-122868958D01*
X200391000Y-122623994D01*
X200391000Y-126223000D01*
X110505000Y-126223000D01*
X110505000Y-118715022D01*
X111080584Y-118715022D01*
X111301353Y-119085743D01*
X112273012Y-119479119D01*
X113321247Y-119470713D01*
X114250647Y-119085743D01*
X114471416Y-118715022D01*
X121240584Y-118715022D01*
X121461353Y-119085743D01*
X122433012Y-119479119D01*
X123481247Y-119470713D01*
X124410647Y-119085743D01*
X124631416Y-118715022D01*
X122936000Y-117019605D01*
X121240584Y-118715022D01*
X114471416Y-118715022D01*
X112776000Y-117019605D01*
X111080584Y-118715022D01*
X110505000Y-118715022D01*
X110505000Y-118253671D01*
X110530257Y-118314647D01*
X110900978Y-118535416D01*
X112596395Y-116840000D01*
X112955605Y-116840000D01*
X114651022Y-118535416D01*
X115021743Y-118314647D01*
X115415119Y-117342988D01*
X115407052Y-116337012D01*
X120296881Y-116337012D01*
X120305287Y-117385247D01*
X120690257Y-118314647D01*
X121060978Y-118535416D01*
X122756395Y-116840000D01*
X123115605Y-116840000D01*
X124811022Y-118535416D01*
X125181743Y-118314647D01*
X125575119Y-117342988D01*
X125566713Y-116294753D01*
X125181743Y-115365353D01*
X124811022Y-115144584D01*
X123115605Y-116840000D01*
X122756395Y-116840000D01*
X121060978Y-115144584D01*
X120690257Y-115365353D01*
X120296881Y-116337012D01*
X115407052Y-116337012D01*
X115406713Y-116294753D01*
X115021743Y-115365353D01*
X114651022Y-115144584D01*
X112955605Y-116840000D01*
X112596395Y-116840000D01*
X110900978Y-115144584D01*
X110530257Y-115365353D01*
X110505000Y-115427739D01*
X110505000Y-114964978D01*
X111080584Y-114964978D01*
X112776000Y-116660395D01*
X114471416Y-114964978D01*
X121240584Y-114964978D01*
X122936000Y-116660395D01*
X124631416Y-114964978D01*
X124410647Y-114594257D01*
X123438988Y-114200881D01*
X122390753Y-114209287D01*
X121461353Y-114594257D01*
X121240584Y-114964978D01*
X114471416Y-114964978D01*
X114250647Y-114594257D01*
X113278988Y-114200881D01*
X112230753Y-114209287D01*
X111301353Y-114594257D01*
X111080584Y-114964978D01*
X110505000Y-114964978D01*
X110505000Y-112201034D01*
X115628614Y-112201034D01*
X115966940Y-113019846D01*
X116592858Y-113646858D01*
X117411079Y-113986613D01*
X118297034Y-113987386D01*
X119115846Y-113649060D01*
X119742858Y-113023142D01*
X120082613Y-112204921D01*
X120083386Y-111318966D01*
X119745060Y-110500154D01*
X119119142Y-109873142D01*
X118300921Y-109533387D01*
X117414966Y-109532614D01*
X116596154Y-109870940D01*
X115969142Y-110496858D01*
X115629387Y-111315079D01*
X115628614Y-112201034D01*
X110505000Y-112201034D01*
X110505000Y-108555022D01*
X111080584Y-108555022D01*
X111301353Y-108925743D01*
X112273012Y-109319119D01*
X113321247Y-109310713D01*
X114250647Y-108925743D01*
X114471416Y-108555022D01*
X121240584Y-108555022D01*
X121461353Y-108925743D01*
X122433012Y-109319119D01*
X123481247Y-109310713D01*
X124410647Y-108925743D01*
X124631416Y-108555022D01*
X122936000Y-106859605D01*
X121240584Y-108555022D01*
X114471416Y-108555022D01*
X112776000Y-106859605D01*
X111080584Y-108555022D01*
X110505000Y-108555022D01*
X110505000Y-108093671D01*
X110530257Y-108154647D01*
X110900978Y-108375416D01*
X112596395Y-106680000D01*
X112955605Y-106680000D01*
X114651022Y-108375416D01*
X115021743Y-108154647D01*
X115415119Y-107182988D01*
X115407052Y-106177012D01*
X120296881Y-106177012D01*
X120305287Y-107225247D01*
X120690257Y-108154647D01*
X121060978Y-108375416D01*
X122756395Y-106680000D01*
X123115605Y-106680000D01*
X124811022Y-108375416D01*
X125181743Y-108154647D01*
X125575119Y-107182988D01*
X125566713Y-106134753D01*
X125181743Y-105205353D01*
X124811022Y-104984584D01*
X123115605Y-106680000D01*
X122756395Y-106680000D01*
X121060978Y-104984584D01*
X120690257Y-105205353D01*
X120296881Y-106177012D01*
X115407052Y-106177012D01*
X115406713Y-106134753D01*
X115021743Y-105205353D01*
X114651022Y-104984584D01*
X112955605Y-106680000D01*
X112596395Y-106680000D01*
X110900978Y-104984584D01*
X110530257Y-105205353D01*
X110505000Y-105267739D01*
X110505000Y-104804978D01*
X111080584Y-104804978D01*
X112776000Y-106500395D01*
X114471416Y-104804978D01*
X121240584Y-104804978D01*
X122936000Y-106500395D01*
X124631416Y-104804978D01*
X124410647Y-104434257D01*
X123438988Y-104040881D01*
X122390753Y-104049287D01*
X121461353Y-104434257D01*
X121240584Y-104804978D01*
X114471416Y-104804978D01*
X114250647Y-104434257D01*
X113278988Y-104040881D01*
X112230753Y-104049287D01*
X111301353Y-104434257D01*
X111080584Y-104804978D01*
X110505000Y-104804978D01*
X110505000Y-99517387D01*
X116574822Y-99517387D01*
X116730844Y-99894989D01*
X117019492Y-100184140D01*
X117396821Y-100340821D01*
X117805387Y-100341178D01*
X118110285Y-100215197D01*
X118412821Y-100340821D01*
X118821387Y-100341178D01*
X119198989Y-100185156D01*
X119488140Y-99896508D01*
X119644821Y-99519179D01*
X119644845Y-99492065D01*
X121760455Y-97376455D01*
X121945145Y-97100047D01*
X122010000Y-96774000D01*
X122010000Y-83820000D01*
X125773000Y-83820000D01*
X125866400Y-84289553D01*
X126132380Y-84687620D01*
X126530447Y-84953600D01*
X127000000Y-85047000D01*
X128523760Y-85047000D01*
X136187000Y-92710240D01*
X136187000Y-104140000D01*
X136280400Y-104609553D01*
X136546380Y-105007620D01*
X136944447Y-105273600D01*
X137414000Y-105367000D01*
X137883553Y-105273600D01*
X138281620Y-105007620D01*
X138547600Y-104609553D01*
X138641000Y-104140000D01*
X138641000Y-92202000D01*
X138547600Y-91732447D01*
X138281620Y-91334380D01*
X132291000Y-85343760D01*
X132291000Y-84836240D01*
X138281620Y-78845620D01*
X138281620Y-78845619D01*
X138453593Y-78673947D01*
X138453806Y-78673434D01*
X140059620Y-77067620D01*
X140325601Y-76669552D01*
X140419000Y-76200000D01*
X140325601Y-75730448D01*
X140059620Y-75332380D01*
X139661552Y-75066399D01*
X139192000Y-74973000D01*
X138722448Y-75066399D01*
X138324380Y-75332380D01*
X136546380Y-77110380D01*
X136374407Y-77282053D01*
X136374194Y-77282566D01*
X130302000Y-83354760D01*
X129899620Y-82952380D01*
X129501553Y-82686400D01*
X129032000Y-82593000D01*
X127000000Y-82593000D01*
X126530447Y-82686400D01*
X126132380Y-82952380D01*
X125866400Y-83350447D01*
X125773000Y-83820000D01*
X122010000Y-83820000D01*
X122010000Y-73914000D01*
X121945145Y-73587954D01*
X121931082Y-73566907D01*
X121931178Y-73456613D01*
X121775156Y-73079011D01*
X121486508Y-72789860D01*
X121109179Y-72633179D01*
X120700613Y-72632822D01*
X120323011Y-72788844D01*
X120033860Y-73077492D01*
X119877179Y-73454821D01*
X119876822Y-73863387D01*
X120032844Y-74240989D01*
X120306000Y-74514621D01*
X120306000Y-80506921D01*
X120192613Y-80506822D01*
X119815011Y-80662844D01*
X119525860Y-80951492D01*
X119369179Y-81328821D01*
X119369155Y-81355935D01*
X117253545Y-83471545D01*
X117068855Y-83747954D01*
X117004000Y-84074000D01*
X117004000Y-98459825D01*
X116731860Y-98731492D01*
X116575179Y-99108821D01*
X116574822Y-99517387D01*
X110505000Y-99517387D01*
X110505000Y-71897000D01*
X144351362Y-71897000D01*
X144141998Y-72036893D01*
G36*
X196977000Y-118745000D02*
X196997000Y-118745000D01*
X196997000Y-118999000D01*
X196977000Y-118999000D01*
X196977000Y-119019000D01*
X196723000Y-119019000D01*
X196723000Y-118999000D01*
X196703000Y-118999000D01*
X196703000Y-118745000D01*
X196723000Y-118745000D01*
X196723000Y-118725000D01*
X196977000Y-118725000D01*
X196977000Y-118745000D01*
X196977000Y-118745000D01*
G37*
X196977000Y-118745000D02*
X196997000Y-118745000D01*
X196997000Y-118999000D01*
X196977000Y-118999000D01*
X196977000Y-119019000D01*
X196723000Y-119019000D01*
X196723000Y-118999000D01*
X196703000Y-118999000D01*
X196703000Y-118745000D01*
X196723000Y-118745000D01*
X196723000Y-118725000D01*
X196977000Y-118725000D01*
X196977000Y-118745000D01*
G36*
X196977000Y-113665000D02*
X196997000Y-113665000D01*
X196997000Y-113919000D01*
X196977000Y-113919000D01*
X196977000Y-113939000D01*
X196723000Y-113939000D01*
X196723000Y-113919000D01*
X196703000Y-113919000D01*
X196703000Y-113665000D01*
X196723000Y-113665000D01*
X196723000Y-113645000D01*
X196977000Y-113645000D01*
X196977000Y-113665000D01*
X196977000Y-113665000D01*
G37*
X196977000Y-113665000D02*
X196997000Y-113665000D01*
X196997000Y-113919000D01*
X196977000Y-113919000D01*
X196977000Y-113939000D01*
X196723000Y-113939000D01*
X196723000Y-113919000D01*
X196703000Y-113919000D01*
X196703000Y-113665000D01*
X196723000Y-113665000D01*
X196723000Y-113645000D01*
X196977000Y-113645000D01*
X196977000Y-113665000D01*
G36*
X199517000Y-78105000D02*
X199537000Y-78105000D01*
X199537000Y-78359000D01*
X199517000Y-78359000D01*
X199517000Y-78379000D01*
X199263000Y-78379000D01*
X199263000Y-78359000D01*
X199243000Y-78359000D01*
X199243000Y-78105000D01*
X199263000Y-78105000D01*
X199263000Y-78085000D01*
X199517000Y-78085000D01*
X199517000Y-78105000D01*
X199517000Y-78105000D01*
G37*
X199517000Y-78105000D02*
X199537000Y-78105000D01*
X199537000Y-78359000D01*
X199517000Y-78359000D01*
X199517000Y-78379000D01*
X199263000Y-78379000D01*
X199263000Y-78359000D01*
X199243000Y-78359000D01*
X199243000Y-78105000D01*
X199263000Y-78105000D01*
X199263000Y-78085000D01*
X199517000Y-78085000D01*
X199517000Y-78105000D01*
M02*
