G04 #@! TF.FileFunction,Legend,Bot*
%FSLAX46Y46*%
G04 Gerber Fmt 4.6, Leading zero omitted, Abs format (unit mm)*
G04 Created by KiCad (PCBNEW 4.0.6) date 11/14/17 10:00:56*
%MOMM*%
%LPD*%
G01*
G04 APERTURE LIST*
%ADD10C,0.100000*%
%ADD11C,0.500000*%
%ADD12C,0.120000*%
%ADD13C,0.150000*%
G04 APERTURE END LIST*
D10*
D11*
X166840952Y-70250238D02*
X164340952Y-70250238D01*
X166840952Y-71321667D02*
X165531429Y-71321667D01*
X165293333Y-71202619D01*
X165174286Y-70964524D01*
X165174286Y-70607381D01*
X165293333Y-70369286D01*
X165412381Y-70250238D01*
X165174286Y-72155000D02*
X165174286Y-73107381D01*
X164340952Y-72512143D02*
X166483810Y-72512143D01*
X166721905Y-72631191D01*
X166840952Y-72869286D01*
X166840952Y-73107381D01*
X165174286Y-73583571D02*
X165174286Y-74535952D01*
X164340952Y-73940714D02*
X166483810Y-73940714D01*
X166721905Y-74059762D01*
X166840952Y-74297857D01*
X166840952Y-74535952D01*
X165174286Y-75369285D02*
X167674286Y-75369285D01*
X165293333Y-75369285D02*
X165174286Y-75607380D01*
X165174286Y-76083571D01*
X165293333Y-76321666D01*
X165412381Y-76440714D01*
X165650476Y-76559761D01*
X166364762Y-76559761D01*
X166602857Y-76440714D01*
X166721905Y-76321666D01*
X166840952Y-76083571D01*
X166840952Y-75607380D01*
X166721905Y-75369285D01*
X166602857Y-77631190D02*
X166721905Y-77750238D01*
X166840952Y-77631190D01*
X166721905Y-77512142D01*
X166602857Y-77631190D01*
X166840952Y-77631190D01*
X165293333Y-77631190D02*
X165412381Y-77750238D01*
X165531429Y-77631190D01*
X165412381Y-77512142D01*
X165293333Y-77631190D01*
X165531429Y-77631190D01*
X164221905Y-80607380D02*
X167436190Y-78464523D01*
X164221905Y-83226428D02*
X167436190Y-81083571D01*
X165174286Y-83821667D02*
X166840952Y-84297857D01*
X165650476Y-84774048D01*
X166840952Y-85250238D01*
X165174286Y-85726429D01*
X165174286Y-86440715D02*
X166840952Y-86916905D01*
X165650476Y-87393096D01*
X166840952Y-87869286D01*
X165174286Y-88345477D01*
X165174286Y-89059763D02*
X166840952Y-89535953D01*
X165650476Y-90012144D01*
X166840952Y-90488334D01*
X165174286Y-90964525D01*
X166602857Y-91916906D02*
X166721905Y-92035954D01*
X166840952Y-91916906D01*
X166721905Y-91797858D01*
X166602857Y-91916906D01*
X166840952Y-91916906D01*
X166840952Y-94178811D02*
X164340952Y-94178811D01*
X166721905Y-94178811D02*
X166840952Y-93940715D01*
X166840952Y-93464525D01*
X166721905Y-93226430D01*
X166602857Y-93107382D01*
X166364762Y-92988334D01*
X165650476Y-92988334D01*
X165412381Y-93107382D01*
X165293333Y-93226430D01*
X165174286Y-93464525D01*
X165174286Y-93940715D01*
X165293333Y-94178811D01*
X166840952Y-95726430D02*
X166721905Y-95488335D01*
X166602857Y-95369287D01*
X166364762Y-95250239D01*
X165650476Y-95250239D01*
X165412381Y-95369287D01*
X165293333Y-95488335D01*
X165174286Y-95726430D01*
X165174286Y-96083573D01*
X165293333Y-96321668D01*
X165412381Y-96440716D01*
X165650476Y-96559763D01*
X166364762Y-96559763D01*
X166602857Y-96440716D01*
X166721905Y-96321668D01*
X166840952Y-96083573D01*
X166840952Y-95726430D01*
X166840952Y-97631192D02*
X165174286Y-97631192D01*
X165412381Y-97631192D02*
X165293333Y-97750240D01*
X165174286Y-97988335D01*
X165174286Y-98345478D01*
X165293333Y-98583573D01*
X165531429Y-98702621D01*
X166840952Y-98702621D01*
X165531429Y-98702621D02*
X165293333Y-98821668D01*
X165174286Y-99059764D01*
X165174286Y-99416906D01*
X165293333Y-99655002D01*
X165531429Y-99774049D01*
X166840952Y-99774049D01*
X166721905Y-101916906D02*
X166840952Y-101678811D01*
X166840952Y-101202620D01*
X166721905Y-100964525D01*
X166483810Y-100845477D01*
X165531429Y-100845477D01*
X165293333Y-100964525D01*
X165174286Y-101202620D01*
X165174286Y-101678811D01*
X165293333Y-101916906D01*
X165531429Y-102035954D01*
X165769524Y-102035954D01*
X166007619Y-100845477D01*
X166721905Y-102988334D02*
X166840952Y-103226430D01*
X166840952Y-103702620D01*
X166721905Y-103940715D01*
X166483810Y-104059763D01*
X166364762Y-104059763D01*
X166126667Y-103940715D01*
X166007619Y-103702620D01*
X166007619Y-103345477D01*
X165888571Y-103107382D01*
X165650476Y-102988334D01*
X165531429Y-102988334D01*
X165293333Y-103107382D01*
X165174286Y-103345477D01*
X165174286Y-103702620D01*
X165293333Y-103940715D01*
X166840952Y-106202621D02*
X164340952Y-106202621D01*
X166721905Y-106202621D02*
X166840952Y-105964525D01*
X166840952Y-105488335D01*
X166721905Y-105250240D01*
X166602857Y-105131192D01*
X166364762Y-105012144D01*
X165650476Y-105012144D01*
X165412381Y-105131192D01*
X165293333Y-105250240D01*
X165174286Y-105488335D01*
X165174286Y-105964525D01*
X165293333Y-106202621D01*
X166840952Y-108464526D02*
X165531429Y-108464526D01*
X165293333Y-108345478D01*
X165174286Y-108107383D01*
X165174286Y-107631192D01*
X165293333Y-107393097D01*
X166721905Y-108464526D02*
X166840952Y-108226430D01*
X166840952Y-107631192D01*
X166721905Y-107393097D01*
X166483810Y-107274049D01*
X166245714Y-107274049D01*
X166007619Y-107393097D01*
X165888571Y-107631192D01*
X165888571Y-108226430D01*
X165769524Y-108464526D01*
X165174286Y-109416907D02*
X166840952Y-110012145D01*
X165174286Y-110607383D02*
X166840952Y-110012145D01*
X167436190Y-109774050D01*
X167555238Y-109655002D01*
X167674286Y-109416907D01*
X165412381Y-111916907D02*
X165293333Y-111678812D01*
X165174286Y-111559764D01*
X164936190Y-111440716D01*
X164817143Y-111440716D01*
X164579048Y-111559764D01*
X164460000Y-111678812D01*
X164340952Y-111916907D01*
X164340952Y-112393097D01*
X164460000Y-112631193D01*
X164579048Y-112750240D01*
X164817143Y-112869288D01*
X164936190Y-112869288D01*
X165174286Y-112750240D01*
X165293333Y-112631193D01*
X165412381Y-112393097D01*
X165412381Y-111916907D01*
X165531429Y-111678812D01*
X165650476Y-111559764D01*
X165888571Y-111440716D01*
X166364762Y-111440716D01*
X166602857Y-111559764D01*
X166721905Y-111678812D01*
X166840952Y-111916907D01*
X166840952Y-112393097D01*
X166721905Y-112631193D01*
X166602857Y-112750240D01*
X166364762Y-112869288D01*
X165888571Y-112869288D01*
X165650476Y-112750240D01*
X165531429Y-112631193D01*
X165412381Y-112393097D01*
X164340952Y-115012145D02*
X164340952Y-114535954D01*
X164460000Y-114297859D01*
X164579048Y-114178811D01*
X164936190Y-113940716D01*
X165412381Y-113821668D01*
X166364762Y-113821668D01*
X166602857Y-113940716D01*
X166721905Y-114059764D01*
X166840952Y-114297859D01*
X166840952Y-114774049D01*
X166721905Y-115012145D01*
X166602857Y-115131192D01*
X166364762Y-115250240D01*
X165769524Y-115250240D01*
X165531429Y-115131192D01*
X165412381Y-115012145D01*
X165293333Y-114774049D01*
X165293333Y-114297859D01*
X165412381Y-114059764D01*
X165531429Y-113940716D01*
X165769524Y-113821668D01*
X166602857Y-116321668D02*
X166721905Y-116440716D01*
X166840952Y-116321668D01*
X166721905Y-116202620D01*
X166602857Y-116321668D01*
X166840952Y-116321668D01*
X166721905Y-118583573D02*
X166840952Y-118345477D01*
X166840952Y-117869287D01*
X166721905Y-117631192D01*
X166602857Y-117512144D01*
X166364762Y-117393096D01*
X165650476Y-117393096D01*
X165412381Y-117512144D01*
X165293333Y-117631192D01*
X165174286Y-117869287D01*
X165174286Y-118345477D01*
X165293333Y-118583573D01*
X166840952Y-120012144D02*
X166721905Y-119774049D01*
X166602857Y-119655001D01*
X166364762Y-119535953D01*
X165650476Y-119535953D01*
X165412381Y-119655001D01*
X165293333Y-119774049D01*
X165174286Y-120012144D01*
X165174286Y-120369287D01*
X165293333Y-120607382D01*
X165412381Y-120726430D01*
X165650476Y-120845477D01*
X166364762Y-120845477D01*
X166602857Y-120726430D01*
X166721905Y-120607382D01*
X166840952Y-120369287D01*
X166840952Y-120012144D01*
X166840952Y-121916906D02*
X165174286Y-121916906D01*
X165412381Y-121916906D02*
X165293333Y-122035954D01*
X165174286Y-122274049D01*
X165174286Y-122631192D01*
X165293333Y-122869287D01*
X165531429Y-122988335D01*
X166840952Y-122988335D01*
X165531429Y-122988335D02*
X165293333Y-123107382D01*
X165174286Y-123345478D01*
X165174286Y-123702620D01*
X165293333Y-123940716D01*
X165531429Y-124059763D01*
X166840952Y-124059763D01*
X175340952Y-75071667D02*
X174150476Y-74238333D01*
X175340952Y-73643095D02*
X172840952Y-73643095D01*
X172840952Y-74595476D01*
X172960000Y-74833571D01*
X173079048Y-74952619D01*
X173317143Y-75071667D01*
X173674286Y-75071667D01*
X173912381Y-74952619D01*
X174031429Y-74833571D01*
X174150476Y-74595476D01*
X174150476Y-73643095D01*
X175221905Y-77095476D02*
X175340952Y-76857381D01*
X175340952Y-76381190D01*
X175221905Y-76143095D01*
X174983810Y-76024047D01*
X174031429Y-76024047D01*
X173793333Y-76143095D01*
X173674286Y-76381190D01*
X173674286Y-76857381D01*
X173793333Y-77095476D01*
X174031429Y-77214524D01*
X174269524Y-77214524D01*
X174507619Y-76024047D01*
X175221905Y-79357381D02*
X175340952Y-79119285D01*
X175340952Y-78643095D01*
X175221905Y-78405000D01*
X175102857Y-78285952D01*
X174864762Y-78166904D01*
X174150476Y-78166904D01*
X173912381Y-78285952D01*
X173793333Y-78405000D01*
X173674286Y-78643095D01*
X173674286Y-79119285D01*
X173793333Y-79357381D01*
X175340952Y-80428809D02*
X173674286Y-80428809D01*
X174150476Y-80428809D02*
X173912381Y-80547857D01*
X173793333Y-80666904D01*
X173674286Y-80905000D01*
X173674286Y-81143095D01*
X175221905Y-82928809D02*
X175340952Y-82690714D01*
X175340952Y-82214523D01*
X175221905Y-81976428D01*
X174983810Y-81857380D01*
X174031429Y-81857380D01*
X173793333Y-81976428D01*
X173674286Y-82214523D01*
X173674286Y-82690714D01*
X173793333Y-82928809D01*
X174031429Y-83047857D01*
X174269524Y-83047857D01*
X174507619Y-81857380D01*
X175340952Y-85190714D02*
X174031429Y-85190714D01*
X173793333Y-85071666D01*
X173674286Y-84833571D01*
X173674286Y-84357380D01*
X173793333Y-84119285D01*
X175221905Y-85190714D02*
X175340952Y-84952618D01*
X175340952Y-84357380D01*
X175221905Y-84119285D01*
X174983810Y-84000237D01*
X174745714Y-84000237D01*
X174507619Y-84119285D01*
X174388571Y-84357380D01*
X174388571Y-84952618D01*
X174269524Y-85190714D01*
X173674286Y-86024047D02*
X173674286Y-86976428D01*
X172840952Y-86381190D02*
X174983810Y-86381190D01*
X175221905Y-86500238D01*
X175340952Y-86738333D01*
X175340952Y-86976428D01*
X175340952Y-87809761D02*
X173674286Y-87809761D01*
X172840952Y-87809761D02*
X172960000Y-87690713D01*
X173079048Y-87809761D01*
X172960000Y-87928809D01*
X172840952Y-87809761D01*
X173079048Y-87809761D01*
X173674286Y-89000237D02*
X175340952Y-89000237D01*
X173912381Y-89000237D02*
X173793333Y-89119285D01*
X173674286Y-89357380D01*
X173674286Y-89714523D01*
X173793333Y-89952618D01*
X174031429Y-90071666D01*
X175340952Y-90071666D01*
X173674286Y-92333571D02*
X175698095Y-92333571D01*
X175936190Y-92214523D01*
X176055238Y-92095475D01*
X176174286Y-91857380D01*
X176174286Y-91500237D01*
X176055238Y-91262142D01*
X175221905Y-92333571D02*
X175340952Y-92095475D01*
X175340952Y-91619285D01*
X175221905Y-91381190D01*
X175102857Y-91262142D01*
X174864762Y-91143094D01*
X174150476Y-91143094D01*
X173912381Y-91262142D01*
X173793333Y-91381190D01*
X173674286Y-91619285D01*
X173674286Y-92095475D01*
X173793333Y-92333571D01*
X173674286Y-95071666D02*
X173674286Y-96024047D01*
X172840952Y-95428809D02*
X174983810Y-95428809D01*
X175221905Y-95547857D01*
X175340952Y-95785952D01*
X175340952Y-96024047D01*
X175340952Y-96857380D02*
X172840952Y-96857380D01*
X175340952Y-97928809D02*
X174031429Y-97928809D01*
X173793333Y-97809761D01*
X173674286Y-97571666D01*
X173674286Y-97214523D01*
X173793333Y-96976428D01*
X173912381Y-96857380D01*
X175221905Y-100071666D02*
X175340952Y-99833571D01*
X175340952Y-99357380D01*
X175221905Y-99119285D01*
X174983810Y-99000237D01*
X174031429Y-99000237D01*
X173793333Y-99119285D01*
X173674286Y-99357380D01*
X173674286Y-99833571D01*
X173793333Y-100071666D01*
X174031429Y-100190714D01*
X174269524Y-100190714D01*
X174507619Y-99000237D01*
X175340952Y-103166904D02*
X172840952Y-103166904D01*
X172840952Y-103762142D01*
X172960000Y-104119285D01*
X173198095Y-104357380D01*
X173436190Y-104476428D01*
X173912381Y-104595476D01*
X174269524Y-104595476D01*
X174745714Y-104476428D01*
X174983810Y-104357380D01*
X175221905Y-104119285D01*
X175340952Y-103762142D01*
X175340952Y-103166904D01*
X175340952Y-106024047D02*
X175221905Y-105785952D01*
X175102857Y-105666904D01*
X174864762Y-105547856D01*
X174150476Y-105547856D01*
X173912381Y-105666904D01*
X173793333Y-105785952D01*
X173674286Y-106024047D01*
X173674286Y-106381190D01*
X173793333Y-106619285D01*
X173912381Y-106738333D01*
X174150476Y-106857380D01*
X174864762Y-106857380D01*
X175102857Y-106738333D01*
X175221905Y-106619285D01*
X175340952Y-106381190D01*
X175340952Y-106024047D01*
X175340952Y-107928809D02*
X173674286Y-107928809D01*
X173912381Y-107928809D02*
X173793333Y-108047857D01*
X173674286Y-108285952D01*
X173674286Y-108643095D01*
X173793333Y-108881190D01*
X174031429Y-109000238D01*
X175340952Y-109000238D01*
X174031429Y-109000238D02*
X173793333Y-109119285D01*
X173674286Y-109357381D01*
X173674286Y-109714523D01*
X173793333Y-109952619D01*
X174031429Y-110071666D01*
X175340952Y-110071666D01*
X175221905Y-112214523D02*
X175340952Y-111976428D01*
X175340952Y-111500237D01*
X175221905Y-111262142D01*
X174983810Y-111143094D01*
X174031429Y-111143094D01*
X173793333Y-111262142D01*
X173674286Y-111500237D01*
X173674286Y-111976428D01*
X173793333Y-112214523D01*
X174031429Y-112333571D01*
X174269524Y-112333571D01*
X174507619Y-111143094D01*
X175221905Y-113285951D02*
X175340952Y-113524047D01*
X175340952Y-114000237D01*
X175221905Y-114238332D01*
X174983810Y-114357380D01*
X174864762Y-114357380D01*
X174626667Y-114238332D01*
X174507619Y-114000237D01*
X174507619Y-113643094D01*
X174388571Y-113404999D01*
X174150476Y-113285951D01*
X174031429Y-113285951D01*
X173793333Y-113404999D01*
X173674286Y-113643094D01*
X173674286Y-114000237D01*
X173793333Y-114238332D01*
X175340952Y-116500238D02*
X172840952Y-116500238D01*
X175221905Y-116500238D02*
X175340952Y-116262142D01*
X175340952Y-115785952D01*
X175221905Y-115547857D01*
X175102857Y-115428809D01*
X174864762Y-115309761D01*
X174150476Y-115309761D01*
X173912381Y-115428809D01*
X173793333Y-115547857D01*
X173674286Y-115785952D01*
X173674286Y-116262142D01*
X173793333Y-116500238D01*
X175340952Y-118762143D02*
X174031429Y-118762143D01*
X173793333Y-118643095D01*
X173674286Y-118405000D01*
X173674286Y-117928809D01*
X173793333Y-117690714D01*
X175221905Y-118762143D02*
X175340952Y-118524047D01*
X175340952Y-117928809D01*
X175221905Y-117690714D01*
X174983810Y-117571666D01*
X174745714Y-117571666D01*
X174507619Y-117690714D01*
X174388571Y-117928809D01*
X174388571Y-118524047D01*
X174269524Y-118762143D01*
X173674286Y-119714524D02*
X175340952Y-120309762D01*
X173674286Y-120905000D02*
X175340952Y-120309762D01*
X175936190Y-120071667D01*
X176055238Y-119952619D01*
X176174286Y-119714524D01*
X178281429Y-87690714D02*
X178281429Y-88524047D01*
X179590952Y-88881190D02*
X179590952Y-87690714D01*
X177090952Y-87690714D01*
X177090952Y-88881190D01*
X179590952Y-89714524D02*
X177924286Y-91024048D01*
X177924286Y-89714524D02*
X179590952Y-91024048D01*
X177924286Y-91976429D02*
X180424286Y-91976429D01*
X178043333Y-91976429D02*
X177924286Y-92214524D01*
X177924286Y-92690715D01*
X178043333Y-92928810D01*
X178162381Y-93047858D01*
X178400476Y-93166905D01*
X179114762Y-93166905D01*
X179352857Y-93047858D01*
X179471905Y-92928810D01*
X179590952Y-92690715D01*
X179590952Y-92214524D01*
X179471905Y-91976429D01*
X179471905Y-95190715D02*
X179590952Y-94952620D01*
X179590952Y-94476429D01*
X179471905Y-94238334D01*
X179233810Y-94119286D01*
X178281429Y-94119286D01*
X178043333Y-94238334D01*
X177924286Y-94476429D01*
X177924286Y-94952620D01*
X178043333Y-95190715D01*
X178281429Y-95309763D01*
X178519524Y-95309763D01*
X178757619Y-94119286D01*
X179590952Y-96381191D02*
X177924286Y-96381191D01*
X178400476Y-96381191D02*
X178162381Y-96500239D01*
X178043333Y-96619286D01*
X177924286Y-96857382D01*
X177924286Y-97095477D01*
X179590952Y-97928810D02*
X177924286Y-97928810D01*
X177090952Y-97928810D02*
X177210000Y-97809762D01*
X177329048Y-97928810D01*
X177210000Y-98047858D01*
X177090952Y-97928810D01*
X177329048Y-97928810D01*
X179471905Y-100071667D02*
X179590952Y-99833572D01*
X179590952Y-99357381D01*
X179471905Y-99119286D01*
X179233810Y-99000238D01*
X178281429Y-99000238D01*
X178043333Y-99119286D01*
X177924286Y-99357381D01*
X177924286Y-99833572D01*
X178043333Y-100071667D01*
X178281429Y-100190715D01*
X178519524Y-100190715D01*
X178757619Y-99000238D01*
X177924286Y-101262143D02*
X179590952Y-101262143D01*
X178162381Y-101262143D02*
X178043333Y-101381191D01*
X177924286Y-101619286D01*
X177924286Y-101976429D01*
X178043333Y-102214524D01*
X178281429Y-102333572D01*
X179590952Y-102333572D01*
X179471905Y-104595477D02*
X179590952Y-104357381D01*
X179590952Y-103881191D01*
X179471905Y-103643096D01*
X179352857Y-103524048D01*
X179114762Y-103405000D01*
X178400476Y-103405000D01*
X178162381Y-103524048D01*
X178043333Y-103643096D01*
X177924286Y-103881191D01*
X177924286Y-104357381D01*
X178043333Y-104595477D01*
X179471905Y-106619286D02*
X179590952Y-106381191D01*
X179590952Y-105905000D01*
X179471905Y-105666905D01*
X179233810Y-105547857D01*
X178281429Y-105547857D01*
X178043333Y-105666905D01*
X177924286Y-105905000D01*
X177924286Y-106381191D01*
X178043333Y-106619286D01*
X178281429Y-106738334D01*
X178519524Y-106738334D01*
X178757619Y-105547857D01*
X138925000Y-108860952D02*
X138925000Y-106360952D01*
X138329762Y-106360952D01*
X137972619Y-106480000D01*
X137734524Y-106718095D01*
X137615476Y-106956190D01*
X137496428Y-107432381D01*
X137496428Y-107789524D01*
X137615476Y-108265714D01*
X137734524Y-108503810D01*
X137972619Y-108741905D01*
X138329762Y-108860952D01*
X138925000Y-108860952D01*
X136067857Y-108860952D02*
X136305952Y-108741905D01*
X136425000Y-108622857D01*
X136544048Y-108384762D01*
X136544048Y-107670476D01*
X136425000Y-107432381D01*
X136305952Y-107313333D01*
X136067857Y-107194286D01*
X135710714Y-107194286D01*
X135472619Y-107313333D01*
X135353571Y-107432381D01*
X135234524Y-107670476D01*
X135234524Y-108384762D01*
X135353571Y-108622857D01*
X135472619Y-108741905D01*
X135710714Y-108860952D01*
X136067857Y-108860952D01*
X134163095Y-108860952D02*
X134163095Y-107194286D01*
X134163095Y-107432381D02*
X134044047Y-107313333D01*
X133805952Y-107194286D01*
X133448809Y-107194286D01*
X133210714Y-107313333D01*
X133091666Y-107551429D01*
X133091666Y-108860952D01*
X133091666Y-107551429D02*
X132972619Y-107313333D01*
X132734523Y-107194286D01*
X132377381Y-107194286D01*
X132139285Y-107313333D01*
X132020238Y-107551429D01*
X132020238Y-108860952D01*
X129877381Y-108741905D02*
X130115476Y-108860952D01*
X130591667Y-108860952D01*
X130829762Y-108741905D01*
X130948810Y-108503810D01*
X130948810Y-107551429D01*
X130829762Y-107313333D01*
X130591667Y-107194286D01*
X130115476Y-107194286D01*
X129877381Y-107313333D01*
X129758333Y-107551429D01*
X129758333Y-107789524D01*
X130948810Y-108027619D01*
X128805953Y-108741905D02*
X128567857Y-108860952D01*
X128091667Y-108860952D01*
X127853572Y-108741905D01*
X127734524Y-108503810D01*
X127734524Y-108384762D01*
X127853572Y-108146667D01*
X128091667Y-108027619D01*
X128448810Y-108027619D01*
X128686905Y-107908571D01*
X128805953Y-107670476D01*
X128805953Y-107551429D01*
X128686905Y-107313333D01*
X128448810Y-107194286D01*
X128091667Y-107194286D01*
X127853572Y-107313333D01*
X125591666Y-108860952D02*
X125591666Y-106360952D01*
X125591666Y-108741905D02*
X125829762Y-108860952D01*
X126305952Y-108860952D01*
X126544047Y-108741905D01*
X126663095Y-108622857D01*
X126782143Y-108384762D01*
X126782143Y-107670476D01*
X126663095Y-107432381D01*
X126544047Y-107313333D01*
X126305952Y-107194286D01*
X125829762Y-107194286D01*
X125591666Y-107313333D01*
X123329761Y-108860952D02*
X123329761Y-107551429D01*
X123448809Y-107313333D01*
X123686904Y-107194286D01*
X124163095Y-107194286D01*
X124401190Y-107313333D01*
X123329761Y-108741905D02*
X123567857Y-108860952D01*
X124163095Y-108860952D01*
X124401190Y-108741905D01*
X124520238Y-108503810D01*
X124520238Y-108265714D01*
X124401190Y-108027619D01*
X124163095Y-107908571D01*
X123567857Y-107908571D01*
X123329761Y-107789524D01*
X122377380Y-107194286D02*
X121782142Y-108860952D01*
X121186904Y-107194286D02*
X121782142Y-108860952D01*
X122020237Y-109456190D01*
X122139285Y-109575238D01*
X122377380Y-109694286D01*
X139163095Y-113110952D02*
X139163095Y-110610952D01*
X138567857Y-110610952D01*
X138210714Y-110730000D01*
X137972619Y-110968095D01*
X137853571Y-111206190D01*
X137734523Y-111682381D01*
X137734523Y-112039524D01*
X137853571Y-112515714D01*
X137972619Y-112753810D01*
X138210714Y-112991905D01*
X138567857Y-113110952D01*
X139163095Y-113110952D01*
X135591666Y-111444286D02*
X135591666Y-113110952D01*
X136663095Y-111444286D02*
X136663095Y-112753810D01*
X136544047Y-112991905D01*
X136305952Y-113110952D01*
X135948809Y-113110952D01*
X135710714Y-112991905D01*
X135591666Y-112872857D01*
X134401190Y-111444286D02*
X134401190Y-113944286D01*
X134401190Y-111563333D02*
X134163095Y-111444286D01*
X133686904Y-111444286D01*
X133448809Y-111563333D01*
X133329761Y-111682381D01*
X133210714Y-111920476D01*
X133210714Y-112634762D01*
X133329761Y-112872857D01*
X133448809Y-112991905D01*
X133686904Y-113110952D01*
X134163095Y-113110952D01*
X134401190Y-112991905D01*
X131782142Y-113110952D02*
X132020237Y-112991905D01*
X132139285Y-112753810D01*
X132139285Y-110610952D01*
X130829761Y-113110952D02*
X130829761Y-111444286D01*
X130829761Y-110610952D02*
X130948809Y-110730000D01*
X130829761Y-110849048D01*
X130710713Y-110730000D01*
X130829761Y-110610952D01*
X130829761Y-110849048D01*
X128567856Y-112991905D02*
X128805952Y-113110952D01*
X129282142Y-113110952D01*
X129520237Y-112991905D01*
X129639285Y-112872857D01*
X129758333Y-112634762D01*
X129758333Y-111920476D01*
X129639285Y-111682381D01*
X129520237Y-111563333D01*
X129282142Y-111444286D01*
X128805952Y-111444286D01*
X128567856Y-111563333D01*
X126424999Y-113110952D02*
X126424999Y-111801429D01*
X126544047Y-111563333D01*
X126782142Y-111444286D01*
X127258333Y-111444286D01*
X127496428Y-111563333D01*
X126424999Y-112991905D02*
X126663095Y-113110952D01*
X127258333Y-113110952D01*
X127496428Y-112991905D01*
X127615476Y-112753810D01*
X127615476Y-112515714D01*
X127496428Y-112277619D01*
X127258333Y-112158571D01*
X126663095Y-112158571D01*
X126424999Y-112039524D01*
X125591666Y-111444286D02*
X124639285Y-111444286D01*
X125234523Y-110610952D02*
X125234523Y-112753810D01*
X125115475Y-112991905D01*
X124877380Y-113110952D01*
X124639285Y-113110952D01*
X123448809Y-113110952D02*
X123686904Y-112991905D01*
X123805952Y-112872857D01*
X123925000Y-112634762D01*
X123925000Y-111920476D01*
X123805952Y-111682381D01*
X123686904Y-111563333D01*
X123448809Y-111444286D01*
X123091666Y-111444286D01*
X122853571Y-111563333D01*
X122734523Y-111682381D01*
X122615476Y-111920476D01*
X122615476Y-112634762D01*
X122734523Y-112872857D01*
X122853571Y-112991905D01*
X123091666Y-113110952D01*
X123448809Y-113110952D01*
X121544047Y-113110952D02*
X121544047Y-111444286D01*
X121544047Y-111920476D02*
X121424999Y-111682381D01*
X121305952Y-111563333D01*
X121067856Y-111444286D01*
X120829761Y-111444286D01*
D12*
X113165000Y-77890000D02*
X114165000Y-77890000D01*
X114165000Y-79590000D02*
X113165000Y-79590000D01*
X113165000Y-75350000D02*
X114165000Y-75350000D01*
X114165000Y-77050000D02*
X113165000Y-77050000D01*
X113165000Y-82970000D02*
X114165000Y-82970000D01*
X114165000Y-84670000D02*
X113165000Y-84670000D01*
X113165000Y-80430000D02*
X114165000Y-80430000D01*
X114165000Y-82130000D02*
X113165000Y-82130000D01*
X113165000Y-72810000D02*
X114165000Y-72810000D01*
X114165000Y-74510000D02*
X113165000Y-74510000D01*
D13*
X110021666Y-79097143D02*
X110069285Y-79144762D01*
X110212142Y-79192381D01*
X110307380Y-79192381D01*
X110450238Y-79144762D01*
X110545476Y-79049524D01*
X110593095Y-78954286D01*
X110640714Y-78763810D01*
X110640714Y-78620952D01*
X110593095Y-78430476D01*
X110545476Y-78335238D01*
X110450238Y-78240000D01*
X110307380Y-78192381D01*
X110212142Y-78192381D01*
X110069285Y-78240000D01*
X110021666Y-78287619D01*
X109069285Y-79192381D02*
X109640714Y-79192381D01*
X109355000Y-79192381D02*
X109355000Y-78192381D01*
X109450238Y-78335238D01*
X109545476Y-78430476D01*
X109640714Y-78478095D01*
X110021666Y-76557143D02*
X110069285Y-76604762D01*
X110212142Y-76652381D01*
X110307380Y-76652381D01*
X110450238Y-76604762D01*
X110545476Y-76509524D01*
X110593095Y-76414286D01*
X110640714Y-76223810D01*
X110640714Y-76080952D01*
X110593095Y-75890476D01*
X110545476Y-75795238D01*
X110450238Y-75700000D01*
X110307380Y-75652381D01*
X110212142Y-75652381D01*
X110069285Y-75700000D01*
X110021666Y-75747619D01*
X109164523Y-75652381D02*
X109355000Y-75652381D01*
X109450238Y-75700000D01*
X109497857Y-75747619D01*
X109593095Y-75890476D01*
X109640714Y-76080952D01*
X109640714Y-76461905D01*
X109593095Y-76557143D01*
X109545476Y-76604762D01*
X109450238Y-76652381D01*
X109259761Y-76652381D01*
X109164523Y-76604762D01*
X109116904Y-76557143D01*
X109069285Y-76461905D01*
X109069285Y-76223810D01*
X109116904Y-76128571D01*
X109164523Y-76080952D01*
X109259761Y-76033333D01*
X109450238Y-76033333D01*
X109545476Y-76080952D01*
X109593095Y-76128571D01*
X109640714Y-76223810D01*
X109862857Y-84177143D02*
X109910476Y-84224762D01*
X110053333Y-84272381D01*
X110148571Y-84272381D01*
X110291429Y-84224762D01*
X110386667Y-84129524D01*
X110434286Y-84034286D01*
X110481905Y-83843810D01*
X110481905Y-83700952D01*
X110434286Y-83510476D01*
X110386667Y-83415238D01*
X110291429Y-83320000D01*
X110148571Y-83272381D01*
X110053333Y-83272381D01*
X109910476Y-83320000D01*
X109862857Y-83367619D01*
X108910476Y-84272381D02*
X109481905Y-84272381D01*
X109196191Y-84272381D02*
X109196191Y-83272381D01*
X109291429Y-83415238D01*
X109386667Y-83510476D01*
X109481905Y-83558095D01*
X108529524Y-83367619D02*
X108481905Y-83320000D01*
X108386667Y-83272381D01*
X108148571Y-83272381D01*
X108053333Y-83320000D01*
X108005714Y-83367619D01*
X107958095Y-83462857D01*
X107958095Y-83558095D01*
X108005714Y-83700952D01*
X108577143Y-84272381D01*
X107958095Y-84272381D01*
X109862857Y-81637143D02*
X109910476Y-81684762D01*
X110053333Y-81732381D01*
X110148571Y-81732381D01*
X110291429Y-81684762D01*
X110386667Y-81589524D01*
X110434286Y-81494286D01*
X110481905Y-81303810D01*
X110481905Y-81160952D01*
X110434286Y-80970476D01*
X110386667Y-80875238D01*
X110291429Y-80780000D01*
X110148571Y-80732381D01*
X110053333Y-80732381D01*
X109910476Y-80780000D01*
X109862857Y-80827619D01*
X108910476Y-81732381D02*
X109481905Y-81732381D01*
X109196191Y-81732381D02*
X109196191Y-80732381D01*
X109291429Y-80875238D01*
X109386667Y-80970476D01*
X109481905Y-81018095D01*
X108339048Y-81160952D02*
X108434286Y-81113333D01*
X108481905Y-81065714D01*
X108529524Y-80970476D01*
X108529524Y-80922857D01*
X108481905Y-80827619D01*
X108434286Y-80780000D01*
X108339048Y-80732381D01*
X108148571Y-80732381D01*
X108053333Y-80780000D01*
X108005714Y-80827619D01*
X107958095Y-80922857D01*
X107958095Y-80970476D01*
X108005714Y-81065714D01*
X108053333Y-81113333D01*
X108148571Y-81160952D01*
X108339048Y-81160952D01*
X108434286Y-81208571D01*
X108481905Y-81256190D01*
X108529524Y-81351429D01*
X108529524Y-81541905D01*
X108481905Y-81637143D01*
X108434286Y-81684762D01*
X108339048Y-81732381D01*
X108148571Y-81732381D01*
X108053333Y-81684762D01*
X108005714Y-81637143D01*
X107958095Y-81541905D01*
X107958095Y-81351429D01*
X108005714Y-81256190D01*
X108053333Y-81208571D01*
X108148571Y-81160952D01*
X109862857Y-74017143D02*
X109910476Y-74064762D01*
X110053333Y-74112381D01*
X110148571Y-74112381D01*
X110291429Y-74064762D01*
X110386667Y-73969524D01*
X110434286Y-73874286D01*
X110481905Y-73683810D01*
X110481905Y-73540952D01*
X110434286Y-73350476D01*
X110386667Y-73255238D01*
X110291429Y-73160000D01*
X110148571Y-73112381D01*
X110053333Y-73112381D01*
X109910476Y-73160000D01*
X109862857Y-73207619D01*
X109481905Y-73207619D02*
X109434286Y-73160000D01*
X109339048Y-73112381D01*
X109100952Y-73112381D01*
X109005714Y-73160000D01*
X108958095Y-73207619D01*
X108910476Y-73302857D01*
X108910476Y-73398095D01*
X108958095Y-73540952D01*
X109529524Y-74112381D01*
X108910476Y-74112381D01*
X108291429Y-73112381D02*
X108196190Y-73112381D01*
X108100952Y-73160000D01*
X108053333Y-73207619D01*
X108005714Y-73302857D01*
X107958095Y-73493333D01*
X107958095Y-73731429D01*
X108005714Y-73921905D01*
X108053333Y-74017143D01*
X108100952Y-74064762D01*
X108196190Y-74112381D01*
X108291429Y-74112381D01*
X108386667Y-74064762D01*
X108434286Y-74017143D01*
X108481905Y-73921905D01*
X108529524Y-73731429D01*
X108529524Y-73493333D01*
X108481905Y-73302857D01*
X108434286Y-73207619D01*
X108386667Y-73160000D01*
X108291429Y-73112381D01*
M02*
