M48
;DRILL file {KiCad 4.0.6} date 11/14/17 10:01:11
;FORMAT={-:-/ absolute / inch / decimal}
FMAT,2
INCH,TZ
T1C0.016
T2C0.039
T3C0.051
%
G90
G05
M72
T1
X3.925Y-2.8
X3.925Y-2.9
X3.925Y-3.
X3.925Y-3.1
X3.925Y-3.2
X3.925Y-3.3
X3.925Y-3.4
X3.925Y-3.5
X3.925Y-3.6
X3.925Y-3.7
X3.925Y-3.8
X3.925Y-3.9
X3.925Y-4.
X3.925Y-4.1
X3.925Y-4.2
X3.925Y-4.3
X3.925Y-4.4
X3.925Y-4.5
X3.925Y-4.6
X3.925Y-4.7
X3.925Y-4.8
X3.925Y-4.9
X3.975Y-2.7
X4.075Y-2.7
X4.075Y-4.95
X4.15Y-2.775
X4.175Y-2.7
X4.175Y-4.95
X4.2Y-2.9
X4.2Y-3.
X4.2Y-3.1
X4.2Y-3.2
X4.2Y-3.3
X4.2Y-3.875
X4.2Y-3.95
X4.275Y-2.7
X4.275Y-4.95
X4.3Y-3.475
X4.375Y-2.7
X4.375Y-4.95
X4.475Y-2.7
X4.475Y-4.95
X4.575Y-2.7
X4.575Y-3.425
X4.575Y-3.525
X4.575Y-3.85
X4.575Y-4.95
X4.6Y-2.9
X4.6Y-3.
X4.6Y-3.2
X4.6Y-3.25
X4.6Y-3.3
X4.675Y-2.7
X4.675Y-4.95
X4.775Y-2.7
X4.775Y-4.95
X4.85Y-3.225
X4.875Y-2.7
X4.875Y-4.95
X4.9Y-3.3
X4.975Y-2.7
X4.975Y-4.95
X5.075Y-2.7
X5.075Y-4.95
X5.125Y-2.875
X5.125Y-3.65
X5.175Y-2.7
X5.175Y-4.95
X5.2Y-3.1
X5.225Y-3.925
X5.275Y-2.7
X5.275Y-4.95
X5.375Y-2.7
X5.375Y-4.95
X5.45Y-3.1
X5.45Y-3.475
X5.475Y-2.7
X5.475Y-4.95
X5.5Y-3.925
X5.55Y-3.675
X5.575Y-2.7
X5.575Y-4.95
X5.625Y-4.175
X5.675Y-2.7
X5.675Y-4.95
X5.725Y-4.875
X5.775Y-2.7
X5.775Y-4.95
X5.875Y-2.7
X5.875Y-4.95
X5.975Y-2.7
X5.975Y-4.95
X6.075Y-2.7
X6.075Y-4.95
X6.175Y-2.7
X6.175Y-4.95
X6.275Y-2.7
X6.275Y-4.95
X6.375Y-2.7
X6.375Y-4.95
X6.475Y-2.7
X6.475Y-4.95
X6.575Y-2.7
X6.575Y-4.95
X6.675Y-2.7
X6.675Y-4.95
X6.775Y-2.7
X6.775Y-4.95
X6.875Y-2.7
X6.875Y-4.95
X6.975Y-2.7
X6.975Y-4.95
X7.075Y-2.7
X7.075Y-4.95
X7.175Y-2.7
X7.175Y-4.95
X7.275Y-2.7
X7.275Y-4.95
X7.375Y-2.7
X7.375Y-4.95
X7.475Y-2.7
X7.475Y-4.95
X7.575Y-2.7
X7.575Y-4.95
X7.675Y-2.7
X7.675Y-4.95
X7.775Y-2.7
X7.775Y-4.95
X7.875Y-2.7
X7.875Y-4.95
X7.95Y-2.8
X7.95Y-2.9
X7.95Y-3.
X7.95Y-3.1
X7.95Y-3.2
X7.95Y-3.3
X7.95Y-3.4
X7.95Y-3.5
X7.95Y-3.6
X7.95Y-3.7
X7.95Y-3.8
X7.95Y-3.9
X7.95Y-4.
X7.95Y-4.1
X7.95Y-4.2
X7.95Y-4.3
X7.95Y-4.4
X7.95Y-4.5
X7.95Y-4.6
X7.95Y-4.7
X7.95Y-4.8
X7.95Y-4.9
T2
X4.325Y-4.375
X5.725Y-2.875
X5.725Y-2.975
X5.725Y-3.075
X5.725Y-3.175
X5.725Y-3.275
X5.725Y-3.375
X5.725Y-3.475
X5.725Y-3.575
X5.725Y-3.675
X5.725Y-3.775
X5.725Y-3.875
X5.725Y-3.975
X5.725Y-4.075
X5.725Y-4.175
X5.725Y-4.275
X5.725Y-4.375
X5.725Y-4.475
X5.725Y-4.575
X5.725Y-4.675
X5.725Y-4.775
X5.825Y-2.875
X5.825Y-2.975
X5.825Y-3.075
X5.825Y-3.175
X5.825Y-3.275
X5.825Y-3.375
X5.825Y-3.475
X5.825Y-3.575
X5.825Y-3.675
X5.825Y-3.775
X5.825Y-3.875
X5.825Y-3.975
X5.825Y-4.075
X5.825Y-4.175
X5.825Y-4.275
X5.825Y-4.375
X5.825Y-4.475
X5.825Y-4.575
X5.825Y-4.675
X5.825Y-4.775
X6.1Y-2.875
X6.1Y-2.975
X6.1Y-3.075
X6.1Y-3.175
X6.1Y-3.275
X6.1Y-3.375
X6.1Y-3.475
X6.1Y-3.575
X6.1Y-3.675
X6.1Y-3.775
X6.1Y-3.875
X6.1Y-3.975
X6.1Y-4.075
X6.1Y-4.175
X6.1Y-4.275
X6.1Y-4.375
X6.1Y-4.475
X6.1Y-4.575
X6.1Y-4.675
X6.1Y-4.775
X6.2Y-2.875
X6.2Y-2.975
X6.2Y-3.075
X6.2Y-3.175
X6.2Y-3.275
X6.2Y-3.375
X6.2Y-3.475
X6.2Y-3.575
X6.2Y-3.675
X6.2Y-3.775
X6.2Y-3.875
X6.2Y-3.975
X6.2Y-4.075
X6.2Y-4.175
X6.2Y-4.275
X6.2Y-4.375
X6.2Y-4.475
X6.2Y-4.575
X6.2Y-4.675
X6.2Y-4.775
X7.425Y-2.875
X7.425Y-2.975
X7.425Y-3.075
X7.425Y-3.175
X7.425Y-3.275
X7.425Y-3.375
X7.425Y-3.475
X7.425Y-3.575
X7.425Y-3.675
X7.425Y-3.775
X7.425Y-3.875
X7.425Y-3.975
X7.425Y-4.075
X7.425Y-4.175
X7.425Y-4.275
X7.425Y-4.375
X7.425Y-4.475
X7.425Y-4.575
X7.425Y-4.675
X7.425Y-4.775
X7.525Y-2.875
X7.525Y-2.975
X7.525Y-3.075
X7.525Y-3.175
X7.525Y-3.275
X7.525Y-3.375
X7.525Y-3.475
X7.525Y-3.575
X7.525Y-3.675
X7.525Y-3.775
X7.525Y-3.875
X7.525Y-3.975
X7.525Y-4.075
X7.525Y-4.175
X7.525Y-4.275
X7.525Y-4.375
X7.525Y-4.475
X7.525Y-4.575
X7.525Y-4.675
X7.525Y-4.775
X7.75Y-2.875
X7.75Y-2.975
X7.75Y-3.075
X7.75Y-3.175
X7.75Y-3.275
X7.75Y-3.375
X7.75Y-3.475
X7.75Y-3.575
X7.75Y-3.675
X7.75Y-3.775
X7.75Y-3.875
X7.75Y-3.975
X7.75Y-4.075
X7.75Y-4.175
X7.75Y-4.275
X7.75Y-4.375
X7.75Y-4.475
X7.75Y-4.575
X7.75Y-4.675
X7.75Y-4.775
X7.85Y-2.875
X7.85Y-2.975
X7.85Y-3.075
X7.85Y-3.175
X7.85Y-3.275
X7.85Y-3.375
X7.85Y-3.475
X7.85Y-3.575
X7.85Y-3.675
X7.85Y-3.775
X7.85Y-3.875
X7.85Y-3.975
X7.85Y-4.075
X7.85Y-4.175
X7.85Y-4.275
X7.85Y-4.375
X7.85Y-4.475
X7.85Y-4.575
X7.85Y-4.675
X7.85Y-4.775
T3
X4.125Y-4.175
X4.125Y-4.575
X4.525Y-4.175
X4.525Y-4.575
T0
M30
