G04 #@! TF.FileFunction,Soldermask,Top*
%FSLAX46Y46*%
G04 Gerber Fmt 4.6, Leading zero omitted, Abs format (unit mm)*
G04 Created by KiCad (PCBNEW 4.0.7) date 04/16/18 15:15:31*
%MOMM*%
%LPD*%
G01*
G04 APERTURE LIST*
%ADD10C,0.100000*%
%ADD11R,1.700000X1.700000*%
%ADD12O,1.700000X1.700000*%
%ADD13R,2.600000X1.600000*%
%ADD14C,3.000000*%
%ADD15C,4.000000*%
%ADD16R,3.200000X2.000000*%
%ADD17R,3.800000X2.000000*%
%ADD18R,1.500000X2.000000*%
%ADD19R,1.750000X0.450000*%
%ADD20R,1.450000X0.450000*%
%ADD21R,1.550000X0.600000*%
%ADD22R,1.000000X1.250000*%
%ADD23R,1.950000X1.500000*%
%ADD24R,1.250000X1.000000*%
%ADD25R,1.500000X1.950000*%
%ADD26R,0.700000X1.300000*%
G04 APERTURE END LIST*
D10*
D11*
X196850000Y-73152000D03*
D12*
X199390000Y-73152000D03*
X196850000Y-75692000D03*
X199390000Y-75692000D03*
X196850000Y-78232000D03*
X199390000Y-78232000D03*
X196850000Y-80772000D03*
X199390000Y-80772000D03*
X196850000Y-83312000D03*
X199390000Y-83312000D03*
X196850000Y-85852000D03*
X199390000Y-85852000D03*
X196850000Y-88392000D03*
X199390000Y-88392000D03*
X196850000Y-90932000D03*
X199390000Y-90932000D03*
X196850000Y-93472000D03*
X199390000Y-93472000D03*
X196850000Y-96012000D03*
X199390000Y-96012000D03*
X196850000Y-98552000D03*
X199390000Y-98552000D03*
X196850000Y-101092000D03*
X199390000Y-101092000D03*
X196850000Y-103632000D03*
X199390000Y-103632000D03*
X196850000Y-106172000D03*
X199390000Y-106172000D03*
X196850000Y-108712000D03*
X199390000Y-108712000D03*
X196850000Y-111252000D03*
X199390000Y-111252000D03*
X196850000Y-113792000D03*
X199390000Y-113792000D03*
X196850000Y-116332000D03*
X199390000Y-116332000D03*
X196850000Y-118872000D03*
X199390000Y-118872000D03*
X196850000Y-121412000D03*
X199390000Y-121412000D03*
D13*
X128756000Y-107188000D03*
X132356000Y-107188000D03*
X137392000Y-107188000D03*
X140992000Y-107188000D03*
D11*
X154686000Y-73152000D03*
D12*
X157226000Y-73152000D03*
X154686000Y-75692000D03*
X157226000Y-75692000D03*
X154686000Y-78232000D03*
X157226000Y-78232000D03*
X154686000Y-80772000D03*
X157226000Y-80772000D03*
X154686000Y-83312000D03*
X157226000Y-83312000D03*
X154686000Y-85852000D03*
X157226000Y-85852000D03*
X154686000Y-88392000D03*
X157226000Y-88392000D03*
X154686000Y-90932000D03*
X157226000Y-90932000D03*
X154686000Y-93472000D03*
X157226000Y-93472000D03*
X154686000Y-96012000D03*
X157226000Y-96012000D03*
X154686000Y-98552000D03*
X157226000Y-98552000D03*
X154686000Y-101092000D03*
X157226000Y-101092000D03*
X154686000Y-103632000D03*
X157226000Y-103632000D03*
X154686000Y-106172000D03*
X157226000Y-106172000D03*
X154686000Y-108712000D03*
X157226000Y-108712000D03*
X154686000Y-111252000D03*
X157226000Y-111252000D03*
X154686000Y-113792000D03*
X157226000Y-113792000D03*
X154686000Y-116332000D03*
X157226000Y-116332000D03*
X154686000Y-118872000D03*
X157226000Y-118872000D03*
X154686000Y-121412000D03*
X157226000Y-121412000D03*
D14*
X117856000Y-111760000D03*
D15*
X122936000Y-116840000D03*
X112776000Y-116840000D03*
X112776000Y-106680000D03*
X122936000Y-106680000D03*
D16*
X130937000Y-114210000D03*
X130937000Y-122010000D03*
D17*
X139192000Y-120498000D03*
D18*
X139192000Y-114198000D03*
X136892000Y-114198000D03*
X141492000Y-114198000D03*
D19*
X131616000Y-83473000D03*
X131616000Y-82823000D03*
X131616000Y-82173000D03*
X131616000Y-81523000D03*
X131616000Y-80873000D03*
X131616000Y-80223000D03*
X131616000Y-79573000D03*
X131616000Y-78923000D03*
X131616000Y-78273000D03*
X131616000Y-77623000D03*
X131616000Y-76973000D03*
X131616000Y-76323000D03*
X131616000Y-75673000D03*
X131616000Y-75023000D03*
X124416000Y-75023000D03*
X124416000Y-75673000D03*
X124416000Y-76323000D03*
X124416000Y-76973000D03*
X124416000Y-77623000D03*
X124416000Y-78273000D03*
X124416000Y-78923000D03*
X124416000Y-79573000D03*
X124416000Y-80223000D03*
X124416000Y-80873000D03*
X124416000Y-81523000D03*
X124416000Y-82173000D03*
X124416000Y-82823000D03*
X124416000Y-83473000D03*
D20*
X135226000Y-76323000D03*
X135226000Y-76973000D03*
X135226000Y-77623000D03*
X135226000Y-78273000D03*
X135226000Y-78923000D03*
X135226000Y-79573000D03*
X135226000Y-80223000D03*
X135226000Y-80873000D03*
X135226000Y-81523000D03*
X135226000Y-82173000D03*
X141126000Y-82173000D03*
X141126000Y-81523000D03*
X141126000Y-80873000D03*
X141126000Y-80223000D03*
X141126000Y-79573000D03*
X141126000Y-78923000D03*
X141126000Y-78273000D03*
X141126000Y-77623000D03*
X141126000Y-76973000D03*
X141126000Y-76323000D03*
X135226000Y-85467000D03*
X135226000Y-86117000D03*
X135226000Y-86767000D03*
X135226000Y-87417000D03*
X135226000Y-88067000D03*
X135226000Y-88717000D03*
X135226000Y-89367000D03*
X135226000Y-90017000D03*
X135226000Y-90667000D03*
X135226000Y-91317000D03*
X141126000Y-91317000D03*
X141126000Y-90667000D03*
X141126000Y-90017000D03*
X141126000Y-89367000D03*
X141126000Y-88717000D03*
X141126000Y-88067000D03*
X141126000Y-87417000D03*
X141126000Y-86767000D03*
X141126000Y-86117000D03*
X141126000Y-85467000D03*
D21*
X124300000Y-98679000D03*
X124300000Y-99949000D03*
X124300000Y-101219000D03*
X124300000Y-102489000D03*
X129700000Y-102489000D03*
X129700000Y-101219000D03*
X129700000Y-99949000D03*
X129700000Y-98679000D03*
D22*
X120380000Y-80264000D03*
X118380000Y-80264000D03*
D23*
X115167000Y-79756000D03*
X112417000Y-79756000D03*
D22*
X127016000Y-72644000D03*
X129016000Y-72644000D03*
D24*
X129032000Y-85868000D03*
X129032000Y-87868000D03*
D22*
X120380000Y-77724000D03*
X118380000Y-77724000D03*
X129556000Y-111252000D03*
X131556000Y-111252000D03*
D25*
X131572000Y-86509000D03*
X131572000Y-89259000D03*
D23*
X115167000Y-77216000D03*
X112417000Y-77216000D03*
D22*
X139176000Y-74676000D03*
X137176000Y-74676000D03*
X120380000Y-87884000D03*
X118380000Y-87884000D03*
X139176000Y-83820000D03*
X137176000Y-83820000D03*
X138192000Y-111252000D03*
X140192000Y-111252000D03*
D23*
X115167000Y-87376000D03*
X112417000Y-87376000D03*
D24*
X127000000Y-85868000D03*
X127000000Y-87868000D03*
D25*
X124460000Y-86509000D03*
X124460000Y-89259000D03*
D22*
X120380000Y-82804000D03*
X118380000Y-82804000D03*
D23*
X115167000Y-82296000D03*
X112417000Y-82296000D03*
D22*
X120380000Y-75184000D03*
X118380000Y-75184000D03*
D23*
X115167000Y-74676000D03*
X112417000Y-74676000D03*
D22*
X129524000Y-93980000D03*
X127524000Y-93980000D03*
D23*
X129899000Y-96520000D03*
X127149000Y-96520000D03*
D22*
X116824000Y-103124000D03*
X114824000Y-103124000D03*
X120380000Y-90424000D03*
X118380000Y-90424000D03*
X124952000Y-93980000D03*
X122952000Y-93980000D03*
X120380000Y-85344000D03*
X118380000Y-85344000D03*
D23*
X115167000Y-84836000D03*
X112417000Y-84836000D03*
D26*
X120330000Y-103124000D03*
X118430000Y-103124000D03*
X120330000Y-100584000D03*
X118430000Y-100584000D03*
X118430000Y-98044000D03*
X120330000Y-98044000D03*
X120330000Y-92964000D03*
X118430000Y-92964000D03*
X118430000Y-95504000D03*
X120330000Y-95504000D03*
X124902000Y-96520000D03*
X123002000Y-96520000D03*
X114874000Y-100584000D03*
X116774000Y-100584000D03*
X116774000Y-98044000D03*
X114874000Y-98044000D03*
D11*
X147828000Y-121412000D03*
D12*
X145288000Y-121412000D03*
X147828000Y-118872000D03*
X145288000Y-118872000D03*
X147828000Y-116332000D03*
X145288000Y-116332000D03*
X147828000Y-113792000D03*
X145288000Y-113792000D03*
X147828000Y-111252000D03*
X145288000Y-111252000D03*
X147828000Y-108712000D03*
X145288000Y-108712000D03*
X147828000Y-106172000D03*
X145288000Y-106172000D03*
X147828000Y-103632000D03*
X145288000Y-103632000D03*
X147828000Y-101092000D03*
X145288000Y-101092000D03*
X147828000Y-98552000D03*
X145288000Y-98552000D03*
X147828000Y-96012000D03*
X145288000Y-96012000D03*
X147828000Y-93472000D03*
X145288000Y-93472000D03*
X147828000Y-90932000D03*
X145288000Y-90932000D03*
X147828000Y-88392000D03*
X145288000Y-88392000D03*
X147828000Y-85852000D03*
X145288000Y-85852000D03*
X147828000Y-83312000D03*
X145288000Y-83312000D03*
X147828000Y-80772000D03*
X145288000Y-80772000D03*
X147828000Y-78232000D03*
X145288000Y-78232000D03*
X147828000Y-75692000D03*
X145288000Y-75692000D03*
X147828000Y-73152000D03*
X145288000Y-73152000D03*
D11*
X188595000Y-73152000D03*
D12*
X191135000Y-73152000D03*
X188595000Y-75692000D03*
X191135000Y-75692000D03*
X188595000Y-78232000D03*
X191135000Y-78232000D03*
X188595000Y-80772000D03*
X191135000Y-80772000D03*
X188595000Y-83312000D03*
X191135000Y-83312000D03*
X188595000Y-85852000D03*
X191135000Y-85852000D03*
X188595000Y-88392000D03*
X191135000Y-88392000D03*
X188595000Y-90932000D03*
X191135000Y-90932000D03*
X188595000Y-93472000D03*
X191135000Y-93472000D03*
X188595000Y-96012000D03*
X191135000Y-96012000D03*
X188595000Y-98552000D03*
X191135000Y-98552000D03*
X188595000Y-101092000D03*
X191135000Y-101092000D03*
X188595000Y-103632000D03*
X191135000Y-103632000D03*
X188595000Y-106172000D03*
X191135000Y-106172000D03*
X188595000Y-108712000D03*
X191135000Y-108712000D03*
X188595000Y-111252000D03*
X191135000Y-111252000D03*
X188595000Y-113792000D03*
X191135000Y-113792000D03*
X188595000Y-116332000D03*
X191135000Y-116332000D03*
X188595000Y-118872000D03*
X191135000Y-118872000D03*
X188595000Y-121412000D03*
X191135000Y-121412000D03*
D26*
X116774000Y-95504000D03*
X114874000Y-95504000D03*
M02*
